%TF.GenerationSoftware,KiCad,Pcbnew,8.0.5*%
%TF.CreationDate,2024-10-25T02:08:45-07:00*%
%TF.ProjectId,ChungRF,4368756e-6752-4462-9e6b-696361645f70,R3*%
%TF.SameCoordinates,Original*%
%TF.FileFunction,Legend,Top*%
%TF.FilePolarity,Positive*%
%FSLAX46Y46*%
G04 Gerber Fmt 4.6, Leading zero omitted, Abs format (unit mm)*
G04 Created by KiCad (PCBNEW 8.0.5) date 2024-10-25 02:08:45*
%MOMM*%
%LPD*%
G01*
G04 APERTURE LIST*
%ADD10C,0.300000*%
%ADD11C,0.155000*%
%ADD12C,0.120000*%
%ADD13C,0.100000*%
G04 APERTURE END LIST*
D10*
G36*
X175912323Y-109875580D02*
G01*
X175981849Y-109884088D01*
X176049079Y-109906423D01*
X176053310Y-109908394D01*
X176111654Y-109944207D01*
X176163287Y-109995327D01*
X176171814Y-110006306D01*
X176208679Y-110067419D01*
X176234410Y-110133813D01*
X176244003Y-110170018D01*
X176255568Y-110242032D01*
X176259030Y-110314015D01*
X176257852Y-110356616D01*
X176250351Y-110425306D01*
X176234410Y-110493534D01*
X176229602Y-110508280D01*
X176202076Y-110572009D01*
X176163287Y-110630994D01*
X176160380Y-110634558D01*
X176108063Y-110684599D01*
X176049079Y-110719556D01*
X176036234Y-110725117D01*
X175967502Y-110744717D01*
X175896574Y-110750673D01*
X175880524Y-110750399D01*
X175810157Y-110741891D01*
X175743042Y-110719556D01*
X175681151Y-110681857D01*
X175629518Y-110630994D01*
X175621052Y-110619966D01*
X175584402Y-110559058D01*
X175558737Y-110493534D01*
X175549144Y-110457595D01*
X175537579Y-110385903D01*
X175534117Y-110314015D01*
X175535295Y-110272182D01*
X175542797Y-110204197D01*
X175558737Y-110135865D01*
X175563542Y-110120877D01*
X175590975Y-110056419D01*
X175629518Y-109997379D01*
X175632445Y-109993792D01*
X175684719Y-109943217D01*
X175743042Y-109907449D01*
X175755780Y-109901705D01*
X175824607Y-109881459D01*
X175896574Y-109875306D01*
X175912323Y-109875580D01*
G37*
G36*
X171364808Y-109953533D02*
G01*
X171391514Y-110018579D01*
X171411610Y-110069990D01*
X171438018Y-110135523D01*
X171443043Y-110147828D01*
X171468889Y-110213048D01*
X171494096Y-110279479D01*
X171505312Y-110309236D01*
X171530026Y-110375524D01*
X171555303Y-110444295D01*
X171167202Y-110444295D01*
X171178962Y-110412759D01*
X171204197Y-110346245D01*
X171229093Y-110282215D01*
X171234815Y-110267812D01*
X171260247Y-110202905D01*
X171285171Y-110137574D01*
X171305048Y-110085161D01*
X171330649Y-110017895D01*
X171334277Y-110008415D01*
X171360056Y-109944036D01*
X171364808Y-109953533D01*
G37*
G36*
X172654228Y-109897232D02*
G01*
X172730344Y-109901298D01*
X172801530Y-109913620D01*
X172868353Y-109939249D01*
X172890222Y-109953688D01*
X172931735Y-110009040D01*
X172944264Y-110080128D01*
X172942435Y-110110930D01*
X172920570Y-110177261D01*
X172869379Y-110226479D01*
X172831904Y-110243133D01*
X172762020Y-110259830D01*
X172692265Y-110267176D01*
X172621130Y-110269221D01*
X172534620Y-110269221D01*
X172534620Y-109903345D01*
X172584885Y-109899242D01*
X172645066Y-109897191D01*
X172654228Y-109897232D01*
G37*
G36*
X176731564Y-111168839D02*
G01*
X169275958Y-111168839D01*
X169275958Y-110314015D01*
X169431514Y-110314015D01*
X169431684Y-110334810D01*
X169435763Y-110415003D01*
X169445282Y-110490419D01*
X169460239Y-110561059D01*
X169480635Y-110626923D01*
X169513779Y-110702535D01*
X169555421Y-110770685D01*
X169605562Y-110831371D01*
X169616616Y-110842562D01*
X169676536Y-110893192D01*
X169744202Y-110934940D01*
X169819616Y-110967805D01*
X169885525Y-110987701D01*
X169956392Y-111001913D01*
X170032217Y-111010440D01*
X170113001Y-111013283D01*
X170170022Y-111012177D01*
X170241936Y-111007261D01*
X170317220Y-110997031D01*
X170342898Y-110991399D01*
X170676860Y-110991399D01*
X170995890Y-110991399D01*
X170998602Y-110982659D01*
X171020226Y-110915835D01*
X171044103Y-110846758D01*
X171045769Y-110842067D01*
X171070433Y-110774181D01*
X171096078Y-110706904D01*
X171628137Y-110706904D01*
X171629740Y-110710975D01*
X171655578Y-110778732D01*
X171680112Y-110846758D01*
X171683425Y-110856098D01*
X171707002Y-110924875D01*
X171728325Y-110991399D01*
X172057271Y-110991399D01*
X172038160Y-110937121D01*
X172014617Y-110870731D01*
X171991457Y-110805962D01*
X171964173Y-110730375D01*
X171937441Y-110657121D01*
X171911263Y-110586200D01*
X171906970Y-110574595D01*
X171881325Y-110505849D01*
X171855871Y-110438617D01*
X171830611Y-110372901D01*
X171805542Y-110308699D01*
X171776539Y-110235711D01*
X171760136Y-110194855D01*
X171731483Y-110124616D01*
X171702896Y-110055980D01*
X171674374Y-109988948D01*
X171645918Y-109923520D01*
X171629643Y-109886617D01*
X171601009Y-109822577D01*
X171572179Y-109759224D01*
X171543152Y-109696559D01*
X171530696Y-109670142D01*
X172227557Y-109670142D01*
X172227557Y-109903345D01*
X172227557Y-110991399D01*
X172534620Y-110991399D01*
X172534620Y-110531831D01*
X172686441Y-110531831D01*
X172723306Y-110574797D01*
X172765087Y-110628942D01*
X172804923Y-110684251D01*
X172845101Y-110742808D01*
X172847621Y-110746552D01*
X172887393Y-110807449D01*
X172923747Y-110866248D01*
X172926161Y-110870201D01*
X172962045Y-110929165D01*
X172999658Y-110991399D01*
X173344333Y-110991399D01*
X173533768Y-110991399D01*
X173840830Y-110991399D01*
X174658067Y-110991399D01*
X174965129Y-110991399D01*
X174965129Y-110314015D01*
X175217139Y-110314015D01*
X175217346Y-110335396D01*
X175221331Y-110407683D01*
X175230389Y-110476009D01*
X175246952Y-110549249D01*
X175270139Y-110617316D01*
X175287761Y-110657100D01*
X175324276Y-110723494D01*
X175366957Y-110783180D01*
X175415806Y-110836158D01*
X175445532Y-110862568D01*
X175502910Y-110904805D01*
X175565264Y-110940226D01*
X175632596Y-110968830D01*
X175679695Y-110983937D01*
X175752418Y-111000737D01*
X175827630Y-111010504D01*
X175896574Y-111013283D01*
X175949780Y-111011720D01*
X176018702Y-111004774D01*
X176093481Y-110990319D01*
X176165338Y-110968830D01*
X176203605Y-110953780D01*
X176268234Y-110921389D01*
X176327400Y-110882181D01*
X176381102Y-110836158D01*
X176413724Y-110801584D01*
X176457563Y-110744134D01*
X176495289Y-110679977D01*
X176523691Y-110617316D01*
X176530027Y-110600784D01*
X176551280Y-110531424D01*
X176565995Y-110456892D01*
X176573505Y-110387433D01*
X176576008Y-110314015D01*
X176575800Y-110292636D01*
X176571789Y-110220375D01*
X176562673Y-110152107D01*
X176546003Y-110078974D01*
X176522666Y-110011057D01*
X176505135Y-109971157D01*
X176468698Y-109904514D01*
X176425986Y-109844525D01*
X176376999Y-109791189D01*
X176347372Y-109764393D01*
X176290129Y-109721672D01*
X176227856Y-109686038D01*
X176160551Y-109657491D01*
X176113452Y-109642268D01*
X176040729Y-109625339D01*
X175965517Y-109615496D01*
X175896574Y-109612696D01*
X175854460Y-109613790D01*
X175780214Y-109621270D01*
X175707969Y-109635837D01*
X175637725Y-109657491D01*
X175599975Y-109672476D01*
X175535643Y-109704960D01*
X175475963Y-109744531D01*
X175420935Y-109791189D01*
X175387263Y-109826007D01*
X175341760Y-109883778D01*
X175302260Y-109948204D01*
X175272191Y-110011057D01*
X175265525Y-110027547D01*
X175243160Y-110096769D01*
X175227676Y-110171205D01*
X175219773Y-110240614D01*
X175217139Y-110314015D01*
X174965129Y-110314015D01*
X174965129Y-109634581D01*
X174658067Y-109634581D01*
X174658067Y-110991399D01*
X173840830Y-110991399D01*
X173840830Y-110422410D01*
X174380754Y-110422410D01*
X174380754Y-110159800D01*
X173840830Y-110159800D01*
X173840830Y-109897191D01*
X174447432Y-109897191D01*
X174447432Y-109634581D01*
X173533768Y-109634581D01*
X173533768Y-110991399D01*
X173344333Y-110991399D01*
X173335352Y-110973922D01*
X173302487Y-110912166D01*
X173267397Y-110849493D01*
X173257005Y-110831461D01*
X173219877Y-110769780D01*
X173181570Y-110710324D01*
X173173287Y-110697806D01*
X173134317Y-110640659D01*
X173091982Y-110581754D01*
X173050493Y-110527132D01*
X173005471Y-110472676D01*
X173028233Y-110462585D01*
X173090390Y-110428165D01*
X173148666Y-110382624D01*
X173195590Y-110329403D01*
X173214602Y-110299528D01*
X173242959Y-110231714D01*
X173257459Y-110161489D01*
X173261584Y-110091754D01*
X173260946Y-110062915D01*
X173251369Y-109982184D01*
X173230299Y-109910132D01*
X173197737Y-109846760D01*
X173153683Y-109792067D01*
X173098137Y-109746053D01*
X173066225Y-109726132D01*
X172994810Y-109692167D01*
X172927566Y-109669851D01*
X172853293Y-109652978D01*
X172771990Y-109641548D01*
X172701887Y-109636322D01*
X172627285Y-109634581D01*
X172577965Y-109635203D01*
X172506566Y-109637968D01*
X172435457Y-109642445D01*
X172369019Y-109648529D01*
X172297480Y-109657922D01*
X172227557Y-109670142D01*
X171530696Y-109670142D01*
X171513929Y-109634581D01*
X171220202Y-109634581D01*
X171203014Y-109669913D01*
X171173321Y-109732284D01*
X171144119Y-109795342D01*
X171115408Y-109859087D01*
X171087188Y-109923520D01*
X171071170Y-109960711D01*
X171042985Y-110027056D01*
X171014603Y-110095004D01*
X170986025Y-110164556D01*
X170957250Y-110235711D01*
X170953144Y-110246012D01*
X170924210Y-110319294D01*
X170899150Y-110383748D01*
X170875928Y-110444295D01*
X170873849Y-110449717D01*
X170848308Y-110517201D01*
X170822526Y-110586200D01*
X170800848Y-110645139D01*
X170774305Y-110718004D01*
X170747184Y-110793202D01*
X170724144Y-110857648D01*
X170700702Y-110923713D01*
X170676860Y-110991399D01*
X170342898Y-110991399D01*
X170386553Y-110981824D01*
X170442374Y-110965454D01*
X170508242Y-110941409D01*
X170569832Y-110910701D01*
X170485373Y-110673736D01*
X170428269Y-110699382D01*
X170422284Y-110701922D01*
X170355436Y-110724001D01*
X170328408Y-110730540D01*
X170260719Y-110742808D01*
X170211660Y-110748184D01*
X170140698Y-110750673D01*
X170095678Y-110749037D01*
X170025505Y-110738618D01*
X169959470Y-110716479D01*
X169945678Y-110709851D01*
X169887914Y-110673199D01*
X169838081Y-110623471D01*
X169829648Y-110612248D01*
X169794155Y-110550273D01*
X169771061Y-110483618D01*
X169763066Y-110447408D01*
X169753429Y-110376948D01*
X169750544Y-110308202D01*
X169753033Y-110244850D01*
X169762833Y-110175060D01*
X169782003Y-110108509D01*
X169788084Y-110093326D01*
X169821314Y-110029540D01*
X169865778Y-109974127D01*
X169921942Y-109929333D01*
X169985799Y-109898900D01*
X170054529Y-109881205D01*
X170124627Y-109875306D01*
X170170072Y-109876435D01*
X170242953Y-109883624D01*
X170314745Y-109898900D01*
X170330270Y-109903411D01*
X170397870Y-109926767D01*
X170461437Y-109956004D01*
X170550342Y-109716988D01*
X170499051Y-109689633D01*
X170475269Y-109678620D01*
X170410488Y-109655097D01*
X170356648Y-109640291D01*
X170286364Y-109625690D01*
X170272951Y-109623368D01*
X170201650Y-109615184D01*
X170128730Y-109612696D01*
X170055213Y-109615603D01*
X169984431Y-109624322D01*
X169916385Y-109638855D01*
X169851075Y-109659200D01*
X169811970Y-109674801D01*
X169745916Y-109708269D01*
X169685434Y-109748660D01*
X169630523Y-109795976D01*
X169597156Y-109831143D01*
X169552289Y-109889302D01*
X169513644Y-109953953D01*
X169484515Y-110016870D01*
X169481254Y-110025068D01*
X169458894Y-110093184D01*
X169443160Y-110165787D01*
X169434050Y-110242879D01*
X169431514Y-110314015D01*
X169275958Y-110314015D01*
X169275958Y-109457140D01*
X176731564Y-109457140D01*
X176731564Y-111168839D01*
G37*
D11*
X160178163Y-75657320D02*
X160178163Y-76443035D01*
X160178163Y-76443035D02*
X160125782Y-76600178D01*
X160125782Y-76600178D02*
X160021020Y-76704940D01*
X160021020Y-76704940D02*
X159863877Y-76757320D01*
X159863877Y-76757320D02*
X159759115Y-76757320D01*
X161225782Y-76757320D02*
X160701972Y-76757320D01*
X160701972Y-76757320D02*
X160701972Y-75657320D01*
X162221020Y-76652559D02*
X162168639Y-76704940D01*
X162168639Y-76704940D02*
X162011496Y-76757320D01*
X162011496Y-76757320D02*
X161906734Y-76757320D01*
X161906734Y-76757320D02*
X161749591Y-76704940D01*
X161749591Y-76704940D02*
X161644829Y-76600178D01*
X161644829Y-76600178D02*
X161592448Y-76495416D01*
X161592448Y-76495416D02*
X161540067Y-76285892D01*
X161540067Y-76285892D02*
X161540067Y-76128749D01*
X161540067Y-76128749D02*
X161592448Y-75919225D01*
X161592448Y-75919225D02*
X161644829Y-75814463D01*
X161644829Y-75814463D02*
X161749591Y-75709701D01*
X161749591Y-75709701D02*
X161906734Y-75657320D01*
X161906734Y-75657320D02*
X162011496Y-75657320D01*
X162011496Y-75657320D02*
X162168639Y-75709701D01*
X162168639Y-75709701D02*
X162221020Y-75762082D01*
X163006734Y-75657320D02*
X163006734Y-76443035D01*
X163006734Y-76443035D02*
X162954353Y-76600178D01*
X162954353Y-76600178D02*
X162849591Y-76704940D01*
X162849591Y-76704940D02*
X162692448Y-76757320D01*
X162692448Y-76757320D02*
X162587686Y-76757320D01*
X164054353Y-76757320D02*
X163530543Y-76757320D01*
X163530543Y-76757320D02*
X163530543Y-75657320D01*
X165049591Y-76652559D02*
X164997210Y-76704940D01*
X164997210Y-76704940D02*
X164840067Y-76757320D01*
X164840067Y-76757320D02*
X164735305Y-76757320D01*
X164735305Y-76757320D02*
X164578162Y-76704940D01*
X164578162Y-76704940D02*
X164473400Y-76600178D01*
X164473400Y-76600178D02*
X164421019Y-76495416D01*
X164421019Y-76495416D02*
X164368638Y-76285892D01*
X164368638Y-76285892D02*
X164368638Y-76128749D01*
X164368638Y-76128749D02*
X164421019Y-75919225D01*
X164421019Y-75919225D02*
X164473400Y-75814463D01*
X164473400Y-75814463D02*
X164578162Y-75709701D01*
X164578162Y-75709701D02*
X164735305Y-75657320D01*
X164735305Y-75657320D02*
X164840067Y-75657320D01*
X164840067Y-75657320D02*
X164997210Y-75709701D01*
X164997210Y-75709701D02*
X165049591Y-75762082D01*
X165835305Y-75657320D02*
X165835305Y-76443035D01*
X165835305Y-76443035D02*
X165782924Y-76600178D01*
X165782924Y-76600178D02*
X165678162Y-76704940D01*
X165678162Y-76704940D02*
X165521019Y-76757320D01*
X165521019Y-76757320D02*
X165416257Y-76757320D01*
X166882924Y-76757320D02*
X166359114Y-76757320D01*
X166359114Y-76757320D02*
X166359114Y-75657320D01*
X167878162Y-76652559D02*
X167825781Y-76704940D01*
X167825781Y-76704940D02*
X167668638Y-76757320D01*
X167668638Y-76757320D02*
X167563876Y-76757320D01*
X167563876Y-76757320D02*
X167406733Y-76704940D01*
X167406733Y-76704940D02*
X167301971Y-76600178D01*
X167301971Y-76600178D02*
X167249590Y-76495416D01*
X167249590Y-76495416D02*
X167197209Y-76285892D01*
X167197209Y-76285892D02*
X167197209Y-76128749D01*
X167197209Y-76128749D02*
X167249590Y-75919225D01*
X167249590Y-75919225D02*
X167301971Y-75814463D01*
X167301971Y-75814463D02*
X167406733Y-75709701D01*
X167406733Y-75709701D02*
X167563876Y-75657320D01*
X167563876Y-75657320D02*
X167668638Y-75657320D01*
X167668638Y-75657320D02*
X167825781Y-75709701D01*
X167825781Y-75709701D02*
X167878162Y-75762082D01*
X168663876Y-75657320D02*
X168663876Y-76443035D01*
X168663876Y-76443035D02*
X168611495Y-76600178D01*
X168611495Y-76600178D02*
X168506733Y-76704940D01*
X168506733Y-76704940D02*
X168349590Y-76757320D01*
X168349590Y-76757320D02*
X168244828Y-76757320D01*
X169711495Y-76757320D02*
X169187685Y-76757320D01*
X169187685Y-76757320D02*
X169187685Y-75657320D01*
X170706733Y-76652559D02*
X170654352Y-76704940D01*
X170654352Y-76704940D02*
X170497209Y-76757320D01*
X170497209Y-76757320D02*
X170392447Y-76757320D01*
X170392447Y-76757320D02*
X170235304Y-76704940D01*
X170235304Y-76704940D02*
X170130542Y-76600178D01*
X170130542Y-76600178D02*
X170078161Y-76495416D01*
X170078161Y-76495416D02*
X170025780Y-76285892D01*
X170025780Y-76285892D02*
X170025780Y-76128749D01*
X170025780Y-76128749D02*
X170078161Y-75919225D01*
X170078161Y-75919225D02*
X170130542Y-75814463D01*
X170130542Y-75814463D02*
X170235304Y-75709701D01*
X170235304Y-75709701D02*
X170392447Y-75657320D01*
X170392447Y-75657320D02*
X170497209Y-75657320D01*
X170497209Y-75657320D02*
X170654352Y-75709701D01*
X170654352Y-75709701D02*
X170706733Y-75762082D01*
D10*
G36*
X177514896Y-67038045D02*
G01*
X177483360Y-67026284D01*
X177416846Y-67001050D01*
X177352816Y-66976154D01*
X177338413Y-66970432D01*
X177273506Y-66945000D01*
X177208175Y-66920076D01*
X177155762Y-66900198D01*
X177088496Y-66874598D01*
X177079016Y-66870969D01*
X177014637Y-66845191D01*
X177024134Y-66840438D01*
X177089180Y-66813732D01*
X177140591Y-66793637D01*
X177206124Y-66767229D01*
X177218429Y-66762204D01*
X177283649Y-66736358D01*
X177350080Y-66711150D01*
X177379837Y-66699935D01*
X177446125Y-66675221D01*
X177514896Y-66649943D01*
X177514896Y-67038045D01*
G37*
G36*
X178217556Y-67683943D02*
G01*
X176549626Y-67683943D01*
X176549626Y-66691318D01*
X176705182Y-66691318D01*
X176705182Y-66845191D01*
X176705182Y-66985044D01*
X176740514Y-67002232D01*
X176802885Y-67031925D01*
X176865943Y-67061127D01*
X176929688Y-67089839D01*
X176994121Y-67118059D01*
X177031312Y-67134077D01*
X177097657Y-67162262D01*
X177165605Y-67190644D01*
X177235157Y-67219222D01*
X177306312Y-67247996D01*
X177316613Y-67252103D01*
X177389895Y-67281036D01*
X177454349Y-67306097D01*
X177520318Y-67331397D01*
X177587802Y-67356939D01*
X177656801Y-67382721D01*
X177715740Y-67404399D01*
X177788605Y-67430942D01*
X177863803Y-67458062D01*
X177928249Y-67481103D01*
X177994314Y-67504545D01*
X178062000Y-67528387D01*
X178062000Y-67209357D01*
X178053260Y-67206644D01*
X177986436Y-67185021D01*
X177917359Y-67161143D01*
X177912668Y-67159478D01*
X177844782Y-67134814D01*
X177777505Y-67109169D01*
X177777505Y-66577110D01*
X177781576Y-66575506D01*
X177849333Y-66549669D01*
X177917359Y-66525135D01*
X177926699Y-66521821D01*
X177995476Y-66498244D01*
X178062000Y-66476922D01*
X178062000Y-66147975D01*
X178007722Y-66167086D01*
X177941332Y-66190630D01*
X177876563Y-66213789D01*
X177800976Y-66241074D01*
X177727722Y-66267805D01*
X177656801Y-66293984D01*
X177645196Y-66298277D01*
X177576450Y-66323922D01*
X177509218Y-66349375D01*
X177443502Y-66374636D01*
X177379300Y-66399705D01*
X177306312Y-66428708D01*
X177265456Y-66445110D01*
X177195217Y-66473763D01*
X177126581Y-66502351D01*
X177059549Y-66530873D01*
X176994121Y-66559329D01*
X176957218Y-66575603D01*
X176893178Y-66604237D01*
X176829825Y-66633068D01*
X176767160Y-66662095D01*
X176705182Y-66691318D01*
X176549626Y-66691318D01*
X176549626Y-65109162D01*
X176705182Y-65109162D01*
X177502586Y-65109162D01*
X177462791Y-65136065D01*
X177401972Y-65177773D01*
X177339801Y-65221104D01*
X177283402Y-65260983D01*
X177240863Y-65291281D01*
X177185041Y-65331790D01*
X177123468Y-65377516D01*
X177063193Y-65423404D01*
X177030269Y-65448876D01*
X176972564Y-65494389D01*
X176916860Y-65539469D01*
X176863158Y-65584116D01*
X176812783Y-65627273D01*
X176757531Y-65677081D01*
X176705182Y-65727731D01*
X176705182Y-65977689D01*
X178062000Y-65977689D01*
X178062000Y-65674388D01*
X177176033Y-65674388D01*
X177201264Y-65652795D01*
X177265208Y-65599491D01*
X177330387Y-65547155D01*
X177396801Y-65495787D01*
X177464451Y-65445387D01*
X177533337Y-65395956D01*
X177603458Y-65347494D01*
X177631776Y-65328387D01*
X177702771Y-65281355D01*
X177774049Y-65235375D01*
X177845611Y-65190447D01*
X177917456Y-65146571D01*
X177989586Y-65103746D01*
X178062000Y-65061974D01*
X178062000Y-64803809D01*
X176705182Y-64803809D01*
X176705182Y-65109162D01*
X176549626Y-65109162D01*
X176549626Y-64614716D01*
X176705182Y-64614716D01*
X176967792Y-64614716D01*
X176967792Y-64203021D01*
X178062000Y-64203021D01*
X178062000Y-63895617D01*
X176967792Y-63895617D01*
X176967792Y-63484263D01*
X176705182Y-63484263D01*
X176705182Y-64614716D01*
X176549626Y-64614716D01*
X176549626Y-63328707D01*
X178217556Y-63328707D01*
X178217556Y-67683943D01*
G37*
D11*
X153361904Y-66200820D02*
X153361904Y-67091297D01*
X153361904Y-67091297D02*
X153414285Y-67196059D01*
X153414285Y-67196059D02*
X153466666Y-67248440D01*
X153466666Y-67248440D02*
X153571428Y-67300820D01*
X153571428Y-67300820D02*
X153780952Y-67300820D01*
X153780952Y-67300820D02*
X153885714Y-67248440D01*
X153885714Y-67248440D02*
X153938095Y-67196059D01*
X153938095Y-67196059D02*
X153990476Y-67091297D01*
X153990476Y-67091297D02*
X153990476Y-66200820D01*
X154461904Y-66305582D02*
X154514285Y-66253201D01*
X154514285Y-66253201D02*
X154619047Y-66200820D01*
X154619047Y-66200820D02*
X154880952Y-66200820D01*
X154880952Y-66200820D02*
X154985714Y-66253201D01*
X154985714Y-66253201D02*
X155038095Y-66305582D01*
X155038095Y-66305582D02*
X155090476Y-66410344D01*
X155090476Y-66410344D02*
X155090476Y-66515106D01*
X155090476Y-66515106D02*
X155038095Y-66672249D01*
X155038095Y-66672249D02*
X154409523Y-67300820D01*
X154409523Y-67300820D02*
X155090476Y-67300820D01*
D12*
%TO.C,J1*%
X162439082Y-108715000D02*
X163489082Y-108715000D01*
X162439082Y-111215000D02*
X162439082Y-108715000D01*
X163489082Y-108715000D02*
X163489082Y-107725000D01*
X163609082Y-113185000D02*
X167489082Y-113185000D01*
X168659082Y-108715000D02*
X167609082Y-108715000D01*
X168659082Y-111215000D02*
X168659082Y-108715000D01*
%TO.C,U2*%
X153349082Y-106811410D02*
X177749082Y-106811410D01*
X177749082Y-67911410D01*
X153349082Y-67911410D01*
X153349082Y-106811410D01*
D13*
X152749082Y-72161410D02*
X152349082Y-71361410D01*
X153149082Y-71361410D01*
X152749082Y-72161410D01*
G36*
X152749082Y-72161410D02*
G01*
X152349082Y-71361410D01*
X153149082Y-71361410D01*
X152749082Y-72161410D01*
G37*
D12*
%TO.C,J2*%
X168964984Y-66745227D02*
X168964984Y-67580000D01*
X168964984Y-67580000D02*
X169799757Y-67580000D01*
X175330211Y-67580000D02*
X176164984Y-67580000D01*
X176164984Y-67580000D02*
X176164984Y-66745227D01*
%TD*%
M02*
