%TF.GenerationSoftware,KiCad,Pcbnew,8.0.5*%
%TF.CreationDate,2024-10-25T02:08:45-07:00*%
%TF.ProjectId,ChungRF,4368756e-6752-4462-9e6b-696361645f70,R3*%
%TF.SameCoordinates,Original*%
%TF.FileFunction,Soldermask,Bot*%
%TF.FilePolarity,Negative*%
%FSLAX46Y46*%
G04 Gerber Fmt 4.6, Leading zero omitted, Abs format (unit mm)*
G04 Created by KiCad (PCBNEW 8.0.5) date 2024-10-25 02:08:45*
%MOMM*%
%LPD*%
G01*
G04 APERTURE LIST*
G04 Aperture macros list*
%AMRoundRect*
0 Rectangle with rounded corners*
0 $1 Rounding radius*
0 $2 $3 $4 $5 $6 $7 $8 $9 X,Y pos of 4 corners*
0 Add a 4 corners polygon primitive as box body*
4,1,4,$2,$3,$4,$5,$6,$7,$8,$9,$2,$3,0*
0 Add four circle primitives for the rounded corners*
1,1,$1+$1,$2,$3*
1,1,$1+$1,$4,$5*
1,1,$1+$1,$6,$7*
1,1,$1+$1,$8,$9*
0 Add four rect primitives between the rounded corners*
20,1,$1+$1,$2,$3,$4,$5,0*
20,1,$1+$1,$4,$5,$6,$7,0*
20,1,$1+$1,$6,$7,$8,$9,0*
20,1,$1+$1,$8,$9,$2,$3,0*%
G04 Aperture macros list end*
%ADD10C,0.800000*%
%ADD11C,5.400000*%
%ADD12RoundRect,0.228000X-0.532000X-1.802000X0.532000X-1.802000X0.532000X1.802000X-0.532000X1.802000X0*%
%ADD13RoundRect,0.225000X-0.225000X-0.250000X0.225000X-0.250000X0.225000X0.250000X-0.225000X0.250000X0*%
%ADD14RoundRect,0.250000X1.250000X-0.750000X1.250000X0.750000X-1.250000X0.750000X-1.250000X-0.750000X0*%
%ADD15RoundRect,0.250000X-0.750000X-1.250000X0.750000X-1.250000X0.750000X1.250000X-0.750000X1.250000X0*%
G04 APERTURE END LIST*
D10*
%TO.C,H1*%
X163524082Y-64650000D03*
X164117191Y-63218109D03*
X164117191Y-66081891D03*
X165549082Y-62625000D03*
D11*
X165549082Y-64650000D03*
D10*
X165549082Y-66675000D03*
X166980973Y-63218109D03*
X166980973Y-66081891D03*
X167574082Y-64650000D03*
%TD*%
%TO.C,H2*%
X152516891Y-110598109D03*
X153110000Y-109166218D03*
X153110000Y-112030000D03*
X154541891Y-108573109D03*
D11*
X154541891Y-110598109D03*
D10*
X154541891Y-112623109D03*
X155973782Y-109166218D03*
X155973782Y-112030000D03*
X156566891Y-110598109D03*
%TD*%
D12*
%TO.C,J2*%
X170024984Y-65250000D03*
X175104984Y-65250000D03*
%TD*%
D13*
%TO.C,C3*%
X154175000Y-98691410D03*
X155725000Y-98691410D03*
%TD*%
%TO.C,C2*%
X154175000Y-100181410D03*
X155725000Y-100181410D03*
%TD*%
%TO.C,C1*%
X154175000Y-101691410D03*
X155725000Y-101691410D03*
%TD*%
D14*
%TO.C,U1*%
X159350000Y-111890000D03*
X159350000Y-109350000D03*
X159350000Y-106810000D03*
X159350000Y-104270000D03*
X159350000Y-101730000D03*
X159350000Y-99190000D03*
X159350000Y-96650000D03*
X159350000Y-94110000D03*
X159350000Y-91570000D03*
X159350000Y-89030000D03*
X159350000Y-86490000D03*
X159350000Y-83950000D03*
X159350000Y-81410000D03*
X176850000Y-81410000D03*
X176850000Y-83950000D03*
X176850000Y-86490000D03*
X176850000Y-89030000D03*
X176850000Y-91570000D03*
X176850000Y-94110000D03*
X176850000Y-96650000D03*
X176850000Y-99190000D03*
X176850000Y-101730000D03*
X176850000Y-104270000D03*
X176850000Y-106810000D03*
X176850000Y-109350000D03*
X176850000Y-111890000D03*
D15*
X168100000Y-110790000D03*
%TD*%
M02*
