%TF.GenerationSoftware,KiCad,Pcbnew,8.0.5*%
%TF.CreationDate,2024-10-25T02:08:45-07:00*%
%TF.ProjectId,ChungRF,4368756e-6752-4462-9e6b-696361645f70,R3*%
%TF.SameCoordinates,Original*%
%TF.FileFunction,Copper,L2,Inr*%
%TF.FilePolarity,Positive*%
%FSLAX46Y46*%
G04 Gerber Fmt 4.6, Leading zero omitted, Abs format (unit mm)*
G04 Created by KiCad (PCBNEW 8.0.5) date 2024-10-25 02:08:45*
%MOMM*%
%LPD*%
G01*
G04 APERTURE LIST*
%TA.AperFunction,ComponentPad*%
%ADD10C,0.800000*%
%TD*%
%TA.AperFunction,ComponentPad*%
%ADD11C,5.400000*%
%TD*%
%TA.AperFunction,ViaPad*%
%ADD12C,0.700000*%
%TD*%
%TA.AperFunction,ViaPad*%
%ADD13C,0.600000*%
%TD*%
%TA.AperFunction,ViaPad*%
%ADD14C,0.900000*%
%TD*%
G04 APERTURE END LIST*
D10*
%TO.N,N/C*%
%TO.C,H1*%
X163524082Y-64650000D03*
X164117191Y-63218109D03*
X164117191Y-66081891D03*
X165549082Y-62625000D03*
D11*
X165549082Y-64650000D03*
D10*
X165549082Y-66675000D03*
X166980973Y-63218109D03*
X166980973Y-66081891D03*
X167574082Y-64650000D03*
%TD*%
%TO.N,N/C*%
%TO.C,H2*%
X152516891Y-110598109D03*
X153110000Y-109166218D03*
X153110000Y-112030000D03*
X154541891Y-108573109D03*
D11*
X154541891Y-110598109D03*
D10*
X154541891Y-112623109D03*
X155973782Y-109166218D03*
X155973782Y-112030000D03*
X156566891Y-110598109D03*
%TD*%
D12*
%TO.N,GND*%
X174000000Y-97150000D03*
D13*
%TO.N,/NSS*%
X171000000Y-86200000D03*
D12*
%TO.N,GND*%
X151919082Y-92550000D03*
X157100000Y-83050000D03*
D14*
X156700000Y-94050000D03*
D12*
X174600000Y-87800000D03*
D13*
%TO.N,/TXEN*%
X151950000Y-93850000D03*
%TO.N,/RXEN*%
X151951410Y-91301410D03*
D12*
%TO.N,GND*%
X178850000Y-112950000D03*
X161500000Y-112700000D03*
X174600000Y-85200000D03*
D14*
X174000000Y-94000000D03*
X174000000Y-79000000D03*
D13*
%TO.N,/SCK*%
X174700000Y-89100000D03*
%TO.N,/MISO*%
X174675000Y-93075000D03*
%TO.N,/MOSI*%
X172050000Y-91301410D03*
%TO.N,/BUSY*%
X174650000Y-98921410D03*
%TO.N,/NRST*%
X172050000Y-96381410D03*
%TO.N,/DIO1*%
X174650000Y-101461410D03*
D12*
%TO.N,GND*%
X171466310Y-71807946D03*
D14*
X174600000Y-104001410D03*
D12*
X174797501Y-77031690D03*
X174200000Y-74050000D03*
D14*
X164000000Y-99000000D03*
X169000000Y-89000000D03*
X164000000Y-69000000D03*
X178600000Y-63900000D03*
X161500000Y-104270000D03*
D12*
X173663660Y-70800000D03*
X173663660Y-68100000D03*
D14*
X152300000Y-82000000D03*
X159000000Y-74000000D03*
X175649082Y-78671410D03*
X164000000Y-79000000D03*
X169000000Y-74000000D03*
X169000000Y-69000000D03*
X174725000Y-106800000D03*
X159000000Y-69000000D03*
X159000000Y-62600000D03*
X164000000Y-89000000D03*
D12*
X171466310Y-69107946D03*
X175650000Y-77250000D03*
X171466310Y-70907946D03*
D14*
X170024984Y-68150000D03*
X166700000Y-112700000D03*
D12*
X174850000Y-74600000D03*
X175650000Y-74900000D03*
X171790200Y-74305988D03*
D14*
X164000000Y-74000000D03*
X164000000Y-104000000D03*
X169000000Y-94000000D03*
X164000000Y-84000000D03*
X155449082Y-73571410D03*
D12*
X171551807Y-73500802D03*
X173302284Y-76284240D03*
X174014984Y-65250000D03*
D14*
X155449082Y-76171410D03*
X155449082Y-104071410D03*
X169000000Y-108000000D03*
X161500000Y-101730000D03*
X169000000Y-84000000D03*
D12*
X172680585Y-75720756D03*
X173663660Y-69000000D03*
D14*
X175649082Y-73571410D03*
X169000000Y-79000000D03*
X152300000Y-108000000D03*
X164049082Y-110095000D03*
D12*
X171100000Y-65250000D03*
D14*
X157000000Y-101691410D03*
X156700000Y-100181410D03*
X175104984Y-68150000D03*
D12*
X172170973Y-75054072D03*
D14*
X155449082Y-78671410D03*
X178650000Y-69000000D03*
D12*
X171466310Y-68207946D03*
D14*
X174000000Y-112800000D03*
D12*
X173800000Y-73350000D03*
D14*
X164000000Y-94000000D03*
D12*
X173663660Y-72557437D03*
X173663660Y-71700000D03*
X174015702Y-76726063D03*
D14*
X153900000Y-62600000D03*
X156700000Y-98691410D03*
D12*
X171466310Y-72665383D03*
X173663660Y-69900000D03*
X171466310Y-70007946D03*
D14*
X169000000Y-99000000D03*
X169000000Y-104000000D03*
X159000000Y-79000000D03*
X155449082Y-88771410D03*
X152300000Y-69000000D03*
X155449082Y-86271410D03*
X152400000Y-64000000D03*
D12*
X174000000Y-100400000D03*
%TD*%
%TA.AperFunction,Conductor*%
%TO.N,GND*%
G36*
X164365213Y-61740462D02*
G01*
X164419751Y-61795000D01*
X164439713Y-61869500D01*
X164419751Y-61944000D01*
X164365213Y-61998538D01*
X164357584Y-62002651D01*
X164096379Y-62133832D01*
X163949693Y-62230309D01*
X163814088Y-62319498D01*
X163814086Y-62319499D01*
X163814085Y-62319500D01*
X163555266Y-62536674D01*
X163555261Y-62536680D01*
X163323412Y-62782424D01*
X163323409Y-62782428D01*
X163121641Y-63053449D01*
X162952707Y-63346051D01*
X162952705Y-63346055D01*
X162818883Y-63656289D01*
X162818881Y-63656296D01*
X162721984Y-63979954D01*
X162721982Y-63979964D01*
X162663312Y-64312695D01*
X162663310Y-64312709D01*
X162643666Y-64650000D01*
X162663310Y-64987290D01*
X162663312Y-64987304D01*
X162721982Y-65320035D01*
X162721984Y-65320045D01*
X162818881Y-65643703D01*
X162818883Y-65643710D01*
X162952705Y-65953944D01*
X162952707Y-65953948D01*
X163121642Y-66246552D01*
X163323404Y-66517565D01*
X163323406Y-66517567D01*
X163323409Y-66517571D01*
X163323412Y-66517575D01*
X163555261Y-66763319D01*
X163555266Y-66763325D01*
X163738074Y-66916718D01*
X163814088Y-66980502D01*
X164096374Y-67166164D01*
X164096379Y-67166167D01*
X164398300Y-67317797D01*
X164398306Y-67317800D01*
X164715799Y-67433358D01*
X165044562Y-67511276D01*
X165380147Y-67550500D01*
X165380150Y-67550500D01*
X165718014Y-67550500D01*
X165718017Y-67550500D01*
X166053602Y-67511276D01*
X166382365Y-67433358D01*
X166699858Y-67317800D01*
X167001790Y-67166164D01*
X167284076Y-66980502D01*
X167542899Y-66763323D01*
X167774760Y-66517565D01*
X167976522Y-66246552D01*
X168145457Y-65953948D01*
X168279280Y-65643711D01*
X168376182Y-65320035D01*
X168434853Y-64987298D01*
X168454498Y-64650000D01*
X168434853Y-64312702D01*
X168376182Y-63979965D01*
X168279280Y-63656289D01*
X168143740Y-63342071D01*
X168145028Y-63341515D01*
X168130730Y-63272232D01*
X168154997Y-63199021D01*
X168212619Y-63147752D01*
X168279477Y-63131910D01*
X168343860Y-63131910D01*
X179379582Y-63131910D01*
X179454082Y-63151872D01*
X179508620Y-63206410D01*
X179528582Y-63280910D01*
X179528582Y-113430500D01*
X179508620Y-113505000D01*
X179454082Y-113559538D01*
X179379582Y-113579500D01*
X155676103Y-113579500D01*
X155601603Y-113559538D01*
X155547065Y-113505000D01*
X155527103Y-113430500D01*
X155547065Y-113356000D01*
X155601603Y-113301462D01*
X155625142Y-113290486D01*
X155692667Y-113265909D01*
X155994599Y-113114273D01*
X156276885Y-112928611D01*
X156535708Y-112711432D01*
X156767569Y-112465674D01*
X156969331Y-112194661D01*
X157138266Y-111902057D01*
X157272089Y-111591820D01*
X157368991Y-111268144D01*
X157427662Y-110935407D01*
X157447307Y-110598109D01*
X157441593Y-110500000D01*
X164994508Y-110500000D01*
X165014354Y-110625305D01*
X165071950Y-110738342D01*
X165161658Y-110828050D01*
X165274696Y-110885646D01*
X165400000Y-110905492D01*
X165525304Y-110885646D01*
X165638342Y-110828050D01*
X165728050Y-110738342D01*
X165785646Y-110625304D01*
X165805492Y-110500000D01*
X165785646Y-110374696D01*
X165728050Y-110261658D01*
X165638342Y-110171950D01*
X165525305Y-110114354D01*
X165400000Y-110094508D01*
X165274694Y-110114354D01*
X165161657Y-110171950D01*
X165071950Y-110261657D01*
X165014354Y-110374694D01*
X164994508Y-110500000D01*
X157441593Y-110500000D01*
X157427662Y-110260811D01*
X157368991Y-109928074D01*
X157272089Y-109604398D01*
X157138266Y-109294161D01*
X156969331Y-109001557D01*
X156767569Y-108730544D01*
X156767565Y-108730540D01*
X156767563Y-108730537D01*
X156767560Y-108730533D01*
X156535711Y-108484789D01*
X156535706Y-108484783D01*
X156276887Y-108267609D01*
X156276885Y-108267607D01*
X155994599Y-108081945D01*
X155994593Y-108081941D01*
X155692672Y-107930311D01*
X155692669Y-107930310D01*
X155692668Y-107930309D01*
X155692667Y-107930309D01*
X155375174Y-107814751D01*
X155241552Y-107783082D01*
X155046417Y-107736834D01*
X155046413Y-107736833D01*
X155046411Y-107736833D01*
X154710826Y-107697609D01*
X154372956Y-107697609D01*
X154037371Y-107736833D01*
X154037369Y-107736833D01*
X154037364Y-107736834D01*
X153708604Y-107814752D01*
X153391112Y-107930310D01*
X153391109Y-107930311D01*
X153089188Y-108081941D01*
X152942502Y-108178418D01*
X152806897Y-108267607D01*
X152806895Y-108267608D01*
X152806894Y-108267609D01*
X152548075Y-108484783D01*
X152548070Y-108484789D01*
X152316221Y-108730533D01*
X152316218Y-108730537D01*
X152114450Y-109001558D01*
X151945516Y-109294160D01*
X151945514Y-109294164D01*
X151855396Y-109503083D01*
X151807559Y-109563583D01*
X151735880Y-109592059D01*
X151659566Y-109580881D01*
X151599066Y-109533044D01*
X151570590Y-109461365D01*
X151569582Y-109444067D01*
X151569582Y-106800000D01*
X165344508Y-106800000D01*
X165364354Y-106925305D01*
X165421950Y-107038342D01*
X165511658Y-107128050D01*
X165624696Y-107185646D01*
X165750000Y-107205492D01*
X165875304Y-107185646D01*
X165988342Y-107128050D01*
X166078050Y-107038342D01*
X166135646Y-106925304D01*
X166155492Y-106800000D01*
X166135646Y-106674696D01*
X166078050Y-106561658D01*
X165988342Y-106471950D01*
X165875305Y-106414354D01*
X165750000Y-106394508D01*
X165624694Y-106414354D01*
X165511657Y-106471950D01*
X165421950Y-106561657D01*
X165364354Y-106674694D01*
X165344508Y-106800000D01*
X151569582Y-106800000D01*
X151569582Y-105249996D01*
X163694867Y-105249996D01*
X163694867Y-105250003D01*
X163713302Y-105378223D01*
X163767118Y-105496064D01*
X163822282Y-105559727D01*
X163851951Y-105593967D01*
X163960931Y-105664004D01*
X164085228Y-105700500D01*
X164085231Y-105700500D01*
X164214769Y-105700500D01*
X164214772Y-105700500D01*
X164339069Y-105664004D01*
X164448049Y-105593967D01*
X164532882Y-105496063D01*
X164586697Y-105378226D01*
X164605133Y-105250000D01*
X164605133Y-105249996D01*
X164586697Y-105121776D01*
X164586697Y-105121774D01*
X164532882Y-105003937D01*
X164532881Y-105003936D01*
X164532881Y-105003935D01*
X164486216Y-104950080D01*
X164448049Y-104906033D01*
X164339069Y-104835996D01*
X164214772Y-104799500D01*
X164085228Y-104799500D01*
X163960931Y-104835996D01*
X163960928Y-104835997D01*
X163960927Y-104835998D01*
X163851955Y-104906030D01*
X163851952Y-104906031D01*
X163851951Y-104906033D01*
X163851949Y-104906034D01*
X163851948Y-104906036D01*
X163767118Y-105003935D01*
X163713302Y-105121776D01*
X163694867Y-105249996D01*
X151569582Y-105249996D01*
X151569582Y-101461406D01*
X174144353Y-101461406D01*
X174144353Y-101461413D01*
X174164834Y-101603864D01*
X174164834Y-101603865D01*
X174164835Y-101603867D01*
X174224623Y-101734783D01*
X174318872Y-101843553D01*
X174439947Y-101921363D01*
X174578039Y-101961910D01*
X174578041Y-101961910D01*
X174721959Y-101961910D01*
X174721961Y-101961910D01*
X174860053Y-101921363D01*
X174981128Y-101843553D01*
X175075377Y-101734783D01*
X175135165Y-101603867D01*
X175155647Y-101461410D01*
X175155647Y-101461406D01*
X175135165Y-101318955D01*
X175135165Y-101318953D01*
X175075377Y-101188037D01*
X174981128Y-101079267D01*
X174981127Y-101079266D01*
X174947465Y-101057633D01*
X174860053Y-101001457D01*
X174860050Y-101001456D01*
X174721967Y-100960911D01*
X174721962Y-100960910D01*
X174721961Y-100960910D01*
X174578039Y-100960910D01*
X174578037Y-100960910D01*
X174578032Y-100960911D01*
X174439949Y-101001456D01*
X174318872Y-101079266D01*
X174318870Y-101079269D01*
X174224622Y-101188038D01*
X174164834Y-101318955D01*
X174144353Y-101461406D01*
X151569582Y-101461406D01*
X151569582Y-100949996D01*
X153694867Y-100949996D01*
X153694867Y-100950003D01*
X153713302Y-101078223D01*
X153713302Y-101078224D01*
X153713303Y-101078226D01*
X153737390Y-101130970D01*
X153767118Y-101196064D01*
X153822282Y-101259727D01*
X153851951Y-101293967D01*
X153960931Y-101364004D01*
X154085228Y-101400500D01*
X154085231Y-101400500D01*
X154214769Y-101400500D01*
X154214772Y-101400500D01*
X154339069Y-101364004D01*
X154448049Y-101293967D01*
X154532882Y-101196063D01*
X154586697Y-101078226D01*
X154597735Y-101001456D01*
X154605133Y-100950003D01*
X154605133Y-100949996D01*
X154586697Y-100821776D01*
X154586697Y-100821774D01*
X154532882Y-100703937D01*
X154532881Y-100703936D01*
X154532881Y-100703935D01*
X154486216Y-100650080D01*
X154448049Y-100606033D01*
X154339069Y-100535996D01*
X154214772Y-100499500D01*
X154085228Y-100499500D01*
X153960931Y-100535996D01*
X153960928Y-100535997D01*
X153960927Y-100535998D01*
X153851955Y-100606030D01*
X153851952Y-100606031D01*
X153851951Y-100606033D01*
X153851949Y-100606034D01*
X153851948Y-100606036D01*
X153767118Y-100703935D01*
X153713302Y-100821776D01*
X153694867Y-100949996D01*
X151569582Y-100949996D01*
X151569582Y-99399996D01*
X153694867Y-99399996D01*
X153694867Y-99400003D01*
X153713302Y-99528223D01*
X153767118Y-99646064D01*
X153822282Y-99709727D01*
X153851951Y-99743967D01*
X153960931Y-99814004D01*
X154085228Y-99850500D01*
X154085231Y-99850500D01*
X154214769Y-99850500D01*
X154214772Y-99850500D01*
X154339069Y-99814004D01*
X154448049Y-99743967D01*
X154532882Y-99646063D01*
X154586697Y-99528226D01*
X154605133Y-99400000D01*
X154605133Y-99399996D01*
X154586697Y-99271776D01*
X154586697Y-99271774D01*
X154532882Y-99153937D01*
X154532881Y-99153936D01*
X154532881Y-99153935D01*
X154454834Y-99063864D01*
X154448049Y-99056033D01*
X154339069Y-98985996D01*
X154214772Y-98949500D01*
X154085228Y-98949500D01*
X153960931Y-98985996D01*
X153960928Y-98985997D01*
X153960927Y-98985998D01*
X153851955Y-99056030D01*
X153851952Y-99056031D01*
X153851951Y-99056033D01*
X153851949Y-99056034D01*
X153851948Y-99056036D01*
X153767118Y-99153935D01*
X153713302Y-99271776D01*
X153694867Y-99399996D01*
X151569582Y-99399996D01*
X151569582Y-98921406D01*
X174144353Y-98921406D01*
X174144353Y-98921413D01*
X174164834Y-99063864D01*
X174164834Y-99063865D01*
X174164835Y-99063867D01*
X174224623Y-99194783D01*
X174318872Y-99303553D01*
X174439947Y-99381363D01*
X174578039Y-99421910D01*
X174578041Y-99421910D01*
X174721959Y-99421910D01*
X174721961Y-99421910D01*
X174860053Y-99381363D01*
X174981128Y-99303553D01*
X175075377Y-99194783D01*
X175135165Y-99063867D01*
X175146361Y-98985996D01*
X175155647Y-98921413D01*
X175155647Y-98921406D01*
X175135165Y-98778955D01*
X175135165Y-98778953D01*
X175075377Y-98648037D01*
X174981128Y-98539267D01*
X174981127Y-98539266D01*
X174947465Y-98517633D01*
X174860053Y-98461457D01*
X174860050Y-98461456D01*
X174721967Y-98420911D01*
X174721962Y-98420910D01*
X174721961Y-98420910D01*
X174578039Y-98420910D01*
X174578037Y-98420910D01*
X174578032Y-98420911D01*
X174439949Y-98461456D01*
X174318872Y-98539266D01*
X174318870Y-98539269D01*
X174224622Y-98648038D01*
X174164834Y-98778955D01*
X174144353Y-98921406D01*
X151569582Y-98921406D01*
X151569582Y-96381406D01*
X171544353Y-96381406D01*
X171544353Y-96381413D01*
X171564834Y-96523864D01*
X171564834Y-96523865D01*
X171564835Y-96523867D01*
X171624623Y-96654783D01*
X171718872Y-96763553D01*
X171839947Y-96841363D01*
X171978039Y-96881910D01*
X171978041Y-96881910D01*
X172121959Y-96881910D01*
X172121961Y-96881910D01*
X172260053Y-96841363D01*
X172381128Y-96763553D01*
X172475377Y-96654783D01*
X172535165Y-96523867D01*
X172555647Y-96381410D01*
X172555647Y-96381406D01*
X172535165Y-96238955D01*
X172535165Y-96238953D01*
X172475377Y-96108037D01*
X172381128Y-95999267D01*
X172381127Y-95999266D01*
X172347465Y-95977633D01*
X172260053Y-95921457D01*
X172260050Y-95921456D01*
X172121967Y-95880911D01*
X172121962Y-95880910D01*
X172121961Y-95880910D01*
X171978039Y-95880910D01*
X171978037Y-95880910D01*
X171978032Y-95880911D01*
X171839949Y-95921456D01*
X171718872Y-95999266D01*
X171718870Y-95999269D01*
X171624622Y-96108038D01*
X171564834Y-96238955D01*
X171544353Y-96381406D01*
X151569582Y-96381406D01*
X151569582Y-94458969D01*
X151589544Y-94384469D01*
X151644082Y-94329931D01*
X151718582Y-94309969D01*
X151760556Y-94316004D01*
X151878039Y-94350500D01*
X151878041Y-94350500D01*
X152021959Y-94350500D01*
X152021961Y-94350500D01*
X152160053Y-94309953D01*
X152281128Y-94232143D01*
X152375377Y-94123373D01*
X152435165Y-93992457D01*
X152455647Y-93850000D01*
X152455647Y-93849996D01*
X152435165Y-93707545D01*
X152435165Y-93707543D01*
X152375377Y-93576627D01*
X152281128Y-93467857D01*
X152281127Y-93467856D01*
X152247465Y-93446223D01*
X152160053Y-93390047D01*
X152160050Y-93390046D01*
X152021967Y-93349501D01*
X152021962Y-93349500D01*
X152021961Y-93349500D01*
X151878039Y-93349500D01*
X151878038Y-93349500D01*
X151831824Y-93363069D01*
X151760558Y-93383995D01*
X151683454Y-93385830D01*
X151615760Y-93348866D01*
X151575617Y-93283008D01*
X151569582Y-93241030D01*
X151569582Y-93074996D01*
X174169353Y-93074996D01*
X174169353Y-93075003D01*
X174189834Y-93217454D01*
X174189834Y-93217455D01*
X174189835Y-93217457D01*
X174249623Y-93348373D01*
X174343872Y-93457143D01*
X174464947Y-93534953D01*
X174603039Y-93575500D01*
X174603041Y-93575500D01*
X174746959Y-93575500D01*
X174746961Y-93575500D01*
X174885053Y-93534953D01*
X175006128Y-93457143D01*
X175100377Y-93348373D01*
X175160165Y-93217457D01*
X175180647Y-93075000D01*
X175180647Y-93074996D01*
X175160165Y-92932545D01*
X175160165Y-92932543D01*
X175100377Y-92801627D01*
X175006128Y-92692857D01*
X175006127Y-92692856D01*
X174972465Y-92671223D01*
X174885053Y-92615047D01*
X174885050Y-92615046D01*
X174746967Y-92574501D01*
X174746962Y-92574500D01*
X174746961Y-92574500D01*
X174603039Y-92574500D01*
X174603037Y-92574500D01*
X174603032Y-92574501D01*
X174464949Y-92615046D01*
X174343872Y-92692856D01*
X174343870Y-92692859D01*
X174249622Y-92801628D01*
X174189834Y-92932545D01*
X174169353Y-93074996D01*
X151569582Y-93074996D01*
X151569582Y-91909965D01*
X151589544Y-91835465D01*
X151644082Y-91780927D01*
X151718582Y-91760965D01*
X151760556Y-91767000D01*
X151879449Y-91801910D01*
X151879451Y-91801910D01*
X152023369Y-91801910D01*
X152023371Y-91801910D01*
X152161463Y-91761363D01*
X152282538Y-91683553D01*
X152376787Y-91574783D01*
X152436575Y-91443867D01*
X152457057Y-91301410D01*
X152457057Y-91301406D01*
X171544353Y-91301406D01*
X171544353Y-91301413D01*
X171564834Y-91443864D01*
X171564834Y-91443865D01*
X171564835Y-91443867D01*
X171624623Y-91574783D01*
X171718872Y-91683553D01*
X171839947Y-91761363D01*
X171978039Y-91801910D01*
X171978041Y-91801910D01*
X172121959Y-91801910D01*
X172121961Y-91801910D01*
X172260053Y-91761363D01*
X172381128Y-91683553D01*
X172475377Y-91574783D01*
X172535165Y-91443867D01*
X172555647Y-91301410D01*
X172555647Y-91301406D01*
X172535165Y-91158955D01*
X172535165Y-91158953D01*
X172475377Y-91028037D01*
X172381128Y-90919267D01*
X172381127Y-90919266D01*
X172347465Y-90897633D01*
X172260053Y-90841457D01*
X172260050Y-90841456D01*
X172121967Y-90800911D01*
X172121962Y-90800910D01*
X172121961Y-90800910D01*
X171978039Y-90800910D01*
X171978037Y-90800910D01*
X171978032Y-90800911D01*
X171839949Y-90841456D01*
X171718872Y-90919266D01*
X171718870Y-90919269D01*
X171624622Y-91028038D01*
X171564834Y-91158955D01*
X171544353Y-91301406D01*
X152457057Y-91301406D01*
X152436575Y-91158955D01*
X152436575Y-91158953D01*
X152376787Y-91028037D01*
X152282538Y-90919267D01*
X152282537Y-90919266D01*
X152248875Y-90897633D01*
X152161463Y-90841457D01*
X152161460Y-90841456D01*
X152023377Y-90800911D01*
X152023372Y-90800910D01*
X152023371Y-90800910D01*
X151879449Y-90800910D01*
X151879448Y-90800910D01*
X151832137Y-90814801D01*
X151760558Y-90835819D01*
X151683454Y-90837654D01*
X151615760Y-90800690D01*
X151575617Y-90734832D01*
X151569582Y-90692854D01*
X151569582Y-89099996D01*
X174194353Y-89099996D01*
X174194353Y-89100003D01*
X174214834Y-89242454D01*
X174214834Y-89242455D01*
X174214835Y-89242457D01*
X174274623Y-89373373D01*
X174368872Y-89482143D01*
X174489947Y-89559953D01*
X174628039Y-89600500D01*
X174628041Y-89600500D01*
X174771959Y-89600500D01*
X174771961Y-89600500D01*
X174910053Y-89559953D01*
X175031128Y-89482143D01*
X175125377Y-89373373D01*
X175185165Y-89242457D01*
X175205647Y-89100000D01*
X175205647Y-89099996D01*
X175185165Y-88957545D01*
X175185165Y-88957543D01*
X175125377Y-88826627D01*
X175031128Y-88717857D01*
X175031127Y-88717856D01*
X174997465Y-88696223D01*
X174910053Y-88640047D01*
X174910050Y-88640046D01*
X174771967Y-88599501D01*
X174771962Y-88599500D01*
X174771961Y-88599500D01*
X174628039Y-88599500D01*
X174628037Y-88599500D01*
X174628032Y-88599501D01*
X174489949Y-88640046D01*
X174368872Y-88717856D01*
X174368870Y-88717859D01*
X174274622Y-88826628D01*
X174214834Y-88957545D01*
X174194353Y-89099996D01*
X151569582Y-89099996D01*
X151569582Y-86199996D01*
X170494353Y-86199996D01*
X170494353Y-86200003D01*
X170514834Y-86342454D01*
X170514834Y-86342455D01*
X170514835Y-86342457D01*
X170574623Y-86473373D01*
X170668872Y-86582143D01*
X170789947Y-86659953D01*
X170928039Y-86700500D01*
X170928041Y-86700500D01*
X171071959Y-86700500D01*
X171071961Y-86700500D01*
X171210053Y-86659953D01*
X171331128Y-86582143D01*
X171425377Y-86473373D01*
X171485165Y-86342457D01*
X171505647Y-86200000D01*
X171505647Y-86199996D01*
X171485165Y-86057545D01*
X171485165Y-86057543D01*
X171425377Y-85926627D01*
X171331128Y-85817857D01*
X171331127Y-85817856D01*
X171297465Y-85796223D01*
X171210053Y-85740047D01*
X171210050Y-85740046D01*
X171071967Y-85699501D01*
X171071962Y-85699500D01*
X171071961Y-85699500D01*
X170928039Y-85699500D01*
X170928037Y-85699500D01*
X170928032Y-85699501D01*
X170789949Y-85740046D01*
X170668872Y-85817856D01*
X170668870Y-85817859D01*
X170574622Y-85926628D01*
X170514834Y-86057545D01*
X170494353Y-86199996D01*
X151569582Y-86199996D01*
X151569582Y-61869500D01*
X151589544Y-61795000D01*
X151644082Y-61740462D01*
X151718582Y-61720500D01*
X164290713Y-61720500D01*
X164365213Y-61740462D01*
G37*
%TD.AperFunction*%
%TD*%
M02*
