M48
; DRILL file {KiCad 8.0.5} date 2024-10-25T02:08:37-0700
; FORMAT={-:-/ absolute / metric / decimal}
; #@! TF.CreationDate,2024-10-25T02:08:37-07:00
; #@! TF.GenerationSoftware,Kicad,Pcbnew,8.0.5
; #@! TF.FileFunction,Plated,1,4,PTH
FMAT,2
METRIC
; #@! TA.AperFunction,Plated,PTH,ViaDrill
T1C0.300
; #@! TA.AperFunction,Plated,PTH,ViaDrill
T2C0.400
; #@! TA.AperFunction,Plated,PTH,ComponentDrill
T3C0.500
; #@! TA.AperFunction,Plated,PTH,ComponentDrill
T4C2.700
%
G90
G05
T1
X151.919Y-92.55
X151.95Y-93.85
X151.951Y-91.301
X157.1Y-83.05
X161.5Y-112.7
X165.4Y-110.5
X165.75Y-106.8
X171.0Y-86.2
X171.1Y-65.25
X171.466Y-68.208
X171.466Y-69.108
X171.466Y-70.008
X171.466Y-70.908
X171.466Y-71.808
X171.466Y-72.665
X171.552Y-73.501
X171.79Y-74.306
X172.05Y-91.301
X172.05Y-96.381
X172.171Y-75.054
X172.681Y-75.721
X173.302Y-76.284
X173.664Y-68.1
X173.664Y-69.0
X173.664Y-69.9
X173.664Y-70.8
X173.664Y-71.7
X173.664Y-72.557
X173.8Y-73.35
X174.0Y-97.15
X174.0Y-100.4
X174.015Y-65.25
X174.016Y-76.726
X174.2Y-74.05
X174.6Y-85.2
X174.6Y-87.8
X174.65Y-98.921
X174.65Y-101.461
X174.675Y-93.075
X174.7Y-89.1
X174.798Y-77.032
X174.85Y-74.6
X175.65Y-74.9
X175.65Y-77.25
X178.85Y-112.95
T2
X152.3Y-69.0
X152.3Y-82.0
X152.3Y-108.0
X152.4Y-64.0
X153.9Y-62.6
X154.15Y-99.4
X154.15Y-100.95
X155.449Y-73.571
X155.449Y-76.171
X155.449Y-78.671
X155.449Y-86.271
X155.449Y-88.771
X155.449Y-104.071
X156.7Y-94.05
X156.7Y-98.691
X156.7Y-100.181
X157.0Y-101.691
X159.0Y-62.6
X159.0Y-69.0
X159.0Y-74.0
X159.0Y-79.0
X161.5Y-101.73
X161.5Y-104.27
X164.0Y-69.0
X164.0Y-74.0
X164.0Y-79.0
X164.0Y-84.0
X164.0Y-89.0
X164.0Y-94.0
X164.0Y-99.0
X164.0Y-104.0
X164.049Y-110.095
X164.15Y-105.25
X166.7Y-112.7
X169.0Y-69.0
X169.0Y-74.0
X169.0Y-79.0
X169.0Y-84.0
X169.0Y-89.0
X169.0Y-94.0
X169.0Y-99.0
X169.0Y-104.0
X169.0Y-108.0
X170.025Y-68.15
X174.0Y-79.0
X174.0Y-94.0
X174.0Y-112.8
X174.6Y-104.001
X174.725Y-106.8
X175.105Y-68.15
X175.649Y-73.571
X175.649Y-78.671
X178.6Y-63.9
X178.65Y-69.0
T3
X152.517Y-110.598
X153.11Y-109.166
X153.11Y-112.03
X154.542Y-108.573
X154.542Y-112.623
X155.974Y-109.166
X155.974Y-112.03
X156.567Y-110.598
X163.524Y-64.65
X164.117Y-63.218
X164.117Y-66.082
X165.549Y-62.625
X165.549Y-66.675
X166.981Y-63.218
X166.981Y-66.082
X167.574Y-64.65
T4
X154.542Y-110.598
X165.549Y-64.65
M30
