%TF.GenerationSoftware,KiCad,Pcbnew,8.0.5*%
%TF.CreationDate,2024-10-25T02:08:45-07:00*%
%TF.ProjectId,ChungRF,4368756e-6752-4462-9e6b-696361645f70,R3*%
%TF.SameCoordinates,Original*%
%TF.FileFunction,Copper,L4,Bot*%
%TF.FilePolarity,Positive*%
%FSLAX46Y46*%
G04 Gerber Fmt 4.6, Leading zero omitted, Abs format (unit mm)*
G04 Created by KiCad (PCBNEW 8.0.5) date 2024-10-25 02:08:45*
%MOMM*%
%LPD*%
G01*
G04 APERTURE LIST*
G04 Aperture macros list*
%AMRoundRect*
0 Rectangle with rounded corners*
0 $1 Rounding radius*
0 $2 $3 $4 $5 $6 $7 $8 $9 X,Y pos of 4 corners*
0 Add a 4 corners polygon primitive as box body*
4,1,4,$2,$3,$4,$5,$6,$7,$8,$9,$2,$3,0*
0 Add four circle primitives for the rounded corners*
1,1,$1+$1,$2,$3*
1,1,$1+$1,$4,$5*
1,1,$1+$1,$6,$7*
1,1,$1+$1,$8,$9*
0 Add four rect primitives between the rounded corners*
20,1,$1+$1,$2,$3,$4,$5,0*
20,1,$1+$1,$4,$5,$6,$7,0*
20,1,$1+$1,$6,$7,$8,$9,0*
20,1,$1+$1,$8,$9,$2,$3,0*%
G04 Aperture macros list end*
%TA.AperFunction,ComponentPad*%
%ADD10C,0.800000*%
%TD*%
%TA.AperFunction,ComponentPad*%
%ADD11C,5.400000*%
%TD*%
%TA.AperFunction,SMDPad,CuDef*%
%ADD12RoundRect,0.228000X-0.532000X-1.802000X0.532000X-1.802000X0.532000X1.802000X-0.532000X1.802000X0*%
%TD*%
%TA.AperFunction,SMDPad,CuDef*%
%ADD13RoundRect,0.225000X-0.225000X-0.250000X0.225000X-0.250000X0.225000X0.250000X-0.225000X0.250000X0*%
%TD*%
%TA.AperFunction,SMDPad,CuDef*%
%ADD14RoundRect,0.250000X1.250000X-0.750000X1.250000X0.750000X-1.250000X0.750000X-1.250000X-0.750000X0*%
%TD*%
%TA.AperFunction,SMDPad,CuDef*%
%ADD15RoundRect,0.250000X-0.750000X-1.250000X0.750000X-1.250000X0.750000X1.250000X-0.750000X1.250000X0*%
%TD*%
%TA.AperFunction,ViaPad*%
%ADD16C,0.700000*%
%TD*%
%TA.AperFunction,ViaPad*%
%ADD17C,0.600000*%
%TD*%
%TA.AperFunction,ViaPad*%
%ADD18C,0.900000*%
%TD*%
%TA.AperFunction,Conductor*%
%ADD19C,0.200000*%
%TD*%
%TA.AperFunction,Conductor*%
%ADD20C,0.190000*%
%TD*%
%TA.AperFunction,Conductor*%
%ADD21C,0.600000*%
%TD*%
G04 APERTURE END LIST*
D10*
%TO.P,H1,1*%
%TO.N,N/C*%
X163524082Y-64650000D03*
X164117191Y-63218109D03*
X164117191Y-66081891D03*
X165549082Y-62625000D03*
D11*
X165549082Y-64650000D03*
D10*
X165549082Y-66675000D03*
X166980973Y-63218109D03*
X166980973Y-66081891D03*
X167574082Y-64650000D03*
%TD*%
%TO.P,H2,1*%
%TO.N,N/C*%
X152516891Y-110598109D03*
X153110000Y-109166218D03*
X153110000Y-112030000D03*
X154541891Y-108573109D03*
D11*
X154541891Y-110598109D03*
D10*
X154541891Y-112623109D03*
X155973782Y-109166218D03*
X155973782Y-112030000D03*
X156566891Y-110598109D03*
%TD*%
D12*
%TO.P,J2,2,Ext*%
%TO.N,GND*%
X170024984Y-65250000D03*
X175104984Y-65250000D03*
%TD*%
D13*
%TO.P,C3,1*%
%TO.N,VBUS*%
X154175000Y-98691410D03*
%TO.P,C3,2*%
%TO.N,GND*%
X155725000Y-98691410D03*
%TD*%
%TO.P,C2,1*%
%TO.N,VBUS*%
X154175000Y-100181410D03*
%TO.P,C2,2*%
%TO.N,GND*%
X155725000Y-100181410D03*
%TD*%
%TO.P,C1,1*%
%TO.N,VBUS*%
X154175000Y-101691410D03*
%TO.P,C1,2*%
%TO.N,GND*%
X155725000Y-101691410D03*
%TD*%
D14*
%TO.P,U1,1,USB_D+*%
%TO.N,unconnected-(U1-USB_D+-Pad1)*%
X159350000Y-111890000D03*
%TO.P,U1,2,D0*%
%TO.N,/CARFIO_SCL*%
X159350000Y-109350000D03*
%TO.P,U1,3,D1*%
%TO.N,/CARFIO_SDA*%
X159350000Y-106810000D03*
%TO.P,U1,4,GND*%
%TO.N,GND*%
X159350000Y-104270000D03*
%TO.P,U1,5,GND*%
X159350000Y-101730000D03*
%TO.P,U1,6,D2*%
%TO.N,/DIO1*%
X159350000Y-99190000D03*
%TO.P,U1,7,D3*%
%TO.N,unconnected-(U1-D3-Pad7)*%
X159350000Y-96650000D03*
%TO.P,U1,8,D4*%
%TO.N,/NRST*%
X159350000Y-94110000D03*
%TO.P,U1,9,D5*%
%TO.N,/BUSY*%
X159350000Y-91570000D03*
%TO.P,U1,10,D6*%
%TO.N,unconnected-(U1-D6-Pad10)*%
X159350000Y-89030000D03*
%TO.P,U1,11,D7*%
%TO.N,/NSS*%
X159350000Y-86490000D03*
%TO.P,U1,12,D8*%
%TO.N,/TXEN*%
X159350000Y-83950000D03*
%TO.P,U1,13,D9*%
%TO.N,/RXEN*%
X159350000Y-81410000D03*
%TO.P,U1,14,D10*%
%TO.N,unconnected-(U1-D10-Pad14)*%
X176850000Y-81410000D03*
%TO.P,U1,15,MOSI*%
%TO.N,/MOSI*%
X176850000Y-83950000D03*
%TO.P,U1,16,MISO*%
%TO.N,/MISO*%
X176850000Y-86490000D03*
%TO.P,U1,17,SCK*%
%TO.N,/SCK*%
X176850000Y-89030000D03*
%TO.P,U1,18,A0*%
%TO.N,unconnected-(U1-A0-Pad18)*%
X176850000Y-91570000D03*
%TO.P,U1,19,A1*%
%TO.N,unconnected-(U1-A1-Pad19)*%
X176850000Y-94110000D03*
%TO.P,U1,20,A2*%
%TO.N,unconnected-(U1-A2-Pad20)*%
X176850000Y-96650000D03*
%TO.P,U1,21,A3*%
%TO.N,unconnected-(U1-A3-Pad21)*%
X176850000Y-99190000D03*
%TO.P,U1,22,3v3*%
%TO.N,unconnected-(U1-3v3-Pad22)*%
X176850000Y-101730000D03*
%TO.P,U1,23,~{RESET}*%
%TO.N,unconnected-(U1-~{RESET}-Pad23)*%
X176850000Y-104270000D03*
%TO.P,U1,24,GND*%
%TO.N,GND*%
X176850000Y-106810000D03*
%TO.P,U1,25,RAW*%
%TO.N,VBUS*%
X176850000Y-109350000D03*
%TO.P,U1,26,USB_D-*%
%TO.N,unconnected-(U1-USB_D--Pad26)*%
X176850000Y-111890000D03*
D15*
%TO.P,U1,JMP,JMP*%
%TO.N,unconnected-(U1-PadJMP)*%
X168100000Y-110790000D03*
%TD*%
D16*
%TO.N,GND*%
X174000000Y-97150000D03*
D17*
%TO.N,/NSS*%
X171000000Y-86200000D03*
D16*
%TO.N,GND*%
X151919082Y-92550000D03*
X157100000Y-83050000D03*
D18*
X156700000Y-94050000D03*
D16*
X174600000Y-87800000D03*
D17*
%TO.N,/TXEN*%
X151950000Y-93850000D03*
%TO.N,/RXEN*%
X151951410Y-91301410D03*
D16*
%TO.N,GND*%
X178850000Y-112950000D03*
X161500000Y-112700000D03*
X174600000Y-85200000D03*
D18*
X174000000Y-94000000D03*
X174000000Y-79000000D03*
D17*
%TO.N,/SCK*%
X174700000Y-89100000D03*
%TO.N,/MISO*%
X174675000Y-93075000D03*
%TO.N,/MOSI*%
X172050000Y-91301410D03*
%TO.N,/BUSY*%
X174650000Y-98921410D03*
%TO.N,/NRST*%
X172050000Y-96381410D03*
%TO.N,/DIO1*%
X174650000Y-101461410D03*
D16*
%TO.N,GND*%
X171466310Y-71807946D03*
D18*
X174600000Y-104001410D03*
D16*
X174797501Y-77031690D03*
X174200000Y-74050000D03*
D18*
X164000000Y-99000000D03*
X169000000Y-89000000D03*
X164000000Y-69000000D03*
X178600000Y-63900000D03*
X161500000Y-104270000D03*
D16*
X173663660Y-70800000D03*
X173663660Y-68100000D03*
D18*
X152300000Y-82000000D03*
X159000000Y-74000000D03*
X175649082Y-78671410D03*
X164000000Y-79000000D03*
X169000000Y-74000000D03*
X169000000Y-69000000D03*
X174725000Y-106800000D03*
X159000000Y-69000000D03*
X159000000Y-62600000D03*
X164000000Y-89000000D03*
D16*
X171466310Y-69107946D03*
X175650000Y-77250000D03*
X171466310Y-70907946D03*
D18*
X170024984Y-68150000D03*
X166700000Y-112700000D03*
D16*
X174850000Y-74600000D03*
X175650000Y-74900000D03*
X171790200Y-74305988D03*
D18*
X164000000Y-74000000D03*
X164000000Y-104000000D03*
X169000000Y-94000000D03*
X164000000Y-84000000D03*
X155449082Y-73571410D03*
D16*
X171551807Y-73500802D03*
X173302284Y-76284240D03*
X174014984Y-65250000D03*
D18*
X155449082Y-76171410D03*
X155449082Y-104071410D03*
X169000000Y-108000000D03*
X161500000Y-101730000D03*
X169000000Y-84000000D03*
D16*
X172680585Y-75720756D03*
X173663660Y-69000000D03*
D18*
X175649082Y-73571410D03*
X169000000Y-79000000D03*
X152300000Y-108000000D03*
X164049082Y-110095000D03*
D16*
X171100000Y-65250000D03*
D18*
X157000000Y-101691410D03*
X156700000Y-100181410D03*
X175104984Y-68150000D03*
D16*
X172170973Y-75054072D03*
D18*
X155449082Y-78671410D03*
X178650000Y-69000000D03*
D16*
X171466310Y-68207946D03*
D18*
X174000000Y-112800000D03*
D16*
X173800000Y-73350000D03*
D18*
X164000000Y-94000000D03*
D16*
X173663660Y-72557437D03*
X173663660Y-71700000D03*
X174015702Y-76726063D03*
D18*
X153900000Y-62600000D03*
X156700000Y-98691410D03*
D16*
X171466310Y-72665383D03*
X173663660Y-69900000D03*
X171466310Y-70007946D03*
D18*
X169000000Y-99000000D03*
X169000000Y-104000000D03*
X159000000Y-79000000D03*
X155449082Y-88771410D03*
X152300000Y-69000000D03*
X155449082Y-86271410D03*
X152400000Y-64000000D03*
D17*
%TO.N,/CARFIO_SCL*%
X165400000Y-110500000D03*
%TO.N,/CARFIO_SDA*%
X165750000Y-106800000D03*
D18*
%TO.N,VBUS*%
X164150000Y-105250000D03*
X154150000Y-99400000D03*
X154150000Y-100950000D03*
D16*
%TO.N,GND*%
X174000000Y-100400000D03*
%TD*%
D19*
%TO.N,/NRST*%
X164706410Y-96381410D02*
X162435000Y-94110000D01*
X172050000Y-96381410D02*
X164706410Y-96381410D01*
X162435000Y-94110000D02*
X159350000Y-94110000D01*
%TO.N,/BUSY*%
X169170000Y-91570000D02*
X159350000Y-91570000D01*
X173200000Y-95600000D02*
X169170000Y-91570000D01*
X174650000Y-98850000D02*
X173200000Y-97400000D01*
X173200000Y-97400000D02*
X173200000Y-95600000D01*
X174650000Y-98921410D02*
X174650000Y-98850000D01*
D20*
%TO.N,/NSS*%
X170710000Y-86490000D02*
X159350000Y-86490000D01*
X171000000Y-86200000D02*
X170710000Y-86490000D01*
D19*
%TO.N,/MOSI*%
X174450000Y-83950000D02*
X176850000Y-83950000D01*
X172050000Y-86350000D02*
X174450000Y-83950000D01*
X172050000Y-91301410D02*
X172050000Y-86350000D01*
%TO.N,/DIO1*%
X162640000Y-99190000D02*
X159350000Y-99190000D01*
X164911410Y-101461410D02*
X162640000Y-99190000D01*
X174650000Y-101461410D02*
X164911410Y-101461410D01*
D20*
%TO.N,/CARFIO_SCL*%
X164357672Y-109350000D02*
X159350000Y-109350000D01*
X165400000Y-110500000D02*
X165400000Y-110392328D01*
X165400000Y-110392328D02*
X164357672Y-109350000D01*
D21*
%TO.N,VBUS*%
X167950000Y-105250000D02*
X172050000Y-109350000D01*
X172050000Y-109350000D02*
X176850000Y-109350000D01*
X164150000Y-105250000D02*
X167950000Y-105250000D01*
D19*
%TO.N,/SCK*%
X174770000Y-89030000D02*
X176850000Y-89030000D01*
X174700000Y-89100000D02*
X174770000Y-89030000D01*
%TO.N,/MISO*%
X173400000Y-87500000D02*
X174410000Y-86490000D01*
X173400000Y-91800000D02*
X173400000Y-87500000D01*
X174675000Y-93075000D02*
X173400000Y-91800000D01*
X174410000Y-86490000D02*
X176850000Y-86490000D01*
%TO.N,/RXEN*%
X157390000Y-81410000D02*
X159350000Y-81410000D01*
X156300000Y-82500000D02*
X157390000Y-81410000D01*
X156300000Y-89900000D02*
X156300000Y-82500000D01*
X151951410Y-91301410D02*
X154898590Y-91301410D01*
X154898590Y-91301410D02*
X156300000Y-89900000D01*
D21*
%TO.N,GND*%
X156700000Y-98691410D02*
X155725000Y-98691410D01*
X170024984Y-68125016D02*
X170000000Y-68150000D01*
X155725000Y-100181410D02*
X156700000Y-100181410D01*
X176875000Y-106800000D02*
X174725000Y-106800000D01*
X155725000Y-101691410D02*
X157000000Y-101691410D01*
X159350000Y-104270000D02*
X161500000Y-104270000D01*
X159350000Y-101730000D02*
X161500000Y-101730000D01*
D20*
%TO.N,/CARFIO_SDA*%
X165750000Y-106800000D02*
X165740000Y-106810000D01*
X165740000Y-106810000D02*
X159350000Y-106810000D01*
%TO.N,/TXEN*%
X156950000Y-90400000D02*
X156950000Y-84450000D01*
X153500000Y-93850000D02*
X156950000Y-90400000D01*
X151950000Y-93850000D02*
X153500000Y-93850000D01*
X156950000Y-84450000D02*
X157450000Y-83950000D01*
X157450000Y-83950000D02*
X159350000Y-83950000D01*
%TD*%
%TA.AperFunction,Conductor*%
%TO.N,GND*%
G36*
X164365213Y-61740462D02*
G01*
X164419751Y-61795000D01*
X164439713Y-61869500D01*
X164419751Y-61944000D01*
X164365213Y-61998538D01*
X164357584Y-62002651D01*
X164096379Y-62133832D01*
X163949693Y-62230309D01*
X163814088Y-62319498D01*
X163814086Y-62319499D01*
X163814085Y-62319500D01*
X163555266Y-62536674D01*
X163555261Y-62536680D01*
X163323412Y-62782424D01*
X163323409Y-62782428D01*
X163121641Y-63053449D01*
X162952707Y-63346051D01*
X162952705Y-63346055D01*
X162818883Y-63656289D01*
X162818881Y-63656296D01*
X162721984Y-63979954D01*
X162721982Y-63979964D01*
X162663312Y-64312695D01*
X162663310Y-64312709D01*
X162643666Y-64650000D01*
X162663310Y-64987290D01*
X162663312Y-64987304D01*
X162721982Y-65320035D01*
X162721984Y-65320045D01*
X162818881Y-65643703D01*
X162818883Y-65643710D01*
X162952705Y-65953944D01*
X162952707Y-65953948D01*
X163121642Y-66246552D01*
X163323404Y-66517565D01*
X163323406Y-66517567D01*
X163323409Y-66517571D01*
X163323412Y-66517575D01*
X163555261Y-66763319D01*
X163555266Y-66763325D01*
X163738074Y-66916718D01*
X163814088Y-66980502D01*
X164096374Y-67166164D01*
X164096379Y-67166167D01*
X164169495Y-67202887D01*
X164398306Y-67317800D01*
X164715799Y-67433358D01*
X165044562Y-67511276D01*
X165380147Y-67550500D01*
X165380150Y-67550500D01*
X165718014Y-67550500D01*
X165718017Y-67550500D01*
X166053602Y-67511276D01*
X166382365Y-67433358D01*
X166699858Y-67317800D01*
X167001790Y-67166164D01*
X167117773Y-67089881D01*
X168914985Y-67089881D01*
X168929861Y-67202887D01*
X168988101Y-67343493D01*
X169080748Y-67464234D01*
X169080749Y-67464235D01*
X169201490Y-67556882D01*
X169342101Y-67615124D01*
X169342098Y-67615124D01*
X169455094Y-67629999D01*
X169774984Y-67629999D01*
X170274984Y-67629999D01*
X170594865Y-67629999D01*
X170707871Y-67615122D01*
X170848477Y-67556882D01*
X170969218Y-67464235D01*
X170969219Y-67464234D01*
X171061866Y-67343493D01*
X171120108Y-67202883D01*
X171134983Y-67089892D01*
X171134984Y-67089888D01*
X171134984Y-65500000D01*
X170274984Y-65500000D01*
X170274984Y-67629999D01*
X169774984Y-67629999D01*
X169774984Y-65500000D01*
X168914985Y-65500000D01*
X168914985Y-67089881D01*
X167117773Y-67089881D01*
X167284076Y-66980502D01*
X167542899Y-66763323D01*
X167774760Y-66517565D01*
X167976522Y-66246552D01*
X168145457Y-65953948D01*
X168279280Y-65643711D01*
X168376182Y-65320035D01*
X168434853Y-64987298D01*
X168454498Y-64650000D01*
X168434853Y-64312702D01*
X168376182Y-63979965D01*
X168279280Y-63656289D01*
X168143740Y-63342071D01*
X168145028Y-63341515D01*
X168130730Y-63272232D01*
X168154997Y-63199021D01*
X168212619Y-63147752D01*
X168279477Y-63131910D01*
X168343860Y-63131910D01*
X168781708Y-63131910D01*
X168856208Y-63151872D01*
X168910746Y-63206410D01*
X168930708Y-63280910D01*
X168929433Y-63300358D01*
X168914984Y-63410107D01*
X168914984Y-65000000D01*
X171134983Y-65000000D01*
X171134983Y-63410118D01*
X171120534Y-63300357D01*
X171130603Y-63223888D01*
X171177556Y-63162699D01*
X171248813Y-63133184D01*
X171268260Y-63131910D01*
X171765849Y-63131910D01*
X171840349Y-63151872D01*
X171894887Y-63206410D01*
X171914848Y-63280909D01*
X171908100Y-67629999D01*
X171900000Y-72850004D01*
X171947561Y-73228913D01*
X171950000Y-73248346D01*
X172000000Y-73504814D01*
X172000005Y-73504839D01*
X172083333Y-73834135D01*
X172100000Y-73900000D01*
X172100002Y-73900006D01*
X172100003Y-73900008D01*
X172299997Y-74405083D01*
X172300003Y-74405096D01*
X172549995Y-74849992D01*
X172549997Y-74849995D01*
X172550000Y-74850000D01*
X173000000Y-75450000D01*
X173700000Y-76050000D01*
X174500000Y-76500000D01*
X175399996Y-76749999D01*
X175399997Y-76749999D01*
X175400000Y-76750000D01*
X176250000Y-76800000D01*
X176250009Y-76800000D01*
X176400000Y-76800000D01*
X176400000Y-75450000D01*
X176250000Y-75450000D01*
X175772741Y-75450000D01*
X175728298Y-75443217D01*
X174963624Y-75204256D01*
X174937426Y-75193229D01*
X174319255Y-74860368D01*
X174284537Y-74834537D01*
X173861999Y-74411999D01*
X173841006Y-74385610D01*
X173606081Y-74009730D01*
X173595480Y-73989454D01*
X173451349Y-73653147D01*
X173448789Y-73646771D01*
X173307423Y-73269795D01*
X173298378Y-73228919D01*
X173250439Y-72605707D01*
X173250000Y-72594279D01*
X173250000Y-72400021D01*
X173230669Y-67317800D01*
X173229802Y-67089881D01*
X173994985Y-67089881D01*
X174009861Y-67202887D01*
X174068101Y-67343493D01*
X174160748Y-67464234D01*
X174160749Y-67464235D01*
X174281490Y-67556882D01*
X174422101Y-67615124D01*
X174422098Y-67615124D01*
X174535094Y-67629999D01*
X174854984Y-67629999D01*
X175354984Y-67629999D01*
X175674865Y-67629999D01*
X175787871Y-67615122D01*
X175928477Y-67556882D01*
X176049218Y-67464235D01*
X176049219Y-67464234D01*
X176141866Y-67343493D01*
X176200108Y-67202883D01*
X176214983Y-67089892D01*
X176214984Y-67089888D01*
X176214984Y-65500000D01*
X175354984Y-65500000D01*
X175354984Y-67629999D01*
X174854984Y-67629999D01*
X174854984Y-65500000D01*
X173994985Y-65500000D01*
X173994985Y-67089881D01*
X173229802Y-67089881D01*
X173215317Y-63281476D01*
X173234996Y-63206901D01*
X173289326Y-63152157D01*
X173363749Y-63131911D01*
X173364316Y-63131910D01*
X173861708Y-63131910D01*
X173936208Y-63151872D01*
X173990746Y-63206410D01*
X174010708Y-63280910D01*
X174009433Y-63300358D01*
X173994984Y-63410107D01*
X173994984Y-65000000D01*
X176214983Y-65000000D01*
X176214983Y-63410118D01*
X176200534Y-63300357D01*
X176210603Y-63223888D01*
X176257556Y-63162699D01*
X176328813Y-63133184D01*
X176348260Y-63131910D01*
X179379582Y-63131910D01*
X179454082Y-63151872D01*
X179508620Y-63206410D01*
X179528582Y-63280910D01*
X179528582Y-113430500D01*
X179508620Y-113505000D01*
X179454082Y-113559538D01*
X179379582Y-113579500D01*
X155676103Y-113579500D01*
X155601603Y-113559538D01*
X155547065Y-113505000D01*
X155527103Y-113430500D01*
X155547065Y-113356000D01*
X155601603Y-113301462D01*
X155625142Y-113290486D01*
X155692667Y-113265909D01*
X155994599Y-113114273D01*
X156276885Y-112928611D01*
X156535708Y-112711432D01*
X156744148Y-112490499D01*
X156767560Y-112465684D01*
X156767563Y-112465680D01*
X156767569Y-112465674D01*
X156969331Y-112194661D01*
X157138266Y-111902057D01*
X157272089Y-111591820D01*
X157344966Y-111348393D01*
X157357760Y-111305659D01*
X157398250Y-111240014D01*
X157466138Y-111203409D01*
X157543234Y-111205653D01*
X157608879Y-111246143D01*
X157645484Y-111314031D01*
X157649500Y-111348393D01*
X157649500Y-112694275D01*
X157652353Y-112724695D01*
X157697207Y-112852883D01*
X157777848Y-112962148D01*
X157777851Y-112962151D01*
X157887116Y-113042792D01*
X157887117Y-113042792D01*
X157887118Y-113042793D01*
X158015301Y-113087646D01*
X158045734Y-113090500D01*
X158045741Y-113090500D01*
X160654259Y-113090500D01*
X160654266Y-113090500D01*
X160684699Y-113087646D01*
X160812882Y-113042793D01*
X160922150Y-112962150D01*
X161002793Y-112852882D01*
X161047646Y-112724699D01*
X161050500Y-112694266D01*
X161050500Y-111085734D01*
X161047646Y-111055301D01*
X161002793Y-110927118D01*
X160997116Y-110919426D01*
X160922151Y-110817851D01*
X160922148Y-110817848D01*
X160816511Y-110739885D01*
X160768422Y-110679584D01*
X160756927Y-110603318D01*
X160785105Y-110531521D01*
X160816511Y-110500115D01*
X160858074Y-110469439D01*
X160922150Y-110422150D01*
X161002793Y-110312882D01*
X161047646Y-110184699D01*
X161050500Y-110154266D01*
X161050500Y-109794500D01*
X161070462Y-109720000D01*
X161125000Y-109665462D01*
X161199500Y-109645500D01*
X164173554Y-109645500D01*
X164248054Y-109665462D01*
X164278913Y-109689141D01*
X164866179Y-110276407D01*
X164904743Y-110343202D01*
X164908303Y-110402971D01*
X164894353Y-110499996D01*
X164894353Y-110500003D01*
X164914834Y-110642454D01*
X164914834Y-110642455D01*
X164914835Y-110642457D01*
X164974623Y-110773373D01*
X165068872Y-110882143D01*
X165189947Y-110959953D01*
X165328039Y-111000500D01*
X165328041Y-111000500D01*
X165471959Y-111000500D01*
X165471961Y-111000500D01*
X165610053Y-110959953D01*
X165731128Y-110882143D01*
X165825377Y-110773373D01*
X165885165Y-110642457D01*
X165901115Y-110531521D01*
X165905647Y-110500003D01*
X165905647Y-110499996D01*
X165885165Y-110357545D01*
X165885165Y-110357543D01*
X165825377Y-110226627D01*
X165731128Y-110117857D01*
X165731127Y-110117856D01*
X165697465Y-110096223D01*
X165610053Y-110040047D01*
X165610050Y-110040046D01*
X165471963Y-109999499D01*
X165466282Y-109998683D01*
X165395382Y-109968320D01*
X165382131Y-109956559D01*
X164911296Y-109485724D01*
X166899500Y-109485724D01*
X166899500Y-112094275D01*
X166902353Y-112124695D01*
X166947207Y-112252883D01*
X167027848Y-112362148D01*
X167027851Y-112362151D01*
X167137116Y-112442792D01*
X167137117Y-112442792D01*
X167137118Y-112442793D01*
X167265301Y-112487646D01*
X167295734Y-112490500D01*
X167295741Y-112490500D01*
X168904259Y-112490500D01*
X168904266Y-112490500D01*
X168934699Y-112487646D01*
X169062882Y-112442793D01*
X169172150Y-112362150D01*
X169252793Y-112252882D01*
X169297646Y-112124699D01*
X169300500Y-112094266D01*
X169300500Y-109485734D01*
X169297646Y-109455301D01*
X169252793Y-109327118D01*
X169172150Y-109217850D01*
X169172148Y-109217848D01*
X169062883Y-109137207D01*
X168995245Y-109113540D01*
X168934699Y-109092354D01*
X168934697Y-109092353D01*
X168934695Y-109092353D01*
X168904275Y-109089500D01*
X168904266Y-109089500D01*
X167295734Y-109089500D01*
X167295724Y-109089500D01*
X167265304Y-109092353D01*
X167137116Y-109137207D01*
X167027851Y-109217848D01*
X167027848Y-109217851D01*
X166947207Y-109327116D01*
X166902353Y-109455304D01*
X166899500Y-109485724D01*
X164911296Y-109485724D01*
X164539112Y-109113540D01*
X164511580Y-109097645D01*
X164511579Y-109097644D01*
X164471735Y-109074639D01*
X164463792Y-109072510D01*
X164434153Y-109064569D01*
X164434151Y-109064568D01*
X164434149Y-109064567D01*
X164396579Y-109054500D01*
X164396576Y-109054500D01*
X164396575Y-109054500D01*
X161199500Y-109054500D01*
X161125000Y-109034538D01*
X161070462Y-108980000D01*
X161050500Y-108905500D01*
X161050500Y-108545741D01*
X161050499Y-108545724D01*
X161047646Y-108515304D01*
X161047646Y-108515301D01*
X161002793Y-108387118D01*
X160922150Y-108277850D01*
X160922148Y-108277848D01*
X160816511Y-108199885D01*
X160768422Y-108139584D01*
X160756927Y-108063318D01*
X160785105Y-107991521D01*
X160816511Y-107960115D01*
X160858074Y-107929439D01*
X160922150Y-107882150D01*
X161002793Y-107772882D01*
X161047646Y-107644699D01*
X161050500Y-107614266D01*
X161050500Y-107254500D01*
X161070462Y-107180000D01*
X161125000Y-107125462D01*
X161199500Y-107105500D01*
X165284415Y-107105500D01*
X165358915Y-107125462D01*
X165397022Y-107156927D01*
X165418872Y-107182143D01*
X165539947Y-107259953D01*
X165678039Y-107300500D01*
X165678041Y-107300500D01*
X165821959Y-107300500D01*
X165821961Y-107300500D01*
X165960053Y-107259953D01*
X166081128Y-107182143D01*
X166175377Y-107073373D01*
X166235165Y-106942457D01*
X166255647Y-106800000D01*
X166255647Y-106799996D01*
X166235165Y-106657545D01*
X166235165Y-106657543D01*
X166175377Y-106526627D01*
X166081128Y-106417857D01*
X166081127Y-106417856D01*
X166047465Y-106396223D01*
X165960053Y-106340047D01*
X165960050Y-106340046D01*
X165821967Y-106299501D01*
X165821962Y-106299500D01*
X165821961Y-106299500D01*
X165678039Y-106299500D01*
X165678037Y-106299500D01*
X165678032Y-106299501D01*
X165539949Y-106340046D01*
X165418872Y-106417856D01*
X165418870Y-106417859D01*
X165379692Y-106463074D01*
X165315819Y-106506305D01*
X165267085Y-106514500D01*
X161199500Y-106514500D01*
X161125000Y-106494538D01*
X161070462Y-106440000D01*
X161050500Y-106365500D01*
X161050500Y-106005741D01*
X161050499Y-106005724D01*
X161047646Y-105975304D01*
X161047646Y-105975301D01*
X161002793Y-105847118D01*
X160963694Y-105794141D01*
X160915520Y-105728866D01*
X160917129Y-105727678D01*
X160885602Y-105673071D01*
X160885602Y-105595943D01*
X160924166Y-105529148D01*
X160938819Y-105516297D01*
X161027926Y-105447922D01*
X161124099Y-105322589D01*
X161154166Y-105250000D01*
X163494722Y-105250000D01*
X163513763Y-105406820D01*
X163569779Y-105554522D01*
X163623311Y-105632076D01*
X163659517Y-105684530D01*
X163777760Y-105789283D01*
X163917635Y-105862696D01*
X164071015Y-105900500D01*
X164071017Y-105900500D01*
X164228983Y-105900500D01*
X164228985Y-105900500D01*
X164382365Y-105862696D01*
X164522240Y-105789283D01*
X164522700Y-105788875D01*
X164523717Y-105787975D01*
X164525230Y-105787219D01*
X164529658Y-105784163D01*
X164530091Y-105784791D01*
X164592717Y-105753512D01*
X164622525Y-105750500D01*
X167680968Y-105750500D01*
X167755468Y-105770462D01*
X167786327Y-105794141D01*
X171649500Y-109657314D01*
X171649499Y-109657314D01*
X171712186Y-109720000D01*
X171742686Y-109750500D01*
X171856814Y-109816392D01*
X171984108Y-109850500D01*
X175000500Y-109850500D01*
X175075000Y-109870462D01*
X175129538Y-109925000D01*
X175149500Y-109999500D01*
X175149500Y-110154275D01*
X175152353Y-110184695D01*
X175197207Y-110312883D01*
X175277848Y-110422148D01*
X175277851Y-110422151D01*
X175383488Y-110500115D01*
X175431577Y-110560416D01*
X175443072Y-110636683D01*
X175414894Y-110708479D01*
X175383488Y-110739885D01*
X175277851Y-110817848D01*
X175277848Y-110817851D01*
X175197207Y-110927116D01*
X175152353Y-111055304D01*
X175149500Y-111085724D01*
X175149500Y-112694275D01*
X175152353Y-112724695D01*
X175197207Y-112852883D01*
X175277848Y-112962148D01*
X175277851Y-112962151D01*
X175387116Y-113042792D01*
X175387117Y-113042792D01*
X175387118Y-113042793D01*
X175515301Y-113087646D01*
X175545734Y-113090500D01*
X175545741Y-113090500D01*
X178154259Y-113090500D01*
X178154266Y-113090500D01*
X178184699Y-113087646D01*
X178312882Y-113042793D01*
X178422150Y-112962150D01*
X178502793Y-112852882D01*
X178547646Y-112724699D01*
X178550500Y-112694266D01*
X178550500Y-111085734D01*
X178547646Y-111055301D01*
X178502793Y-110927118D01*
X178497116Y-110919426D01*
X178422151Y-110817851D01*
X178422148Y-110817848D01*
X178316511Y-110739885D01*
X178268422Y-110679584D01*
X178256927Y-110603318D01*
X178285105Y-110531521D01*
X178316511Y-110500115D01*
X178358074Y-110469439D01*
X178422150Y-110422150D01*
X178502793Y-110312882D01*
X178547646Y-110184699D01*
X178550500Y-110154266D01*
X178550500Y-108545734D01*
X178547646Y-108515301D01*
X178502793Y-108387118D01*
X178422150Y-108277850D01*
X178422151Y-108277850D01*
X178415520Y-108268866D01*
X178417129Y-108267678D01*
X178385602Y-108213071D01*
X178385602Y-108135943D01*
X178424166Y-108069148D01*
X178438819Y-108056297D01*
X178527926Y-107987922D01*
X178624099Y-107862589D01*
X178684557Y-107716628D01*
X178699999Y-107599328D01*
X178700000Y-107599323D01*
X178700000Y-107060000D01*
X175000001Y-107060000D01*
X175000001Y-107599328D01*
X175015443Y-107716629D01*
X175015443Y-107716631D01*
X175075900Y-107862589D01*
X175172073Y-107987922D01*
X175172077Y-107987926D01*
X175261180Y-108056298D01*
X175308132Y-108117488D01*
X175318199Y-108193956D01*
X175288683Y-108265213D01*
X175279165Y-108276066D01*
X175197207Y-108387116D01*
X175152353Y-108515304D01*
X175149500Y-108545724D01*
X175149500Y-108700500D01*
X175129538Y-108775000D01*
X175075000Y-108829538D01*
X175000500Y-108849500D01*
X172319032Y-108849500D01*
X172244532Y-108829538D01*
X172213673Y-108805859D01*
X170350268Y-106942454D01*
X168257314Y-104849500D01*
X168257311Y-104849498D01*
X168257310Y-104849497D01*
X168186514Y-104808623D01*
X168143186Y-104783608D01*
X168015892Y-104749500D01*
X164622525Y-104749500D01*
X164548025Y-104729538D01*
X164523717Y-104712025D01*
X164522241Y-104710718D01*
X164522242Y-104710718D01*
X164382363Y-104637303D01*
X164304591Y-104618134D01*
X164228985Y-104599500D01*
X164071015Y-104599500D01*
X164010359Y-104614450D01*
X163917636Y-104637303D01*
X163777760Y-104710716D01*
X163659516Y-104815470D01*
X163569779Y-104945477D01*
X163513763Y-105093179D01*
X163494722Y-105250000D01*
X161154166Y-105250000D01*
X161184557Y-105176628D01*
X161199999Y-105059328D01*
X161200000Y-105059323D01*
X161200000Y-104520000D01*
X157500001Y-104520000D01*
X157500001Y-105059328D01*
X157515443Y-105176629D01*
X157515443Y-105176631D01*
X157575900Y-105322589D01*
X157672073Y-105447922D01*
X157672077Y-105447926D01*
X157761180Y-105516298D01*
X157808132Y-105577488D01*
X157818199Y-105653956D01*
X157788683Y-105725213D01*
X157779165Y-105736066D01*
X157697207Y-105847116D01*
X157652353Y-105975304D01*
X157649500Y-106005724D01*
X157649500Y-107614275D01*
X157652353Y-107644695D01*
X157697207Y-107772883D01*
X157777848Y-107882148D01*
X157777851Y-107882151D01*
X157883488Y-107960115D01*
X157931577Y-108020416D01*
X157943072Y-108096683D01*
X157914894Y-108168479D01*
X157883488Y-108199885D01*
X157777851Y-108277848D01*
X157777848Y-108277851D01*
X157697207Y-108387116D01*
X157652353Y-108515304D01*
X157649500Y-108545724D01*
X157649500Y-109847824D01*
X157629538Y-109922324D01*
X157575000Y-109976862D01*
X157500500Y-109996824D01*
X157426000Y-109976862D01*
X157371462Y-109922324D01*
X157357760Y-109890558D01*
X157272091Y-109604405D01*
X157272089Y-109604398D01*
X157138267Y-109294164D01*
X157138266Y-109294161D01*
X156969331Y-109001557D01*
X156767569Y-108730544D01*
X156767565Y-108730540D01*
X156767563Y-108730537D01*
X156767560Y-108730533D01*
X156535711Y-108484789D01*
X156535706Y-108484783D01*
X156289092Y-108277850D01*
X156276885Y-108267607D01*
X155994599Y-108081945D01*
X155994593Y-108081941D01*
X155692672Y-107930311D01*
X155692669Y-107930310D01*
X155692668Y-107930309D01*
X155692667Y-107930309D01*
X155375174Y-107814751D01*
X155241552Y-107783082D01*
X155046417Y-107736834D01*
X155046413Y-107736833D01*
X155046411Y-107736833D01*
X154710826Y-107697609D01*
X154372956Y-107697609D01*
X154037371Y-107736833D01*
X154037369Y-107736833D01*
X154037364Y-107736834D01*
X153708604Y-107814752D01*
X153391112Y-107930310D01*
X153391109Y-107930311D01*
X153089188Y-108081941D01*
X153001547Y-108139584D01*
X152806897Y-108267607D01*
X152806895Y-108267608D01*
X152806894Y-108267609D01*
X152548075Y-108484783D01*
X152548070Y-108484789D01*
X152316221Y-108730533D01*
X152316218Y-108730537D01*
X152114450Y-109001558D01*
X151945516Y-109294160D01*
X151945514Y-109294164D01*
X151855396Y-109503083D01*
X151807559Y-109563583D01*
X151735880Y-109592059D01*
X151659566Y-109580881D01*
X151599066Y-109533044D01*
X151570590Y-109461365D01*
X151569582Y-109444067D01*
X151569582Y-103480671D01*
X157500000Y-103480671D01*
X157500000Y-104020000D01*
X159100000Y-104020000D01*
X159600000Y-104020000D01*
X161199999Y-104020000D01*
X161199999Y-103480679D01*
X161199998Y-103480671D01*
X161184556Y-103363370D01*
X161184556Y-103363368D01*
X161124099Y-103217410D01*
X161026874Y-103090706D01*
X160997358Y-103019449D01*
X161007425Y-102942981D01*
X161026874Y-102909294D01*
X161124099Y-102782589D01*
X161184557Y-102636628D01*
X161199999Y-102519328D01*
X161200000Y-102519323D01*
X161200000Y-101980000D01*
X159600000Y-101980000D01*
X159600000Y-104020000D01*
X159100000Y-104020000D01*
X159100000Y-101980000D01*
X157500001Y-101980000D01*
X157500001Y-102519328D01*
X157515443Y-102636629D01*
X157515443Y-102636631D01*
X157575900Y-102782589D01*
X157673125Y-102909294D01*
X157702641Y-102980551D01*
X157692574Y-103057019D01*
X157673125Y-103090706D01*
X157575901Y-103217410D01*
X157515442Y-103363371D01*
X157500000Y-103480671D01*
X151569582Y-103480671D01*
X151569582Y-98323991D01*
X153494500Y-98323991D01*
X153494500Y-102076013D01*
X153499195Y-102119676D01*
X153510409Y-102171224D01*
X153512887Y-102181365D01*
X153512891Y-102181376D01*
X153555900Y-102262085D01*
X153587325Y-102298352D01*
X153601655Y-102314889D01*
X153619246Y-102332843D01*
X153699063Y-102377490D01*
X153766102Y-102397175D01*
X153785686Y-102399990D01*
X153823991Y-102405499D01*
X153823997Y-102405499D01*
X153824000Y-102405500D01*
X153824001Y-102405500D01*
X154525996Y-102405500D01*
X154526000Y-102405500D01*
X154526004Y-102405499D01*
X154526013Y-102405499D01*
X154569676Y-102400804D01*
X154569677Y-102400803D01*
X154569684Y-102400803D01*
X154621195Y-102389597D01*
X154631373Y-102387110D01*
X154712085Y-102344100D01*
X154764889Y-102298345D01*
X154782843Y-102280754D01*
X154782844Y-102280751D01*
X154789316Y-102272289D01*
X154791987Y-102274331D01*
X154832698Y-102232479D01*
X154906915Y-102211488D01*
X154981684Y-102230418D01*
X155027185Y-102269767D01*
X155089906Y-102351505D01*
X155089907Y-102351506D01*
X155210018Y-102443672D01*
X155349897Y-102501611D01*
X155462304Y-102516409D01*
X155462308Y-102516410D01*
X155475000Y-102516410D01*
X155975000Y-102516410D01*
X155987692Y-102516410D01*
X155987695Y-102516409D01*
X156100102Y-102501611D01*
X156239981Y-102443672D01*
X156360092Y-102351506D01*
X156360096Y-102351502D01*
X156452262Y-102231391D01*
X156510201Y-102091512D01*
X156524999Y-101979105D01*
X156525000Y-101979101D01*
X156525000Y-101941410D01*
X155975000Y-101941410D01*
X155975000Y-102516410D01*
X155475000Y-102516410D01*
X155475000Y-101441410D01*
X155975000Y-101441410D01*
X156525000Y-101441410D01*
X156525000Y-101403718D01*
X156524999Y-101403714D01*
X156510201Y-101291307D01*
X156452263Y-101151430D01*
X156356872Y-101027117D01*
X156327356Y-100955860D01*
X156337422Y-100879392D01*
X156356872Y-100845703D01*
X156452263Y-100721389D01*
X156510201Y-100581512D01*
X156524999Y-100469105D01*
X156525000Y-100469101D01*
X156525000Y-100431410D01*
X155975000Y-100431410D01*
X155975000Y-101441410D01*
X155475000Y-101441410D01*
X155475000Y-99931410D01*
X155975000Y-99931410D01*
X156525000Y-99931410D01*
X156525000Y-99893718D01*
X156524999Y-99893714D01*
X156510201Y-99781307D01*
X156452262Y-99641428D01*
X156364546Y-99527116D01*
X156335030Y-99455859D01*
X156345097Y-99379391D01*
X156364546Y-99345704D01*
X156452262Y-99231391D01*
X156510201Y-99091512D01*
X156524999Y-98979105D01*
X156525000Y-98979101D01*
X156525000Y-98941410D01*
X155975000Y-98941410D01*
X155975000Y-99931410D01*
X155475000Y-99931410D01*
X155475000Y-98441410D01*
X155975000Y-98441410D01*
X156525000Y-98441410D01*
X156525000Y-98403718D01*
X156524999Y-98403714D01*
X156510201Y-98291307D01*
X156452262Y-98151428D01*
X156360096Y-98031317D01*
X156360092Y-98031313D01*
X156239981Y-97939147D01*
X156100102Y-97881208D01*
X155987695Y-97866410D01*
X155975000Y-97866410D01*
X155975000Y-98441410D01*
X155475000Y-98441410D01*
X155475000Y-97866410D01*
X155462304Y-97866410D01*
X155349897Y-97881208D01*
X155210018Y-97939147D01*
X155089907Y-98031313D01*
X155089902Y-98031318D01*
X155018795Y-98123985D01*
X154957605Y-98170937D01*
X154881137Y-98181003D01*
X154809880Y-98151486D01*
X154787981Y-98130853D01*
X154748355Y-98085122D01*
X154748337Y-98085103D01*
X154730753Y-98067156D01*
X154666683Y-98031318D01*
X154650937Y-98022510D01*
X154650935Y-98022509D01*
X154624716Y-98014810D01*
X154583898Y-98002825D01*
X154583893Y-98002824D01*
X154583889Y-98002823D01*
X154526008Y-97994500D01*
X154526000Y-97994500D01*
X153824000Y-97994500D01*
X153823986Y-97994500D01*
X153780323Y-97999195D01*
X153728775Y-98010409D01*
X153718634Y-98012887D01*
X153718623Y-98012891D01*
X153637914Y-98055900D01*
X153585119Y-98101647D01*
X153585103Y-98101662D01*
X153567156Y-98119246D01*
X153522510Y-98199063D01*
X153522509Y-98199064D01*
X153502823Y-98266110D01*
X153494500Y-98323991D01*
X151569582Y-98323991D01*
X151569582Y-94458969D01*
X151589544Y-94384469D01*
X151644082Y-94329931D01*
X151718582Y-94309969D01*
X151760556Y-94316004D01*
X151878039Y-94350500D01*
X151878041Y-94350500D01*
X152021959Y-94350500D01*
X152021961Y-94350500D01*
X152160053Y-94309953D01*
X152281128Y-94232143D01*
X152311643Y-94196927D01*
X152375516Y-94153695D01*
X152424250Y-94145500D01*
X153538901Y-94145500D01*
X153538904Y-94145500D01*
X153576481Y-94135431D01*
X153614059Y-94125362D01*
X153681441Y-94086459D01*
X153736459Y-94031441D01*
X157186459Y-90581441D01*
X157225362Y-90514059D01*
X157245500Y-90438903D01*
X157245500Y-84634118D01*
X157265462Y-84559618D01*
X157289141Y-84528759D01*
X157395141Y-84422759D01*
X157461936Y-84384195D01*
X157539064Y-84384195D01*
X157605859Y-84422759D01*
X157644423Y-84489554D01*
X157649500Y-84528118D01*
X157649500Y-84754275D01*
X157652353Y-84784695D01*
X157697207Y-84912883D01*
X157777848Y-85022148D01*
X157777851Y-85022151D01*
X157883488Y-85100115D01*
X157931577Y-85160416D01*
X157943072Y-85236683D01*
X157914894Y-85308479D01*
X157883488Y-85339885D01*
X157777851Y-85417848D01*
X157777848Y-85417851D01*
X157697207Y-85527116D01*
X157652353Y-85655304D01*
X157649500Y-85685724D01*
X157649500Y-87294275D01*
X157652353Y-87324695D01*
X157697207Y-87452883D01*
X157777848Y-87562148D01*
X157777851Y-87562151D01*
X157883488Y-87640115D01*
X157931577Y-87700416D01*
X157943072Y-87776683D01*
X157914894Y-87848479D01*
X157883488Y-87879885D01*
X157777851Y-87957848D01*
X157777848Y-87957851D01*
X157697207Y-88067116D01*
X157652353Y-88195304D01*
X157649500Y-88225724D01*
X157649500Y-89834275D01*
X157652353Y-89864695D01*
X157697207Y-89992883D01*
X157777848Y-90102148D01*
X157777851Y-90102151D01*
X157883488Y-90180115D01*
X157931577Y-90240416D01*
X157943072Y-90316683D01*
X157914894Y-90388479D01*
X157883488Y-90419885D01*
X157777851Y-90497848D01*
X157777848Y-90497851D01*
X157697207Y-90607116D01*
X157652353Y-90735304D01*
X157649500Y-90765724D01*
X157649500Y-92374275D01*
X157652353Y-92404695D01*
X157697207Y-92532883D01*
X157777848Y-92642148D01*
X157777851Y-92642151D01*
X157883488Y-92720115D01*
X157931577Y-92780416D01*
X157943072Y-92856683D01*
X157914894Y-92928479D01*
X157883488Y-92959885D01*
X157777851Y-93037848D01*
X157777848Y-93037851D01*
X157697207Y-93147116D01*
X157652353Y-93275304D01*
X157649500Y-93305724D01*
X157649500Y-94914275D01*
X157652353Y-94944695D01*
X157697207Y-95072883D01*
X157777848Y-95182148D01*
X157777851Y-95182151D01*
X157883488Y-95260115D01*
X157931577Y-95320416D01*
X157943072Y-95396683D01*
X157914894Y-95468479D01*
X157883488Y-95499885D01*
X157777851Y-95577848D01*
X157777848Y-95577851D01*
X157697207Y-95687116D01*
X157652353Y-95815304D01*
X157649500Y-95845724D01*
X157649500Y-97454275D01*
X157652353Y-97484695D01*
X157652353Y-97484697D01*
X157652354Y-97484699D01*
X157663303Y-97515989D01*
X157697207Y-97612883D01*
X157777848Y-97722148D01*
X157777851Y-97722151D01*
X157883488Y-97800115D01*
X157931577Y-97860416D01*
X157943072Y-97936683D01*
X157914894Y-98008479D01*
X157883488Y-98039885D01*
X157777851Y-98117848D01*
X157777848Y-98117851D01*
X157697207Y-98227116D01*
X157652353Y-98355304D01*
X157649500Y-98385724D01*
X157649500Y-99994275D01*
X157652353Y-100024695D01*
X157697207Y-100152883D01*
X157784480Y-100271134D01*
X157782870Y-100272322D01*
X157814397Y-100326928D01*
X157814397Y-100404056D01*
X157775833Y-100470851D01*
X157761181Y-100483701D01*
X157672074Y-100552076D01*
X157672073Y-100552077D01*
X157575900Y-100677410D01*
X157515442Y-100823371D01*
X157500000Y-100940671D01*
X157500000Y-101480000D01*
X161199999Y-101480000D01*
X161199999Y-100940679D01*
X161199998Y-100940671D01*
X161184556Y-100823370D01*
X161184556Y-100823368D01*
X161124099Y-100677410D01*
X161027926Y-100552077D01*
X161027922Y-100552073D01*
X160938819Y-100483701D01*
X160891867Y-100422511D01*
X160881800Y-100346043D01*
X160911316Y-100274786D01*
X160920835Y-100263931D01*
X160922148Y-100262150D01*
X160922150Y-100262150D01*
X161002793Y-100152882D01*
X161047646Y-100024699D01*
X161050500Y-99994266D01*
X161050500Y-99639500D01*
X161070462Y-99565000D01*
X161125000Y-99510462D01*
X161199500Y-99490500D01*
X162453811Y-99490500D01*
X162528311Y-99510462D01*
X162559170Y-99534141D01*
X164670950Y-101645921D01*
X164726899Y-101701870D01*
X164795421Y-101741431D01*
X164871848Y-101761910D01*
X174180082Y-101761910D01*
X174254582Y-101781872D01*
X174292688Y-101813335D01*
X174318872Y-101843553D01*
X174439947Y-101921363D01*
X174578039Y-101961910D01*
X174578041Y-101961910D01*
X174721959Y-101961910D01*
X174721961Y-101961910D01*
X174860053Y-101921363D01*
X174919948Y-101882870D01*
X174993410Y-101859388D01*
X175068775Y-101875782D01*
X175125847Y-101927663D01*
X175149331Y-102001129D01*
X175149500Y-102008219D01*
X175149500Y-102534275D01*
X175152353Y-102564695D01*
X175197207Y-102692883D01*
X175277848Y-102802148D01*
X175277851Y-102802151D01*
X175383488Y-102880115D01*
X175431577Y-102940416D01*
X175443072Y-103016683D01*
X175414894Y-103088479D01*
X175383488Y-103119885D01*
X175277851Y-103197848D01*
X175277848Y-103197851D01*
X175197207Y-103307116D01*
X175152353Y-103435304D01*
X175149500Y-103465724D01*
X175149500Y-105074275D01*
X175152353Y-105104695D01*
X175197207Y-105232883D01*
X175284480Y-105351134D01*
X175282870Y-105352322D01*
X175314397Y-105406928D01*
X175314397Y-105484056D01*
X175275833Y-105550851D01*
X175261181Y-105563701D01*
X175172074Y-105632076D01*
X175172073Y-105632077D01*
X175075900Y-105757410D01*
X175015442Y-105903371D01*
X175000000Y-106020671D01*
X175000000Y-106560000D01*
X178699999Y-106560000D01*
X178699999Y-106020679D01*
X178699998Y-106020671D01*
X178684556Y-105903370D01*
X178684556Y-105903368D01*
X178624099Y-105757410D01*
X178527926Y-105632077D01*
X178527922Y-105632073D01*
X178438819Y-105563701D01*
X178391867Y-105502511D01*
X178381800Y-105426043D01*
X178411316Y-105354786D01*
X178420835Y-105343931D01*
X178422148Y-105342150D01*
X178422150Y-105342150D01*
X178502793Y-105232882D01*
X178547646Y-105104699D01*
X178550500Y-105074266D01*
X178550500Y-103465734D01*
X178547646Y-103435301D01*
X178502793Y-103307118D01*
X178422150Y-103197850D01*
X178422148Y-103197848D01*
X178316511Y-103119885D01*
X178268422Y-103059584D01*
X178256927Y-102983318D01*
X178285105Y-102911521D01*
X178316511Y-102880115D01*
X178358074Y-102849439D01*
X178422150Y-102802150D01*
X178502793Y-102692882D01*
X178547646Y-102564699D01*
X178550500Y-102534266D01*
X178550500Y-100925734D01*
X178547646Y-100895301D01*
X178502793Y-100767118D01*
X178422150Y-100657850D01*
X178422148Y-100657848D01*
X178316511Y-100579885D01*
X178268422Y-100519584D01*
X178256927Y-100443318D01*
X178285105Y-100371521D01*
X178316511Y-100340115D01*
X178358074Y-100309439D01*
X178422150Y-100262150D01*
X178502793Y-100152882D01*
X178547646Y-100024699D01*
X178550500Y-99994266D01*
X178550500Y-98385734D01*
X178547646Y-98355301D01*
X178502793Y-98227118D01*
X178496526Y-98218627D01*
X178422151Y-98117851D01*
X178422148Y-98117848D01*
X178316511Y-98039885D01*
X178268422Y-97979584D01*
X178256927Y-97903318D01*
X178285105Y-97831521D01*
X178316511Y-97800115D01*
X178358074Y-97769439D01*
X178422150Y-97722150D01*
X178502793Y-97612882D01*
X178547646Y-97484699D01*
X178550500Y-97454266D01*
X178550500Y-95845734D01*
X178547646Y-95815301D01*
X178502793Y-95687118D01*
X178498152Y-95680830D01*
X178422151Y-95577851D01*
X178422148Y-95577848D01*
X178316511Y-95499885D01*
X178268422Y-95439584D01*
X178256927Y-95363318D01*
X178285105Y-95291521D01*
X178316511Y-95260115D01*
X178358074Y-95229439D01*
X178422150Y-95182150D01*
X178502793Y-95072882D01*
X178547646Y-94944699D01*
X178550500Y-94914266D01*
X178550500Y-93305734D01*
X178547646Y-93275301D01*
X178502793Y-93147118D01*
X178441703Y-93064344D01*
X178422151Y-93037851D01*
X178422148Y-93037848D01*
X178316511Y-92959885D01*
X178268422Y-92899584D01*
X178256927Y-92823318D01*
X178285105Y-92751521D01*
X178316511Y-92720115D01*
X178372287Y-92678950D01*
X178422150Y-92642150D01*
X178502793Y-92532882D01*
X178547646Y-92404699D01*
X178550500Y-92374266D01*
X178550500Y-90765734D01*
X178547646Y-90735301D01*
X178502793Y-90607118D01*
X178422150Y-90497850D01*
X178422148Y-90497848D01*
X178316511Y-90419885D01*
X178268422Y-90359584D01*
X178256927Y-90283318D01*
X178285105Y-90211521D01*
X178316511Y-90180115D01*
X178358074Y-90149439D01*
X178422150Y-90102150D01*
X178502793Y-89992882D01*
X178547646Y-89864699D01*
X178550500Y-89834266D01*
X178550500Y-88225734D01*
X178547646Y-88195301D01*
X178502793Y-88067118D01*
X178422150Y-87957850D01*
X178422148Y-87957848D01*
X178316511Y-87879885D01*
X178268422Y-87819584D01*
X178256927Y-87743318D01*
X178285105Y-87671521D01*
X178316511Y-87640115D01*
X178396839Y-87580830D01*
X178422150Y-87562150D01*
X178502793Y-87452882D01*
X178547646Y-87324699D01*
X178550500Y-87294266D01*
X178550500Y-85685734D01*
X178547646Y-85655301D01*
X178502793Y-85527118D01*
X178422150Y-85417850D01*
X178422148Y-85417848D01*
X178316511Y-85339885D01*
X178268422Y-85279584D01*
X178256927Y-85203318D01*
X178285105Y-85131521D01*
X178316511Y-85100115D01*
X178358074Y-85069439D01*
X178422150Y-85022150D01*
X178502793Y-84912882D01*
X178547646Y-84784699D01*
X178550500Y-84754266D01*
X178550500Y-83145734D01*
X178547646Y-83115301D01*
X178502793Y-82987118D01*
X178422150Y-82877850D01*
X178422148Y-82877848D01*
X178316511Y-82799885D01*
X178268422Y-82739584D01*
X178256927Y-82663318D01*
X178285105Y-82591521D01*
X178316511Y-82560115D01*
X178358074Y-82529439D01*
X178422150Y-82482150D01*
X178502793Y-82372882D01*
X178547646Y-82244699D01*
X178550500Y-82214266D01*
X178550500Y-80605734D01*
X178547646Y-80575301D01*
X178502793Y-80447118D01*
X178422150Y-80337850D01*
X178422148Y-80337848D01*
X178312883Y-80257207D01*
X178253042Y-80236268D01*
X178184699Y-80212354D01*
X178184697Y-80212353D01*
X178184695Y-80212353D01*
X178154275Y-80209500D01*
X178154266Y-80209500D01*
X175545734Y-80209500D01*
X175545724Y-80209500D01*
X175515304Y-80212353D01*
X175387116Y-80257207D01*
X175277851Y-80337848D01*
X175277848Y-80337851D01*
X175197207Y-80447116D01*
X175152353Y-80575304D01*
X175149500Y-80605724D01*
X175149500Y-82214275D01*
X175152353Y-82244695D01*
X175197207Y-82372883D01*
X175277848Y-82482148D01*
X175277851Y-82482151D01*
X175383488Y-82560115D01*
X175431577Y-82620416D01*
X175443072Y-82696683D01*
X175414894Y-82768479D01*
X175383488Y-82799885D01*
X175277851Y-82877848D01*
X175277848Y-82877851D01*
X175197207Y-82987116D01*
X175152353Y-83115304D01*
X175149500Y-83145724D01*
X175149500Y-83500500D01*
X175129538Y-83575000D01*
X175075000Y-83629538D01*
X175000500Y-83649500D01*
X174410435Y-83649500D01*
X174349001Y-83665961D01*
X174334012Y-83669978D01*
X174334011Y-83669978D01*
X174334009Y-83669979D01*
X174265492Y-83709537D01*
X171865489Y-86109540D01*
X171809539Y-86165489D01*
X171777517Y-86220953D01*
X171722979Y-86275490D01*
X171648479Y-86295452D01*
X171573979Y-86275489D01*
X171519442Y-86220951D01*
X171500997Y-86167656D01*
X171485166Y-86057545D01*
X171425377Y-85926628D01*
X171425377Y-85926627D01*
X171331128Y-85817857D01*
X171331127Y-85817856D01*
X171297465Y-85796223D01*
X171210053Y-85740047D01*
X171210050Y-85740046D01*
X171071967Y-85699501D01*
X171071962Y-85699500D01*
X171071961Y-85699500D01*
X170928039Y-85699500D01*
X170928037Y-85699500D01*
X170928032Y-85699501D01*
X170789949Y-85740046D01*
X170668872Y-85817856D01*
X170668870Y-85817859D01*
X170574622Y-85926628D01*
X170514834Y-86057545D01*
X170513517Y-86066706D01*
X170483155Y-86137606D01*
X170421411Y-86183827D01*
X170366034Y-86194500D01*
X161199500Y-86194500D01*
X161125000Y-86174538D01*
X161070462Y-86120000D01*
X161050500Y-86045500D01*
X161050500Y-85685741D01*
X161050499Y-85685724D01*
X161047646Y-85655304D01*
X161047646Y-85655301D01*
X161002793Y-85527118D01*
X160922150Y-85417850D01*
X160922148Y-85417848D01*
X160816511Y-85339885D01*
X160768422Y-85279584D01*
X160756927Y-85203318D01*
X160785105Y-85131521D01*
X160816511Y-85100115D01*
X160858074Y-85069439D01*
X160922150Y-85022150D01*
X161002793Y-84912882D01*
X161047646Y-84784699D01*
X161050500Y-84754266D01*
X161050500Y-83145734D01*
X161047646Y-83115301D01*
X161002793Y-82987118D01*
X160922150Y-82877850D01*
X160922148Y-82877848D01*
X160816511Y-82799885D01*
X160768422Y-82739584D01*
X160756927Y-82663318D01*
X160785105Y-82591521D01*
X160816511Y-82560115D01*
X160858074Y-82529439D01*
X160922150Y-82482150D01*
X161002793Y-82372882D01*
X161047646Y-82244699D01*
X161050500Y-82214266D01*
X161050500Y-80605734D01*
X161047646Y-80575301D01*
X161002793Y-80447118D01*
X160922150Y-80337850D01*
X160922148Y-80337848D01*
X160812883Y-80257207D01*
X160753042Y-80236268D01*
X160684699Y-80212354D01*
X160684697Y-80212353D01*
X160684695Y-80212353D01*
X160654275Y-80209500D01*
X160654266Y-80209500D01*
X158045734Y-80209500D01*
X158045724Y-80209500D01*
X158015304Y-80212353D01*
X157887116Y-80257207D01*
X157777851Y-80337848D01*
X157777848Y-80337851D01*
X157697207Y-80447116D01*
X157652353Y-80575304D01*
X157649500Y-80605724D01*
X157649500Y-80960500D01*
X157629538Y-81035000D01*
X157575000Y-81089538D01*
X157500500Y-81109500D01*
X157350435Y-81109500D01*
X157289001Y-81125961D01*
X157274012Y-81129978D01*
X157274011Y-81129978D01*
X157274009Y-81129979D01*
X157205492Y-81169537D01*
X156115489Y-82259540D01*
X156059540Y-82315488D01*
X156019979Y-82384011D01*
X155999500Y-82460437D01*
X155999500Y-89713811D01*
X155979538Y-89788311D01*
X155955859Y-89819170D01*
X154817760Y-90957269D01*
X154750965Y-90995833D01*
X154712401Y-91000910D01*
X152421328Y-91000910D01*
X152346828Y-90980948D01*
X152308721Y-90949484D01*
X152282538Y-90919267D01*
X152282537Y-90919266D01*
X152248875Y-90897633D01*
X152161463Y-90841457D01*
X152161460Y-90841456D01*
X152023377Y-90800911D01*
X152023372Y-90800910D01*
X152023371Y-90800910D01*
X151879449Y-90800910D01*
X151879448Y-90800910D01*
X151832137Y-90814801D01*
X151760558Y-90835819D01*
X151683454Y-90837654D01*
X151615760Y-90800690D01*
X151575617Y-90734832D01*
X151569582Y-90692854D01*
X151569582Y-61869500D01*
X151589544Y-61795000D01*
X151644082Y-61740462D01*
X151718582Y-61720500D01*
X164290713Y-61720500D01*
X164365213Y-61740462D01*
G37*
%TD.AperFunction*%
%TA.AperFunction,Conductor*%
G36*
X169058311Y-91890462D02*
G01*
X169089170Y-91914141D01*
X172855859Y-95680830D01*
X172894423Y-95747625D01*
X172899500Y-95786189D01*
X172899500Y-97439562D01*
X172919979Y-97515989D01*
X172959540Y-97584511D01*
X174110731Y-98735702D01*
X174149295Y-98802497D01*
X174152856Y-98862263D01*
X174144353Y-98921410D01*
X174144353Y-98921413D01*
X174164834Y-99063864D01*
X174164834Y-99063865D01*
X174164835Y-99063867D01*
X174224623Y-99194783D01*
X174318872Y-99303553D01*
X174439947Y-99381363D01*
X174578039Y-99421910D01*
X174578041Y-99421910D01*
X174721959Y-99421910D01*
X174721961Y-99421910D01*
X174860053Y-99381363D01*
X174919948Y-99342870D01*
X174993410Y-99319388D01*
X175068775Y-99335782D01*
X175125847Y-99387663D01*
X175149331Y-99461129D01*
X175149500Y-99468219D01*
X175149500Y-99994275D01*
X175152353Y-100024695D01*
X175197207Y-100152883D01*
X175277848Y-100262148D01*
X175277851Y-100262151D01*
X175383488Y-100340115D01*
X175431577Y-100400416D01*
X175443072Y-100476683D01*
X175414894Y-100548479D01*
X175383488Y-100579885D01*
X175277851Y-100657848D01*
X175277848Y-100657851D01*
X175197207Y-100767116D01*
X175152353Y-100895304D01*
X175149217Y-100928748D01*
X175122387Y-101001059D01*
X175062995Y-101050267D01*
X174986957Y-101063186D01*
X174920314Y-101040184D01*
X174860053Y-101001457D01*
X174858698Y-101001059D01*
X174721967Y-100960911D01*
X174721962Y-100960910D01*
X174721961Y-100960910D01*
X174578039Y-100960910D01*
X174578037Y-100960910D01*
X174578032Y-100960911D01*
X174439949Y-101001456D01*
X174318872Y-101079266D01*
X174318870Y-101079269D01*
X174292689Y-101109484D01*
X174228815Y-101152715D01*
X174180082Y-101160910D01*
X165097599Y-101160910D01*
X165023099Y-101140948D01*
X164992240Y-101117269D01*
X162824511Y-98949540D01*
X162824328Y-98949434D01*
X162824328Y-98949433D01*
X162755990Y-98909979D01*
X162679562Y-98889500D01*
X161199500Y-98889500D01*
X161125000Y-98869538D01*
X161070462Y-98815000D01*
X161050500Y-98740500D01*
X161050500Y-98385741D01*
X161050499Y-98385724D01*
X161047646Y-98355304D01*
X161047646Y-98355301D01*
X161002793Y-98227118D01*
X160996526Y-98218627D01*
X160922151Y-98117851D01*
X160922148Y-98117848D01*
X160816511Y-98039885D01*
X160768422Y-97979584D01*
X160756927Y-97903318D01*
X160785105Y-97831521D01*
X160816511Y-97800115D01*
X160858074Y-97769439D01*
X160922150Y-97722150D01*
X161002793Y-97612882D01*
X161047646Y-97484699D01*
X161050500Y-97454266D01*
X161050500Y-95845734D01*
X161047646Y-95815301D01*
X161002793Y-95687118D01*
X160998152Y-95680830D01*
X160922151Y-95577851D01*
X160922148Y-95577848D01*
X160816511Y-95499885D01*
X160768422Y-95439584D01*
X160756927Y-95363318D01*
X160785105Y-95291521D01*
X160816511Y-95260115D01*
X160858074Y-95229439D01*
X160922150Y-95182150D01*
X161002793Y-95072882D01*
X161047646Y-94944699D01*
X161050500Y-94914266D01*
X161050500Y-94559500D01*
X161070462Y-94485000D01*
X161125000Y-94430462D01*
X161199500Y-94410500D01*
X162248811Y-94410500D01*
X162323311Y-94430462D01*
X162354170Y-94454141D01*
X164465950Y-96565921D01*
X164521899Y-96621870D01*
X164590421Y-96661431D01*
X164666848Y-96681910D01*
X171580082Y-96681910D01*
X171654582Y-96701872D01*
X171692688Y-96733335D01*
X171718872Y-96763553D01*
X171839947Y-96841363D01*
X171978039Y-96881910D01*
X171978041Y-96881910D01*
X172121959Y-96881910D01*
X172121961Y-96881910D01*
X172260053Y-96841363D01*
X172381128Y-96763553D01*
X172475377Y-96654783D01*
X172535165Y-96523867D01*
X172555647Y-96381410D01*
X172555647Y-96381406D01*
X172535165Y-96238955D01*
X172535165Y-96238953D01*
X172475377Y-96108037D01*
X172381128Y-95999267D01*
X172381127Y-95999266D01*
X172347465Y-95977633D01*
X172260053Y-95921457D01*
X172260050Y-95921456D01*
X172121967Y-95880911D01*
X172121962Y-95880910D01*
X172121961Y-95880910D01*
X171978039Y-95880910D01*
X171978037Y-95880910D01*
X171978032Y-95880911D01*
X171839949Y-95921456D01*
X171718872Y-95999266D01*
X171718870Y-95999269D01*
X171692689Y-96029484D01*
X171628815Y-96072715D01*
X171580082Y-96080910D01*
X164892599Y-96080910D01*
X164818099Y-96060948D01*
X164787240Y-96037269D01*
X162619511Y-93869540D01*
X162550989Y-93829979D01*
X162474562Y-93809500D01*
X161199500Y-93809500D01*
X161125000Y-93789538D01*
X161070462Y-93735000D01*
X161050500Y-93660500D01*
X161050500Y-93305741D01*
X161050499Y-93305724D01*
X161047646Y-93275304D01*
X161047646Y-93275301D01*
X161002793Y-93147118D01*
X160941703Y-93064344D01*
X160922151Y-93037851D01*
X160922148Y-93037848D01*
X160816511Y-92959885D01*
X160768422Y-92899584D01*
X160756927Y-92823318D01*
X160785105Y-92751521D01*
X160816511Y-92720115D01*
X160872287Y-92678950D01*
X160922150Y-92642150D01*
X161002793Y-92532882D01*
X161047646Y-92404699D01*
X161050500Y-92374266D01*
X161050500Y-92019500D01*
X161070462Y-91945000D01*
X161125000Y-91890462D01*
X161199500Y-91870500D01*
X168983811Y-91870500D01*
X169058311Y-91890462D01*
G37*
%TD.AperFunction*%
%TA.AperFunction,Conductor*%
G36*
X175075000Y-84270462D02*
G01*
X175129538Y-84325000D01*
X175149500Y-84399500D01*
X175149500Y-84754275D01*
X175152353Y-84784695D01*
X175197207Y-84912883D01*
X175277848Y-85022148D01*
X175277851Y-85022151D01*
X175383488Y-85100115D01*
X175431577Y-85160416D01*
X175443072Y-85236683D01*
X175414894Y-85308479D01*
X175383488Y-85339885D01*
X175277851Y-85417848D01*
X175277848Y-85417851D01*
X175197207Y-85527116D01*
X175152353Y-85655304D01*
X175149500Y-85685724D01*
X175149500Y-86040500D01*
X175129538Y-86115000D01*
X175075000Y-86169538D01*
X175000500Y-86189500D01*
X174370435Y-86189500D01*
X174309001Y-86205961D01*
X174294012Y-86209978D01*
X174294011Y-86209978D01*
X174294009Y-86209979D01*
X174225492Y-86249537D01*
X173215489Y-87259540D01*
X173159540Y-87315488D01*
X173119979Y-87384011D01*
X173101525Y-87452882D01*
X173099500Y-87460438D01*
X173099500Y-91839562D01*
X173119979Y-91915989D01*
X173159540Y-91984511D01*
X174126755Y-92951726D01*
X174165319Y-93018521D01*
X174168051Y-93064344D01*
X174169353Y-93064344D01*
X174169353Y-93075003D01*
X174189834Y-93217454D01*
X174189834Y-93217455D01*
X174189835Y-93217457D01*
X174249623Y-93348373D01*
X174343872Y-93457143D01*
X174464947Y-93534953D01*
X174603039Y-93575500D01*
X174603041Y-93575500D01*
X174746959Y-93575500D01*
X174746961Y-93575500D01*
X174885053Y-93534953D01*
X174919947Y-93512527D01*
X174993408Y-93489044D01*
X175068774Y-93505438D01*
X175125846Y-93557318D01*
X175149331Y-93630783D01*
X175149500Y-93637875D01*
X175149500Y-94914275D01*
X175152353Y-94944695D01*
X175197207Y-95072883D01*
X175277848Y-95182148D01*
X175277851Y-95182151D01*
X175383488Y-95260115D01*
X175431577Y-95320416D01*
X175443072Y-95396683D01*
X175414894Y-95468479D01*
X175383488Y-95499885D01*
X175277851Y-95577848D01*
X175277848Y-95577851D01*
X175197207Y-95687116D01*
X175152353Y-95815304D01*
X175149500Y-95845724D01*
X175149500Y-97454275D01*
X175152353Y-97484695D01*
X175152353Y-97484697D01*
X175152354Y-97484699D01*
X175163303Y-97515989D01*
X175197207Y-97612883D01*
X175277848Y-97722148D01*
X175277851Y-97722151D01*
X175383488Y-97800115D01*
X175431577Y-97860416D01*
X175443072Y-97936683D01*
X175414894Y-98008479D01*
X175383488Y-98039885D01*
X175277851Y-98117848D01*
X175277848Y-98117851D01*
X175197207Y-98227116D01*
X175152353Y-98355304D01*
X175149217Y-98388748D01*
X175122387Y-98461059D01*
X175062995Y-98510267D01*
X174986957Y-98523186D01*
X174920314Y-98500184D01*
X174860053Y-98461457D01*
X174858698Y-98461059D01*
X174721967Y-98420911D01*
X174721962Y-98420910D01*
X174721961Y-98420910D01*
X174721959Y-98420910D01*
X174707599Y-98420910D01*
X174633099Y-98400948D01*
X174602240Y-98377269D01*
X173544141Y-97319170D01*
X173505577Y-97252375D01*
X173500500Y-97213811D01*
X173500500Y-95560439D01*
X173500499Y-95560435D01*
X173480022Y-95484012D01*
X173440460Y-95415489D01*
X169354511Y-91329540D01*
X169285989Y-91289979D01*
X169209562Y-91269500D01*
X161199500Y-91269500D01*
X161125000Y-91249538D01*
X161070462Y-91195000D01*
X161050500Y-91120500D01*
X161050500Y-90765741D01*
X161050499Y-90765724D01*
X161047646Y-90735304D01*
X161047646Y-90735301D01*
X161002793Y-90607118D01*
X160922150Y-90497850D01*
X160922148Y-90497848D01*
X160816511Y-90419885D01*
X160768422Y-90359584D01*
X160756927Y-90283318D01*
X160785105Y-90211521D01*
X160816511Y-90180115D01*
X160858074Y-90149439D01*
X160922150Y-90102150D01*
X161002793Y-89992882D01*
X161047646Y-89864699D01*
X161050500Y-89834266D01*
X161050500Y-88225734D01*
X161047646Y-88195301D01*
X161002793Y-88067118D01*
X160922150Y-87957850D01*
X160922148Y-87957848D01*
X160816511Y-87879885D01*
X160768422Y-87819584D01*
X160756927Y-87743318D01*
X160785105Y-87671521D01*
X160816511Y-87640115D01*
X160896839Y-87580830D01*
X160922150Y-87562150D01*
X161002793Y-87452882D01*
X161047646Y-87324699D01*
X161050500Y-87294266D01*
X161050500Y-86934500D01*
X161070462Y-86860000D01*
X161125000Y-86805462D01*
X161199500Y-86785500D01*
X170748901Y-86785500D01*
X170748904Y-86785500D01*
X170806671Y-86770021D01*
X170824059Y-86765362D01*
X170891441Y-86726459D01*
X170891442Y-86726457D01*
X170899898Y-86721576D01*
X170901575Y-86724480D01*
X170956427Y-86701771D01*
X170975850Y-86700500D01*
X171071959Y-86700500D01*
X171071961Y-86700500D01*
X171210053Y-86659953D01*
X171331128Y-86582143D01*
X171425377Y-86473373D01*
X171464965Y-86386687D01*
X171514072Y-86327213D01*
X171586337Y-86300260D01*
X171662397Y-86313050D01*
X171721872Y-86362157D01*
X171748825Y-86434422D01*
X171749500Y-86448585D01*
X171749500Y-90828346D01*
X171729538Y-90902846D01*
X171713108Y-90925919D01*
X171624622Y-91028038D01*
X171564834Y-91158955D01*
X171544353Y-91301406D01*
X171544353Y-91301413D01*
X171564834Y-91443864D01*
X171564834Y-91443865D01*
X171564835Y-91443867D01*
X171624623Y-91574783D01*
X171718872Y-91683553D01*
X171839947Y-91761363D01*
X171978039Y-91801910D01*
X171978041Y-91801910D01*
X172121959Y-91801910D01*
X172121961Y-91801910D01*
X172260053Y-91761363D01*
X172381128Y-91683553D01*
X172475377Y-91574783D01*
X172535165Y-91443867D01*
X172555647Y-91301410D01*
X172555647Y-91301406D01*
X172535165Y-91158955D01*
X172535165Y-91158953D01*
X172475377Y-91028037D01*
X172386892Y-90925919D01*
X172353192Y-90856543D01*
X172350500Y-90828346D01*
X172350500Y-86536189D01*
X172370462Y-86461689D01*
X172394141Y-86430830D01*
X174530830Y-84294141D01*
X174597625Y-84255577D01*
X174636189Y-84250500D01*
X175000500Y-84250500D01*
X175075000Y-84270462D01*
G37*
%TD.AperFunction*%
%TA.AperFunction,Conductor*%
G36*
X154948054Y-91602338D02*
G01*
X155013677Y-91602334D01*
X155080474Y-91640893D01*
X155119042Y-91707686D01*
X155119047Y-91784814D01*
X155080488Y-91851611D01*
X155080481Y-91851618D01*
X153421241Y-93510859D01*
X153354446Y-93549423D01*
X153315882Y-93554500D01*
X152424250Y-93554500D01*
X152349750Y-93534538D01*
X152311643Y-93503073D01*
X152281133Y-93467862D01*
X152281127Y-93467856D01*
X152247465Y-93446223D01*
X152160053Y-93390047D01*
X152160050Y-93390046D01*
X152021967Y-93349501D01*
X152021962Y-93349500D01*
X152021961Y-93349500D01*
X151878039Y-93349500D01*
X151878038Y-93349500D01*
X151831824Y-93363069D01*
X151760558Y-93383995D01*
X151683454Y-93385830D01*
X151615760Y-93348866D01*
X151575617Y-93283008D01*
X151569582Y-93241030D01*
X151569582Y-91909965D01*
X151589544Y-91835465D01*
X151644082Y-91780927D01*
X151718582Y-91760965D01*
X151760556Y-91767000D01*
X151879449Y-91801910D01*
X151879451Y-91801910D01*
X152023369Y-91801910D01*
X152023371Y-91801910D01*
X152161463Y-91761363D01*
X152282538Y-91683553D01*
X152308721Y-91653335D01*
X152372595Y-91610105D01*
X152421328Y-91601910D01*
X154938147Y-91601910D01*
X154938152Y-91601910D01*
X154938156Y-91601908D01*
X154947830Y-91600635D01*
X154948054Y-91602338D01*
G37*
%TD.AperFunction*%
%TA.AperFunction,Conductor*%
G36*
X175075000Y-86810462D02*
G01*
X175129538Y-86865000D01*
X175149500Y-86939500D01*
X175149500Y-87294275D01*
X175152353Y-87324695D01*
X175197207Y-87452883D01*
X175277848Y-87562148D01*
X175277851Y-87562151D01*
X175383488Y-87640115D01*
X175431577Y-87700416D01*
X175443072Y-87776683D01*
X175414894Y-87848479D01*
X175383488Y-87879885D01*
X175277851Y-87957848D01*
X175277848Y-87957851D01*
X175197207Y-88067116D01*
X175152353Y-88195304D01*
X175149500Y-88225724D01*
X175149500Y-88521057D01*
X175129538Y-88595557D01*
X175075000Y-88650095D01*
X175000500Y-88670057D01*
X174926000Y-88650095D01*
X174919948Y-88646406D01*
X174910051Y-88640046D01*
X174771967Y-88599501D01*
X174771962Y-88599500D01*
X174771961Y-88599500D01*
X174628039Y-88599500D01*
X174628037Y-88599500D01*
X174628032Y-88599501D01*
X174489949Y-88640046D01*
X174368872Y-88717856D01*
X174368870Y-88717859D01*
X174274622Y-88826628D01*
X174214834Y-88957545D01*
X174194353Y-89099996D01*
X174194353Y-89100003D01*
X174214834Y-89242454D01*
X174214834Y-89242455D01*
X174214835Y-89242457D01*
X174274623Y-89373373D01*
X174368872Y-89482143D01*
X174489947Y-89559953D01*
X174628039Y-89600500D01*
X174628041Y-89600500D01*
X174771959Y-89600500D01*
X174771961Y-89600500D01*
X174910053Y-89559953D01*
X174919946Y-89553594D01*
X174993408Y-89530111D01*
X175068774Y-89546505D01*
X175125846Y-89598385D01*
X175149331Y-89671850D01*
X175149500Y-89678942D01*
X175149500Y-89834275D01*
X175152353Y-89864695D01*
X175197207Y-89992883D01*
X175277848Y-90102148D01*
X175277851Y-90102151D01*
X175383488Y-90180115D01*
X175431577Y-90240416D01*
X175443072Y-90316683D01*
X175414894Y-90388479D01*
X175383488Y-90419885D01*
X175277851Y-90497848D01*
X175277848Y-90497851D01*
X175197207Y-90607116D01*
X175152353Y-90735304D01*
X175149500Y-90765724D01*
X175149500Y-92374275D01*
X175152353Y-92404695D01*
X175181887Y-92489100D01*
X175187650Y-92566012D01*
X175154185Y-92635502D01*
X175090459Y-92678950D01*
X175013547Y-92684713D01*
X174960693Y-92663658D01*
X174885053Y-92615047D01*
X174885050Y-92615046D01*
X174746967Y-92574501D01*
X174746962Y-92574500D01*
X174746961Y-92574500D01*
X174661189Y-92574500D01*
X174586689Y-92554538D01*
X174555830Y-92530859D01*
X173744141Y-91719170D01*
X173705577Y-91652375D01*
X173700500Y-91613811D01*
X173700500Y-87686189D01*
X173720462Y-87611689D01*
X173744141Y-87580830D01*
X174490830Y-86834141D01*
X174557625Y-86795577D01*
X174596189Y-86790500D01*
X175000500Y-86790500D01*
X175075000Y-86810462D01*
G37*
%TD.AperFunction*%
%TA.AperFunction,Conductor*%
G36*
X157605859Y-81829830D02*
G01*
X157644423Y-81896625D01*
X157649500Y-81935189D01*
X157649500Y-82214275D01*
X157652353Y-82244695D01*
X157697207Y-82372883D01*
X157777848Y-82482148D01*
X157777851Y-82482151D01*
X157883488Y-82560115D01*
X157931577Y-82620416D01*
X157943072Y-82696683D01*
X157914894Y-82768479D01*
X157883488Y-82799885D01*
X157777851Y-82877848D01*
X157777848Y-82877851D01*
X157697207Y-82987116D01*
X157652353Y-83115304D01*
X157649500Y-83145724D01*
X157649500Y-83505500D01*
X157629538Y-83580000D01*
X157575000Y-83634538D01*
X157500500Y-83654500D01*
X157411097Y-83654500D01*
X157335939Y-83674638D01*
X157275490Y-83709538D01*
X157275491Y-83709539D01*
X157268558Y-83713541D01*
X156854859Y-84127241D01*
X156788064Y-84165805D01*
X156710936Y-84165805D01*
X156644141Y-84127241D01*
X156605577Y-84060446D01*
X156600500Y-84021882D01*
X156600500Y-82686189D01*
X156620462Y-82611689D01*
X156644141Y-82580830D01*
X157395141Y-81829830D01*
X157461936Y-81791266D01*
X157539064Y-81791266D01*
X157605859Y-81829830D01*
G37*
%TD.AperFunction*%
%TD*%
%TA.AperFunction,Conductor*%
%TO.N,VBUS*%
G36*
X154593039Y-98219685D02*
G01*
X154638794Y-98272489D01*
X154650000Y-98324000D01*
X154650000Y-102076000D01*
X154630315Y-102143039D01*
X154577511Y-102188794D01*
X154526000Y-102200000D01*
X153824000Y-102200000D01*
X153756961Y-102180315D01*
X153711206Y-102127511D01*
X153700000Y-102076000D01*
X153700000Y-98324000D01*
X153719685Y-98256961D01*
X153772489Y-98211206D01*
X153824000Y-98200000D01*
X154526000Y-98200000D01*
X154593039Y-98219685D01*
G37*
%TD.AperFunction*%
%TD*%
M02*
