%TF.GenerationSoftware,KiCad,Pcbnew,8.0.5*%
%TF.CreationDate,2024-10-25T02:08:45-07:00*%
%TF.ProjectId,ChungRF,4368756e-6752-4462-9e6b-696361645f70,R3*%
%TF.SameCoordinates,Original*%
%TF.FileFunction,Copper,L1,Top*%
%TF.FilePolarity,Positive*%
%FSLAX46Y46*%
G04 Gerber Fmt 4.6, Leading zero omitted, Abs format (unit mm)*
G04 Created by KiCad (PCBNEW 8.0.5) date 2024-10-25 02:08:45*
%MOMM*%
%LPD*%
G01*
G04 APERTURE LIST*
G04 Aperture macros list*
%AMRoundRect*
0 Rectangle with rounded corners*
0 $1 Rounding radius*
0 $2 $3 $4 $5 $6 $7 $8 $9 X,Y pos of 4 corners*
0 Add a 4 corners polygon primitive as box body*
4,1,4,$2,$3,$4,$5,$6,$7,$8,$9,$2,$3,0*
0 Add four circle primitives for the rounded corners*
1,1,$1+$1,$2,$3*
1,1,$1+$1,$4,$5*
1,1,$1+$1,$6,$7*
1,1,$1+$1,$8,$9*
0 Add four rect primitives between the rounded corners*
20,1,$1+$1,$2,$3,$4,$5,0*
20,1,$1+$1,$4,$5,$6,$7,0*
20,1,$1+$1,$6,$7,$8,$9,0*
20,1,$1+$1,$8,$9,$2,$3,0*%
G04 Aperture macros list end*
%TA.AperFunction,SMDPad,CuDef*%
%ADD10RoundRect,0.150000X-0.150000X-0.625000X0.150000X-0.625000X0.150000X0.625000X-0.150000X0.625000X0*%
%TD*%
%TA.AperFunction,SMDPad,CuDef*%
%ADD11RoundRect,0.250000X-0.350000X-0.650000X0.350000X-0.650000X0.350000X0.650000X-0.350000X0.650000X0*%
%TD*%
%TA.AperFunction,SMDPad,CuDef*%
%ADD12RoundRect,0.250000X-1.000000X-0.500000X1.000000X-0.500000X1.000000X0.500000X-1.000000X0.500000X0*%
%TD*%
%TA.AperFunction,SMDPad,CuDef*%
%ADD13RoundRect,0.250000X1.000000X0.500000X-1.000000X0.500000X-1.000000X-0.500000X1.000000X-0.500000X0*%
%TD*%
%TA.AperFunction,ComponentPad*%
%ADD14C,0.800000*%
%TD*%
%TA.AperFunction,ComponentPad*%
%ADD15C,5.400000*%
%TD*%
%TA.AperFunction,SMDPad,CuDef*%
%ADD16RoundRect,0.180000X-0.420000X-1.850000X0.420000X-1.850000X0.420000X1.850000X-0.420000X1.850000X0*%
%TD*%
%TA.AperFunction,SMDPad,CuDef*%
%ADD17RoundRect,0.228000X-0.532000X-1.802000X0.532000X-1.802000X0.532000X1.802000X-0.532000X1.802000X0*%
%TD*%
%TA.AperFunction,ViaPad*%
%ADD18C,0.700000*%
%TD*%
%TA.AperFunction,ViaPad*%
%ADD19C,0.600000*%
%TD*%
%TA.AperFunction,ViaPad*%
%ADD20C,0.900000*%
%TD*%
%TA.AperFunction,Conductor*%
%ADD21C,0.600000*%
%TD*%
%TA.AperFunction,Conductor*%
%ADD22C,0.190000*%
%TD*%
%TA.AperFunction,Conductor*%
%ADD23C,0.200000*%
%TD*%
%TA.AperFunction,Conductor*%
%ADD24C,0.349300*%
%TD*%
%TA.AperFunction,Conductor*%
%ADD25C,0.342100*%
%TD*%
G04 APERTURE END LIST*
D10*
%TO.P,J1,1,Pin_1*%
%TO.N,GND*%
X164049082Y-108500000D03*
%TO.P,J1,2,Pin_2*%
%TO.N,VBUS*%
X165049082Y-108500000D03*
%TO.P,J1,3,Pin_3*%
%TO.N,/CARFIO_SDA*%
X166049082Y-108500000D03*
%TO.P,J1,4,Pin_4*%
%TO.N,/CARFIO_SCL*%
X167049082Y-108500000D03*
D11*
%TO.P,J1,MP*%
%TO.N,N/C*%
X162749082Y-112375000D03*
X168349082Y-112375000D03*
%TD*%
D12*
%TO.P,U2,1,GND*%
%TO.N,GND*%
X153549082Y-73571410D03*
%TO.P,U2,2,GND*%
X153549082Y-76111410D03*
%TO.P,U2,3,GND*%
X153549082Y-78651410D03*
D13*
%TO.P,U2,4,GND*%
X153549082Y-86221410D03*
%TO.P,U2,5,GND*%
X153549082Y-88761410D03*
%TO.P,U2,6,RXEN*%
%TO.N,/RXEN*%
X153549082Y-91301410D03*
%TO.P,U2,7,TXEN*%
%TO.N,/TXEN*%
X153549082Y-93841410D03*
%TO.P,U2,8,DIO2*%
%TO.N,unconnected-(U2-DIO2-Pad8)*%
X153549082Y-96381410D03*
%TO.P,U2,9,VCC*%
%TO.N,VBUS*%
X153549082Y-98921410D03*
%TO.P,U2,10,VCC*%
X153549082Y-101461410D03*
%TO.P,U2,11,GND*%
%TO.N,GND*%
X153549082Y-104001410D03*
%TO.P,U2,12,GND*%
X177549082Y-104001410D03*
%TO.P,U2,13,DIO1*%
%TO.N,/DIO1*%
X177549082Y-101461410D03*
%TO.P,U2,14,BUSY*%
%TO.N,/BUSY*%
X177549082Y-98921410D03*
%TO.P,U2,15,~{NRST}*%
%TO.N,/NRST*%
X177549082Y-96381410D03*
%TO.P,U2,16,MISO*%
%TO.N,/MISO*%
X177549082Y-93841410D03*
%TO.P,U2,17,MOSI*%
%TO.N,/MOSI*%
X177549082Y-91301410D03*
%TO.P,U2,18,SCK*%
%TO.N,/SCK*%
X177549082Y-88761410D03*
%TO.P,U2,19,~{NSS}*%
%TO.N,/NSS*%
X177549082Y-86221410D03*
D12*
%TO.P,U2,20,GND*%
%TO.N,GND*%
X177549082Y-78651410D03*
%TO.P,U2,21,ANT*%
%TO.N,/RF_ANT*%
X177549082Y-76111410D03*
%TO.P,U2,22,GND*%
%TO.N,GND*%
X177549082Y-73571410D03*
%TD*%
D14*
%TO.P,H1,1*%
%TO.N,N/C*%
X163524082Y-64650000D03*
X164117191Y-63218109D03*
X164117191Y-66081891D03*
X165549082Y-62625000D03*
D15*
X165549082Y-64650000D03*
D14*
X165549082Y-66675000D03*
X166980973Y-63218109D03*
X166980973Y-66081891D03*
X167574082Y-64650000D03*
%TD*%
%TO.P,H2,1*%
%TO.N,N/C*%
X152516891Y-110598109D03*
X153110000Y-109166218D03*
X153110000Y-112030000D03*
X154541891Y-108573109D03*
D15*
X154541891Y-110598109D03*
D14*
X154541891Y-112623109D03*
X155973782Y-109166218D03*
X155973782Y-112030000D03*
X156566891Y-110598109D03*
%TD*%
D16*
%TO.P,J2,1,In*%
%TO.N,/RF_ANT*%
X172564984Y-65250000D03*
D17*
%TO.P,J2,2,Ext*%
%TO.N,GND*%
X170024984Y-65250000D03*
X175104984Y-65250000D03*
%TD*%
D18*
%TO.N,GND*%
X174000000Y-97150000D03*
D19*
%TO.N,/NSS*%
X171000000Y-86200000D03*
D18*
%TO.N,GND*%
X151919082Y-92550000D03*
X157100000Y-83050000D03*
D20*
X156700000Y-94050000D03*
D18*
X174600000Y-87800000D03*
D19*
%TO.N,/TXEN*%
X151950000Y-93850000D03*
%TO.N,/RXEN*%
X151951410Y-91301410D03*
D18*
%TO.N,GND*%
X178850000Y-112950000D03*
X161500000Y-112700000D03*
X174600000Y-85200000D03*
D20*
X174000000Y-94000000D03*
X174000000Y-79000000D03*
D19*
%TO.N,/SCK*%
X174700000Y-89100000D03*
%TO.N,/MISO*%
X174675000Y-93075000D03*
%TO.N,/MOSI*%
X172050000Y-91301410D03*
%TO.N,/BUSY*%
X174650000Y-98921410D03*
%TO.N,/NRST*%
X172050000Y-96381410D03*
%TO.N,/DIO1*%
X174650000Y-101461410D03*
D18*
%TO.N,GND*%
X171466310Y-71807946D03*
D20*
X174600000Y-104001410D03*
D18*
X174797501Y-77031690D03*
X174200000Y-74050000D03*
D20*
X164000000Y-99000000D03*
X169000000Y-89000000D03*
X164000000Y-69000000D03*
X178600000Y-63900000D03*
X161500000Y-104270000D03*
D18*
X173663660Y-70800000D03*
X173663660Y-68100000D03*
D20*
X152300000Y-82000000D03*
X159000000Y-74000000D03*
X175649082Y-78671410D03*
X164000000Y-79000000D03*
X169000000Y-74000000D03*
X169000000Y-69000000D03*
X174725000Y-106800000D03*
X159000000Y-69000000D03*
X159000000Y-62600000D03*
X164000000Y-89000000D03*
D18*
X171466310Y-69107946D03*
X175650000Y-77250000D03*
X171466310Y-70907946D03*
D20*
X170024984Y-68150000D03*
X166700000Y-112700000D03*
D18*
X174850000Y-74600000D03*
X175650000Y-74900000D03*
X171790200Y-74305988D03*
D20*
X164000000Y-74000000D03*
X164000000Y-104000000D03*
X169000000Y-94000000D03*
X164000000Y-84000000D03*
X155449082Y-73571410D03*
D18*
X171551807Y-73500802D03*
X173302284Y-76284240D03*
X174014984Y-65250000D03*
D20*
X155449082Y-76171410D03*
X155449082Y-104071410D03*
X169000000Y-108000000D03*
X161500000Y-101730000D03*
X169000000Y-84000000D03*
D18*
X172680585Y-75720756D03*
X173663660Y-69000000D03*
D20*
X175649082Y-73571410D03*
X169000000Y-79000000D03*
X152300000Y-108000000D03*
X164049082Y-110095000D03*
D18*
X171100000Y-65250000D03*
D20*
X157000000Y-101691410D03*
X156700000Y-100181410D03*
X175104984Y-68150000D03*
D18*
X172170973Y-75054072D03*
D20*
X155449082Y-78671410D03*
X178650000Y-69000000D03*
D18*
X171466310Y-68207946D03*
D20*
X174000000Y-112800000D03*
D18*
X173800000Y-73350000D03*
D20*
X164000000Y-94000000D03*
D18*
X173663660Y-72557437D03*
X173663660Y-71700000D03*
X174015702Y-76726063D03*
D20*
X153900000Y-62600000D03*
X156700000Y-98691410D03*
D18*
X171466310Y-72665383D03*
X173663660Y-69900000D03*
X171466310Y-70007946D03*
D20*
X169000000Y-99000000D03*
X169000000Y-104000000D03*
X159000000Y-79000000D03*
X155449082Y-88771410D03*
X152300000Y-69000000D03*
X155449082Y-86271410D03*
X152400000Y-64000000D03*
D19*
%TO.N,/CARFIO_SCL*%
X165400000Y-110500000D03*
%TO.N,/CARFIO_SDA*%
X165750000Y-106800000D03*
D20*
%TO.N,VBUS*%
X164150000Y-105250000D03*
X154150000Y-99400000D03*
X154150000Y-100950000D03*
D18*
%TO.N,GND*%
X174000000Y-100400000D03*
%TD*%
D21*
%TO.N,VBUS*%
X164150000Y-106600000D02*
X165049082Y-107499082D01*
X164150000Y-105250000D02*
X164150000Y-106600000D01*
X165049082Y-107499082D02*
X165049082Y-108500000D01*
D22*
%TO.N,/NSS*%
X171000000Y-86200000D02*
X171021410Y-86221410D01*
X171021410Y-86221410D02*
X177549082Y-86221410D01*
D23*
%TO.N,/MOSI*%
X172050000Y-91301410D02*
X177549082Y-91301410D01*
%TO.N,/NRST*%
X172050000Y-96381410D02*
X177549082Y-96381410D01*
%TO.N,/DIO1*%
X174650000Y-101461410D02*
X177549082Y-101461410D01*
%TO.N,/BUSY*%
X174650000Y-98921410D02*
X177549082Y-98921410D01*
D22*
%TO.N,/CARFIO_SCL*%
X167049082Y-109750918D02*
X167049082Y-108500000D01*
X165400000Y-110500000D02*
X166300000Y-110500000D01*
X166300000Y-110500000D02*
X167049082Y-109750918D01*
D21*
%TO.N,VBUS*%
X155361410Y-101461410D02*
X153549082Y-101461410D01*
X159150000Y-105250000D02*
X155361410Y-101461410D01*
X164150000Y-105250000D02*
X159150000Y-105250000D01*
D23*
%TO.N,/SCK*%
X175038590Y-88761410D02*
X177549082Y-88761410D01*
X174700000Y-89100000D02*
X175038590Y-88761410D01*
%TO.N,/MISO*%
X177440492Y-93950000D02*
X177549082Y-93841410D01*
X174675000Y-93075000D02*
X175550000Y-93950000D01*
X175550000Y-93950000D02*
X177440492Y-93950000D01*
D22*
%TO.N,/TXEN*%
X151958590Y-93841410D02*
X151950000Y-93850000D01*
X153549082Y-93841410D02*
X151958590Y-93841410D01*
D23*
%TO.N,/RXEN*%
X151950000Y-91300000D02*
X151951410Y-91301410D01*
X153549082Y-91301410D02*
X151951410Y-91301410D01*
D21*
%TO.N,GND*%
X175104984Y-65250000D02*
X175104984Y-68125016D01*
X155549082Y-88771410D02*
X153649082Y-88771410D01*
X155549082Y-73571410D02*
X153649082Y-73571410D01*
X155549082Y-78671410D02*
X153649082Y-78671410D01*
X171100000Y-65250000D02*
X170024984Y-65250000D01*
X164049082Y-110045918D02*
X164000000Y-110095000D01*
X174014984Y-65250000D02*
X175104984Y-65250000D01*
X155549082Y-86271410D02*
X153649082Y-86271410D01*
X175649082Y-78671410D02*
X177549082Y-78671410D01*
X170024984Y-65250000D02*
X170024984Y-68125016D01*
X175649082Y-73571410D02*
X177549082Y-73571410D01*
X164049082Y-108500000D02*
X164049082Y-110045918D01*
X177549082Y-104001410D02*
X174600000Y-104001410D01*
X155549082Y-76171410D02*
X153649082Y-76171410D01*
X155549082Y-104071410D02*
X153649082Y-104071410D01*
D24*
%TO.N,/RF_ANT*%
X177533179Y-76095507D02*
X177549082Y-76111410D01*
D25*
X172564984Y-72611410D02*
X172564984Y-65117312D01*
X176064984Y-76111410D02*
X177549082Y-76111410D01*
X176064984Y-76111410D02*
G75*
G02*
X172564990Y-72611410I16J3500010D01*
G01*
D22*
%TO.N,/NSS*%
X178021410Y-86221410D02*
X177549082Y-86221410D01*
%TO.N,/SCK*%
X177961410Y-88761410D02*
X177549082Y-88761410D01*
%TO.N,/TXEN*%
X153540492Y-93850000D02*
X153549082Y-93841410D01*
D21*
%TO.N,VBUS*%
X154150000Y-99400000D02*
X154150000Y-100950000D01*
D22*
%TO.N,/CARFIO_SDA*%
X166049082Y-107099082D02*
X166049082Y-108500000D01*
X165750000Y-106800000D02*
X166049082Y-107099082D01*
%TD*%
%TA.AperFunction,Conductor*%
%TO.N,GND*%
G36*
X164365213Y-61740462D02*
G01*
X164419751Y-61795000D01*
X164439713Y-61869500D01*
X164419751Y-61944000D01*
X164365213Y-61998538D01*
X164357584Y-62002651D01*
X164096379Y-62133832D01*
X163949693Y-62230309D01*
X163814088Y-62319498D01*
X163814086Y-62319499D01*
X163814085Y-62319500D01*
X163555266Y-62536674D01*
X163555261Y-62536680D01*
X163323412Y-62782424D01*
X163323409Y-62782428D01*
X163121641Y-63053449D01*
X162952707Y-63346051D01*
X162952705Y-63346055D01*
X162818883Y-63656289D01*
X162818881Y-63656296D01*
X162721984Y-63979954D01*
X162721982Y-63979964D01*
X162663312Y-64312695D01*
X162663310Y-64312709D01*
X162643666Y-64650000D01*
X162663310Y-64987290D01*
X162663312Y-64987304D01*
X162721982Y-65320035D01*
X162721984Y-65320045D01*
X162818881Y-65643703D01*
X162818883Y-65643710D01*
X162952705Y-65953944D01*
X162952707Y-65953948D01*
X163121642Y-66246552D01*
X163323404Y-66517565D01*
X163323406Y-66517567D01*
X163323409Y-66517571D01*
X163323412Y-66517575D01*
X163555261Y-66763319D01*
X163555266Y-66763325D01*
X163738074Y-66916718D01*
X163814088Y-66980502D01*
X164096374Y-67166164D01*
X164096379Y-67166167D01*
X164398300Y-67317797D01*
X164398306Y-67317800D01*
X164715799Y-67433358D01*
X165044562Y-67511276D01*
X165380147Y-67550500D01*
X165380150Y-67550500D01*
X165718014Y-67550500D01*
X165718017Y-67550500D01*
X166053602Y-67511276D01*
X166382365Y-67433358D01*
X166699858Y-67317800D01*
X167001790Y-67166164D01*
X167117773Y-67089881D01*
X168914985Y-67089881D01*
X168929861Y-67202887D01*
X168988101Y-67343493D01*
X169080748Y-67464234D01*
X169080749Y-67464235D01*
X169201490Y-67556882D01*
X169342101Y-67615124D01*
X169342098Y-67615124D01*
X169455094Y-67629999D01*
X169774984Y-67629999D01*
X170274984Y-67629999D01*
X170594865Y-67629999D01*
X170707871Y-67615122D01*
X170848477Y-67556882D01*
X170969218Y-67464235D01*
X170969219Y-67464234D01*
X171061866Y-67343493D01*
X171120108Y-67202883D01*
X171134983Y-67089892D01*
X171134984Y-67089888D01*
X171134984Y-65500000D01*
X170274984Y-65500000D01*
X170274984Y-67629999D01*
X169774984Y-67629999D01*
X169774984Y-65500000D01*
X168914985Y-65500000D01*
X168914985Y-67089881D01*
X167117773Y-67089881D01*
X167284076Y-66980502D01*
X167542899Y-66763323D01*
X167774760Y-66517565D01*
X167976522Y-66246552D01*
X168145457Y-65953948D01*
X168279280Y-65643711D01*
X168376182Y-65320035D01*
X168434853Y-64987298D01*
X168454498Y-64650000D01*
X168434853Y-64312702D01*
X168376182Y-63979965D01*
X168279280Y-63656289D01*
X168143740Y-63342071D01*
X168145028Y-63341515D01*
X168130730Y-63272232D01*
X168154997Y-63199021D01*
X168212619Y-63147752D01*
X168279477Y-63131910D01*
X168343860Y-63131910D01*
X168781708Y-63131910D01*
X168856208Y-63151872D01*
X168910746Y-63206410D01*
X168930708Y-63280910D01*
X168929433Y-63300358D01*
X168914984Y-63410107D01*
X168914984Y-65000000D01*
X171134983Y-65000000D01*
X171134983Y-63410118D01*
X171120534Y-63300357D01*
X171130603Y-63223888D01*
X171177556Y-63162699D01*
X171248813Y-63133184D01*
X171268260Y-63131910D01*
X171626001Y-63131910D01*
X171700501Y-63151872D01*
X171755039Y-63206410D01*
X171775001Y-63280910D01*
X171773444Y-63302393D01*
X171764484Y-63363881D01*
X171764484Y-67136118D01*
X171775259Y-67210069D01*
X171775260Y-67210073D01*
X171831031Y-67324155D01*
X171920828Y-67413952D01*
X172034910Y-67469723D01*
X172034912Y-67469724D01*
X172065917Y-67474241D01*
X172136758Y-67504734D01*
X172182864Y-67566565D01*
X172193434Y-67621684D01*
X172193434Y-72669794D01*
X172193440Y-72669889D01*
X172193440Y-72801612D01*
X172230726Y-73180166D01*
X172304939Y-73553257D01*
X172415362Y-73917270D01*
X172415363Y-73917274D01*
X172560932Y-74268704D01*
X172740246Y-74604179D01*
X172785168Y-74671409D01*
X172951583Y-74920466D01*
X173192902Y-75214515D01*
X173461881Y-75483493D01*
X173461891Y-75483501D01*
X173755926Y-75724812D01*
X173778447Y-75739860D01*
X174072213Y-75936148D01*
X174407690Y-76115465D01*
X174759127Y-76261037D01*
X175123140Y-76371460D01*
X175496224Y-76445672D01*
X175604384Y-76456325D01*
X175874781Y-76482959D01*
X175874786Y-76482959D01*
X175949582Y-76482959D01*
X176024082Y-76502921D01*
X176078620Y-76557459D01*
X176098582Y-76631959D01*
X176098582Y-76665685D01*
X176101435Y-76696105D01*
X176146289Y-76824293D01*
X176226930Y-76933558D01*
X176226933Y-76933561D01*
X176336198Y-77014202D01*
X176336199Y-77014202D01*
X176336200Y-77014203D01*
X176464383Y-77059056D01*
X176494816Y-77061910D01*
X176494823Y-77061910D01*
X178603341Y-77061910D01*
X178603348Y-77061910D01*
X178633781Y-77059056D01*
X178761964Y-77014203D01*
X178871232Y-76933560D01*
X178951875Y-76824292D01*
X178996728Y-76696109D01*
X178999582Y-76665676D01*
X178999582Y-75557144D01*
X178996728Y-75526711D01*
X178951875Y-75398528D01*
X178871232Y-75289260D01*
X178871230Y-75289258D01*
X178761965Y-75208617D01*
X178690135Y-75183483D01*
X178633781Y-75163764D01*
X178633779Y-75163763D01*
X178633777Y-75163763D01*
X178603357Y-75160910D01*
X178603348Y-75160910D01*
X176494816Y-75160910D01*
X176494806Y-75160910D01*
X176464386Y-75163763D01*
X176336198Y-75208617D01*
X176226933Y-75289258D01*
X176226930Y-75289261D01*
X176146289Y-75398526D01*
X176101435Y-75526714D01*
X176098582Y-75557134D01*
X176098582Y-75584606D01*
X176078620Y-75659106D01*
X176024082Y-75713644D01*
X175949582Y-75733606D01*
X175941784Y-75733402D01*
X175745767Y-75723129D01*
X175730255Y-75721498D01*
X175422264Y-75672715D01*
X175407010Y-75669473D01*
X175105780Y-75588758D01*
X175090947Y-75583938D01*
X174799828Y-75472187D01*
X174785580Y-75465844D01*
X174507724Y-75324269D01*
X174494217Y-75316471D01*
X174259069Y-75163763D01*
X174232676Y-75146623D01*
X174220063Y-75137459D01*
X174158134Y-75087310D01*
X173977715Y-74941209D01*
X173966125Y-74930773D01*
X173745623Y-74710270D01*
X173735187Y-74698680D01*
X173658663Y-74604181D01*
X173538930Y-74456322D01*
X173529766Y-74443709D01*
X173359929Y-74182181D01*
X173352131Y-74168675D01*
X173322610Y-74110738D01*
X175949083Y-74110738D01*
X175964525Y-74228039D01*
X175964525Y-74228041D01*
X176024982Y-74373999D01*
X176121155Y-74499332D01*
X176121159Y-74499336D01*
X176246492Y-74595509D01*
X176392453Y-74655967D01*
X176509756Y-74671409D01*
X177299082Y-74671409D01*
X177799082Y-74671409D01*
X178588403Y-74671409D01*
X178588410Y-74671408D01*
X178705711Y-74655966D01*
X178705713Y-74655966D01*
X178851671Y-74595509D01*
X178977004Y-74499336D01*
X178977008Y-74499332D01*
X179073181Y-74373999D01*
X179133639Y-74228038D01*
X179149081Y-74110738D01*
X179149082Y-74110733D01*
X179149082Y-73821410D01*
X177799082Y-73821410D01*
X177799082Y-74671409D01*
X177299082Y-74671409D01*
X177299082Y-73821410D01*
X175949083Y-73821410D01*
X175949083Y-74110738D01*
X173322610Y-74110738D01*
X173210553Y-73890814D01*
X173204210Y-73876566D01*
X173092452Y-73585429D01*
X173087643Y-73570628D01*
X173006928Y-73269395D01*
X173003686Y-73254140D01*
X172968515Y-73032081D01*
X175949082Y-73032081D01*
X175949082Y-73321410D01*
X177299082Y-73321410D01*
X177799082Y-73321410D01*
X179149081Y-73321410D01*
X179149081Y-73032089D01*
X179149080Y-73032081D01*
X179133638Y-72914780D01*
X179133638Y-72914778D01*
X179073181Y-72768820D01*
X178977008Y-72643487D01*
X178977004Y-72643483D01*
X178851671Y-72547310D01*
X178705710Y-72486852D01*
X178588410Y-72471410D01*
X177799082Y-72471410D01*
X177799082Y-73321410D01*
X177299082Y-73321410D01*
X177299082Y-72471410D01*
X176509761Y-72471410D01*
X176509752Y-72471411D01*
X176392452Y-72486853D01*
X176392450Y-72486853D01*
X176246492Y-72547310D01*
X176121159Y-72643483D01*
X176121155Y-72643487D01*
X176024982Y-72768820D01*
X175964524Y-72914781D01*
X175949082Y-73032081D01*
X172968515Y-73032081D01*
X172954901Y-72946130D01*
X172953270Y-72930620D01*
X172952440Y-72914778D01*
X172936737Y-72615175D01*
X172936534Y-72607399D01*
X172936534Y-67621684D01*
X172956496Y-67547184D01*
X173011034Y-67492646D01*
X173064049Y-67474241D01*
X173095056Y-67469724D01*
X173209141Y-67413951D01*
X173298935Y-67324157D01*
X173354708Y-67210072D01*
X173365484Y-67136110D01*
X173365484Y-67089881D01*
X173994985Y-67089881D01*
X174009861Y-67202887D01*
X174068101Y-67343493D01*
X174160748Y-67464234D01*
X174160749Y-67464235D01*
X174281490Y-67556882D01*
X174422101Y-67615124D01*
X174422098Y-67615124D01*
X174535094Y-67629999D01*
X174854984Y-67629999D01*
X175354984Y-67629999D01*
X175674865Y-67629999D01*
X175787871Y-67615122D01*
X175928477Y-67556882D01*
X176049218Y-67464235D01*
X176049219Y-67464234D01*
X176141866Y-67343493D01*
X176200108Y-67202883D01*
X176214983Y-67089892D01*
X176214984Y-67089888D01*
X176214984Y-65500000D01*
X175354984Y-65500000D01*
X175354984Y-67629999D01*
X174854984Y-67629999D01*
X174854984Y-65500000D01*
X173994985Y-65500000D01*
X173994985Y-67089881D01*
X173365484Y-67089881D01*
X173365484Y-63363890D01*
X173356524Y-63302392D01*
X173365536Y-63225794D01*
X173411640Y-63163962D01*
X173482484Y-63133467D01*
X173503967Y-63131910D01*
X173861708Y-63131910D01*
X173936208Y-63151872D01*
X173990746Y-63206410D01*
X174010708Y-63280910D01*
X174009433Y-63300358D01*
X173994984Y-63410107D01*
X173994984Y-65000000D01*
X176214983Y-65000000D01*
X176214983Y-63410118D01*
X176200534Y-63300357D01*
X176210603Y-63223888D01*
X176257556Y-63162699D01*
X176328813Y-63133184D01*
X176348260Y-63131910D01*
X179379582Y-63131910D01*
X179454082Y-63151872D01*
X179508620Y-63206410D01*
X179528582Y-63280910D01*
X179528582Y-113430500D01*
X179508620Y-113505000D01*
X179454082Y-113559538D01*
X179379582Y-113579500D01*
X169144903Y-113579500D01*
X169070403Y-113559538D01*
X169015865Y-113505000D01*
X168995903Y-113430500D01*
X169015865Y-113356000D01*
X169025018Y-113342021D01*
X169101874Y-113237883D01*
X169101873Y-113237883D01*
X169101875Y-113237882D01*
X169146728Y-113109699D01*
X169149582Y-113079266D01*
X169149582Y-111670734D01*
X169146728Y-111640301D01*
X169101875Y-111512118D01*
X169021232Y-111402850D01*
X169021230Y-111402848D01*
X168911965Y-111322207D01*
X168852124Y-111301268D01*
X168783781Y-111277354D01*
X168783779Y-111277353D01*
X168783777Y-111277353D01*
X168753357Y-111274500D01*
X168753348Y-111274500D01*
X167944816Y-111274500D01*
X167944806Y-111274500D01*
X167914386Y-111277353D01*
X167786198Y-111322207D01*
X167676933Y-111402848D01*
X167676930Y-111402851D01*
X167596289Y-111512116D01*
X167551435Y-111640304D01*
X167548582Y-111670724D01*
X167548582Y-113079275D01*
X167551435Y-113109695D01*
X167596289Y-113237883D01*
X167673146Y-113342021D01*
X167701324Y-113413818D01*
X167689829Y-113490084D01*
X167641740Y-113550385D01*
X167569943Y-113578563D01*
X167553261Y-113579500D01*
X163544903Y-113579500D01*
X163470403Y-113559538D01*
X163415865Y-113505000D01*
X163395903Y-113430500D01*
X163415865Y-113356000D01*
X163425018Y-113342021D01*
X163501874Y-113237883D01*
X163501873Y-113237883D01*
X163501875Y-113237882D01*
X163546728Y-113109699D01*
X163549582Y-113079266D01*
X163549582Y-111670734D01*
X163546728Y-111640301D01*
X163501875Y-111512118D01*
X163421232Y-111402850D01*
X163421230Y-111402848D01*
X163311965Y-111322207D01*
X163252124Y-111301268D01*
X163183781Y-111277354D01*
X163183779Y-111277353D01*
X163183777Y-111277353D01*
X163153357Y-111274500D01*
X163153348Y-111274500D01*
X162344816Y-111274500D01*
X162344806Y-111274500D01*
X162314386Y-111277353D01*
X162186198Y-111322207D01*
X162076933Y-111402848D01*
X162076930Y-111402851D01*
X161996289Y-111512116D01*
X161951435Y-111640304D01*
X161948582Y-111670724D01*
X161948582Y-113079275D01*
X161951435Y-113109695D01*
X161996289Y-113237883D01*
X162073146Y-113342021D01*
X162101324Y-113413818D01*
X162089829Y-113490084D01*
X162041740Y-113550385D01*
X161969943Y-113578563D01*
X161953261Y-113579500D01*
X155676103Y-113579500D01*
X155601603Y-113559538D01*
X155547065Y-113505000D01*
X155527103Y-113430500D01*
X155547065Y-113356000D01*
X155601603Y-113301462D01*
X155625142Y-113290486D01*
X155692667Y-113265909D01*
X155994599Y-113114273D01*
X156276885Y-112928611D01*
X156535708Y-112711432D01*
X156767569Y-112465674D01*
X156969331Y-112194661D01*
X157138266Y-111902057D01*
X157272089Y-111591820D01*
X157368991Y-111268144D01*
X157427662Y-110935407D01*
X157447307Y-110598109D01*
X157427662Y-110260811D01*
X157368991Y-109928074D01*
X157350101Y-109864978D01*
X157272091Y-109604405D01*
X157272089Y-109604398D01*
X157200223Y-109437793D01*
X157138266Y-109294161D01*
X157068211Y-109172822D01*
X163399082Y-109172822D01*
X163399083Y-109172842D01*
X163405483Y-109232377D01*
X163455727Y-109367084D01*
X163455732Y-109367094D01*
X163541891Y-109482187D01*
X163541894Y-109482190D01*
X163656987Y-109568349D01*
X163656997Y-109568354D01*
X163791701Y-109618597D01*
X163791708Y-109618598D01*
X163799082Y-109619390D01*
X163799082Y-108750000D01*
X163399082Y-108750000D01*
X163399082Y-109172822D01*
X157068211Y-109172822D01*
X156969331Y-109001557D01*
X156767569Y-108730544D01*
X156767565Y-108730540D01*
X156767563Y-108730537D01*
X156767560Y-108730533D01*
X156535711Y-108484789D01*
X156535706Y-108484783D01*
X156327560Y-108310129D01*
X156276885Y-108267607D01*
X155994599Y-108081945D01*
X155994593Y-108081941D01*
X155692672Y-107930311D01*
X155692669Y-107930310D01*
X155692668Y-107930309D01*
X155692667Y-107930309D01*
X155375174Y-107814751D01*
X155241552Y-107783082D01*
X155046417Y-107736834D01*
X155046413Y-107736833D01*
X155046411Y-107736833D01*
X154710826Y-107697609D01*
X154372956Y-107697609D01*
X154037371Y-107736833D01*
X154037369Y-107736833D01*
X154037364Y-107736834D01*
X153708604Y-107814752D01*
X153391112Y-107930310D01*
X153391109Y-107930311D01*
X153089188Y-108081941D01*
X152942502Y-108178418D01*
X152806897Y-108267607D01*
X152806895Y-108267608D01*
X152806894Y-108267609D01*
X152548075Y-108484783D01*
X152548070Y-108484789D01*
X152316221Y-108730533D01*
X152316218Y-108730537D01*
X152114450Y-109001558D01*
X151945516Y-109294160D01*
X151945514Y-109294164D01*
X151855396Y-109503083D01*
X151807559Y-109563583D01*
X151735880Y-109592059D01*
X151659566Y-109580881D01*
X151599066Y-109533044D01*
X151570590Y-109461365D01*
X151569582Y-109444067D01*
X151569582Y-104540738D01*
X151949083Y-104540738D01*
X151964525Y-104658039D01*
X151964525Y-104658041D01*
X152024982Y-104803999D01*
X152121155Y-104929332D01*
X152121159Y-104929336D01*
X152246492Y-105025509D01*
X152392453Y-105085967D01*
X152509756Y-105101409D01*
X153299082Y-105101409D01*
X153799082Y-105101409D01*
X154588403Y-105101409D01*
X154588410Y-105101408D01*
X154705711Y-105085966D01*
X154705713Y-105085966D01*
X154851671Y-105025509D01*
X154977004Y-104929336D01*
X154977008Y-104929332D01*
X155073181Y-104803999D01*
X155133639Y-104658038D01*
X155149081Y-104540738D01*
X155149082Y-104540733D01*
X155149082Y-104251410D01*
X153799082Y-104251410D01*
X153799082Y-105101409D01*
X153299082Y-105101409D01*
X153299082Y-104251410D01*
X151949083Y-104251410D01*
X151949083Y-104540738D01*
X151569582Y-104540738D01*
X151569582Y-103462081D01*
X151949082Y-103462081D01*
X151949082Y-103751410D01*
X153299082Y-103751410D01*
X153799082Y-103751410D01*
X155149081Y-103751410D01*
X155149081Y-103462089D01*
X155149080Y-103462081D01*
X155133638Y-103344780D01*
X155133638Y-103344778D01*
X155073181Y-103198820D01*
X154977008Y-103073487D01*
X154977004Y-103073483D01*
X154851671Y-102977310D01*
X154705710Y-102916852D01*
X154588410Y-102901410D01*
X153799082Y-102901410D01*
X153799082Y-103751410D01*
X153299082Y-103751410D01*
X153299082Y-102901410D01*
X152509761Y-102901410D01*
X152509752Y-102901411D01*
X152392452Y-102916853D01*
X152392450Y-102916853D01*
X152246492Y-102977310D01*
X152121159Y-103073483D01*
X152121155Y-103073487D01*
X152024982Y-103198820D01*
X151964524Y-103344781D01*
X151949082Y-103462081D01*
X151569582Y-103462081D01*
X151569582Y-98367134D01*
X152098582Y-98367134D01*
X152098582Y-99475685D01*
X152101435Y-99506105D01*
X152146289Y-99634293D01*
X152226930Y-99743558D01*
X152226933Y-99743561D01*
X152336198Y-99824202D01*
X152336199Y-99824202D01*
X152336200Y-99824203D01*
X152464383Y-99869056D01*
X152494816Y-99871910D01*
X153500500Y-99871910D01*
X153575000Y-99891872D01*
X153629538Y-99946410D01*
X153649500Y-100020910D01*
X153649500Y-100361910D01*
X153629538Y-100436410D01*
X153575000Y-100490948D01*
X153500500Y-100510910D01*
X152494806Y-100510910D01*
X152464386Y-100513763D01*
X152336198Y-100558617D01*
X152226933Y-100639258D01*
X152226930Y-100639261D01*
X152146289Y-100748526D01*
X152101435Y-100876714D01*
X152098582Y-100907134D01*
X152098582Y-102015685D01*
X152101435Y-102046105D01*
X152146289Y-102174293D01*
X152226930Y-102283558D01*
X152226933Y-102283561D01*
X152336198Y-102364202D01*
X152336199Y-102364202D01*
X152336200Y-102364203D01*
X152464383Y-102409056D01*
X152494816Y-102411910D01*
X152494823Y-102411910D01*
X154603341Y-102411910D01*
X154603348Y-102411910D01*
X154633781Y-102409056D01*
X154761964Y-102364203D01*
X154871232Y-102283560D01*
X154951875Y-102174292D01*
X154981025Y-102090984D01*
X155024473Y-102027259D01*
X155093962Y-101993794D01*
X155170875Y-101999557D01*
X155227023Y-102034837D01*
X158842686Y-105650500D01*
X158866073Y-105664002D01*
X158866076Y-105664005D01*
X158866077Y-105664005D01*
X158956809Y-105716390D01*
X158956811Y-105716390D01*
X158956814Y-105716392D01*
X159084107Y-105750500D01*
X159084108Y-105750500D01*
X163500500Y-105750500D01*
X163575000Y-105770462D01*
X163629538Y-105825000D01*
X163649500Y-105899500D01*
X163649500Y-106665893D01*
X163658639Y-106700001D01*
X163683608Y-106793186D01*
X163687542Y-106800000D01*
X163749497Y-106907310D01*
X163749498Y-106907311D01*
X163749500Y-106907314D01*
X163962829Y-107120643D01*
X164001392Y-107187436D01*
X164001392Y-107264564D01*
X163962828Y-107331359D01*
X163896033Y-107369923D01*
X163857469Y-107375000D01*
X163851259Y-107375000D01*
X163851239Y-107375001D01*
X163791704Y-107381401D01*
X163656997Y-107431645D01*
X163656987Y-107431650D01*
X163541894Y-107517809D01*
X163541891Y-107517812D01*
X163455732Y-107632905D01*
X163455727Y-107632915D01*
X163405483Y-107767622D01*
X163399083Y-107827157D01*
X163399082Y-107827177D01*
X163399082Y-108250000D01*
X164150082Y-108250000D01*
X164224582Y-108269962D01*
X164279120Y-108324500D01*
X164299082Y-108399000D01*
X164299082Y-109619390D01*
X164306455Y-109618598D01*
X164306462Y-109618597D01*
X164441166Y-109568354D01*
X164441176Y-109568349D01*
X164556269Y-109482190D01*
X164563806Y-109474654D01*
X164564746Y-109475594D01*
X164616767Y-109434684D01*
X164693110Y-109423706D01*
X164740863Y-109437792D01*
X164797689Y-109465573D01*
X164797688Y-109465573D01*
X164865813Y-109475499D01*
X164865819Y-109475499D01*
X164865822Y-109475500D01*
X164865823Y-109475500D01*
X165232341Y-109475500D01*
X165232342Y-109475500D01*
X165232345Y-109475499D01*
X165232350Y-109475499D01*
X165300475Y-109465573D01*
X165300476Y-109465573D01*
X165405563Y-109414199D01*
X165405563Y-109414198D01*
X165405565Y-109414198D01*
X165443723Y-109376040D01*
X165510518Y-109337476D01*
X165587646Y-109337476D01*
X165654441Y-109376040D01*
X165692600Y-109414199D01*
X165797687Y-109465573D01*
X165865813Y-109475499D01*
X165865819Y-109475499D01*
X165865822Y-109475500D01*
X165865823Y-109475500D01*
X166232341Y-109475500D01*
X166232342Y-109475500D01*
X166232345Y-109475499D01*
X166232350Y-109475499D01*
X166300475Y-109465573D01*
X166300476Y-109465573D01*
X166405563Y-109414199D01*
X166405563Y-109414198D01*
X166405565Y-109414198D01*
X166443724Y-109376038D01*
X166510516Y-109337475D01*
X166587645Y-109337475D01*
X166654437Y-109376036D01*
X166692599Y-109414198D01*
X166692600Y-109414198D01*
X166701330Y-109422928D01*
X166700160Y-109424097D01*
X166740194Y-109472707D01*
X166753582Y-109534435D01*
X166753582Y-109566800D01*
X166733620Y-109641300D01*
X166709941Y-109672159D01*
X166221241Y-110160859D01*
X166154446Y-110199423D01*
X166115882Y-110204500D01*
X165874250Y-110204500D01*
X165799750Y-110184538D01*
X165761643Y-110153073D01*
X165731133Y-110117862D01*
X165731127Y-110117856D01*
X165697465Y-110096223D01*
X165610053Y-110040047D01*
X165610050Y-110040046D01*
X165471967Y-109999501D01*
X165471962Y-109999500D01*
X165471961Y-109999500D01*
X165328039Y-109999500D01*
X165328037Y-109999500D01*
X165328032Y-109999501D01*
X165189949Y-110040046D01*
X165068872Y-110117856D01*
X165068870Y-110117859D01*
X164974622Y-110226628D01*
X164914834Y-110357545D01*
X164894353Y-110499996D01*
X164894353Y-110500003D01*
X164914834Y-110642454D01*
X164914834Y-110642455D01*
X164914835Y-110642457D01*
X164974623Y-110773373D01*
X165068872Y-110882143D01*
X165189947Y-110959953D01*
X165328039Y-111000500D01*
X165328041Y-111000500D01*
X165471959Y-111000500D01*
X165471961Y-111000500D01*
X165610053Y-110959953D01*
X165731128Y-110882143D01*
X165761643Y-110846927D01*
X165825516Y-110803695D01*
X165874250Y-110795500D01*
X166338901Y-110795500D01*
X166338904Y-110795500D01*
X166376481Y-110785431D01*
X166414059Y-110775362D01*
X166481441Y-110736459D01*
X166536459Y-110681441D01*
X167285541Y-109932359D01*
X167288015Y-109928074D01*
X167324444Y-109864977D01*
X167344582Y-109789821D01*
X167344582Y-109534435D01*
X167364544Y-109459935D01*
X167397521Y-109423614D01*
X167396835Y-109422928D01*
X167488278Y-109331485D01*
X167488281Y-109331481D01*
X167539655Y-109226394D01*
X167539655Y-109226393D01*
X167549581Y-109158268D01*
X167549582Y-109158258D01*
X167549582Y-107841741D01*
X167549581Y-107841731D01*
X167539655Y-107773606D01*
X167539655Y-107773605D01*
X167488281Y-107668518D01*
X167405563Y-107585800D01*
X167300476Y-107534426D01*
X167232350Y-107524500D01*
X167232342Y-107524500D01*
X166865822Y-107524500D01*
X166865813Y-107524500D01*
X166797688Y-107534426D01*
X166797687Y-107534426D01*
X166692600Y-107585800D01*
X166692599Y-107585801D01*
X166654441Y-107623960D01*
X166587646Y-107662524D01*
X166510518Y-107662524D01*
X166443723Y-107623960D01*
X166396835Y-107577072D01*
X166398003Y-107575903D01*
X166357964Y-107527278D01*
X166344582Y-107465563D01*
X166344582Y-107060179D01*
X166324444Y-106985023D01*
X166299869Y-106942457D01*
X166285543Y-106917643D01*
X166284328Y-106916060D01*
X166283563Y-106914214D01*
X166280658Y-106909182D01*
X166281320Y-106908799D01*
X166254809Y-106844804D01*
X166255050Y-106804145D01*
X166255647Y-106800000D01*
X166246928Y-106739358D01*
X166235166Y-106657545D01*
X166175377Y-106526628D01*
X166175377Y-106526627D01*
X166081128Y-106417857D01*
X166081127Y-106417856D01*
X166041961Y-106392686D01*
X165960053Y-106340047D01*
X165960050Y-106340046D01*
X165821967Y-106299501D01*
X165821962Y-106299500D01*
X165821961Y-106299500D01*
X165678039Y-106299500D01*
X165678037Y-106299500D01*
X165678032Y-106299501D01*
X165539949Y-106340046D01*
X165418872Y-106417856D01*
X165418870Y-106417859D01*
X165324622Y-106526628D01*
X165264834Y-106657544D01*
X165263265Y-106668458D01*
X165232902Y-106739358D01*
X165171156Y-106785578D01*
X165094574Y-106794733D01*
X165023674Y-106764370D01*
X165010423Y-106752609D01*
X164694141Y-106436327D01*
X164655577Y-106369532D01*
X164650500Y-106330968D01*
X164650500Y-105716446D01*
X164670462Y-105641946D01*
X164676869Y-105631814D01*
X164730220Y-105554523D01*
X164786237Y-105406818D01*
X164805278Y-105250000D01*
X164786237Y-105093182D01*
X164730220Y-104945477D01*
X164640483Y-104815470D01*
X164627535Y-104803999D01*
X164522239Y-104710716D01*
X164382363Y-104637303D01*
X164304591Y-104618134D01*
X164228985Y-104599500D01*
X164071015Y-104599500D01*
X164010359Y-104614450D01*
X163917636Y-104637303D01*
X163777757Y-104710718D01*
X163776283Y-104712025D01*
X163774769Y-104712780D01*
X163770342Y-104715837D01*
X163769908Y-104715208D01*
X163707283Y-104746488D01*
X163677475Y-104749500D01*
X159419032Y-104749500D01*
X159344532Y-104729538D01*
X159313673Y-104705859D01*
X159148552Y-104540738D01*
X175949083Y-104540738D01*
X175964525Y-104658039D01*
X175964525Y-104658041D01*
X176024982Y-104803999D01*
X176121155Y-104929332D01*
X176121159Y-104929336D01*
X176246492Y-105025509D01*
X176392453Y-105085967D01*
X176509756Y-105101409D01*
X177299082Y-105101409D01*
X177799082Y-105101409D01*
X178588403Y-105101409D01*
X178588410Y-105101408D01*
X178705711Y-105085966D01*
X178705713Y-105085966D01*
X178851671Y-105025509D01*
X178977004Y-104929336D01*
X178977008Y-104929332D01*
X179073181Y-104803999D01*
X179133639Y-104658038D01*
X179149081Y-104540738D01*
X179149082Y-104540733D01*
X179149082Y-104251410D01*
X177799082Y-104251410D01*
X177799082Y-105101409D01*
X177299082Y-105101409D01*
X177299082Y-104251410D01*
X175949083Y-104251410D01*
X175949083Y-104540738D01*
X159148552Y-104540738D01*
X158069895Y-103462081D01*
X175949082Y-103462081D01*
X175949082Y-103751410D01*
X177299082Y-103751410D01*
X177799082Y-103751410D01*
X179149081Y-103751410D01*
X179149081Y-103462089D01*
X179149080Y-103462081D01*
X179133638Y-103344780D01*
X179133638Y-103344778D01*
X179073181Y-103198820D01*
X178977008Y-103073487D01*
X178977004Y-103073483D01*
X178851671Y-102977310D01*
X178705710Y-102916852D01*
X178588410Y-102901410D01*
X177799082Y-102901410D01*
X177799082Y-103751410D01*
X177299082Y-103751410D01*
X177299082Y-102901410D01*
X176509761Y-102901410D01*
X176509752Y-102901411D01*
X176392452Y-102916853D01*
X176392450Y-102916853D01*
X176246492Y-102977310D01*
X176121159Y-103073483D01*
X176121155Y-103073487D01*
X176024982Y-103198820D01*
X175964524Y-103344781D01*
X175949082Y-103462081D01*
X158069895Y-103462081D01*
X157509224Y-102901410D01*
X156069220Y-101461406D01*
X174144353Y-101461406D01*
X174144353Y-101461413D01*
X174164834Y-101603864D01*
X174164834Y-101603865D01*
X174164835Y-101603867D01*
X174224623Y-101734783D01*
X174318872Y-101843553D01*
X174439947Y-101921363D01*
X174578039Y-101961910D01*
X174578041Y-101961910D01*
X174721959Y-101961910D01*
X174721961Y-101961910D01*
X174860053Y-101921363D01*
X174981128Y-101843553D01*
X175007311Y-101813335D01*
X175071185Y-101770105D01*
X175119918Y-101761910D01*
X175949582Y-101761910D01*
X176024082Y-101781872D01*
X176078620Y-101836410D01*
X176098582Y-101910910D01*
X176098582Y-102015685D01*
X176101435Y-102046105D01*
X176146289Y-102174293D01*
X176226930Y-102283558D01*
X176226933Y-102283561D01*
X176336198Y-102364202D01*
X176336199Y-102364202D01*
X176336200Y-102364203D01*
X176464383Y-102409056D01*
X176494816Y-102411910D01*
X176494823Y-102411910D01*
X178603341Y-102411910D01*
X178603348Y-102411910D01*
X178633781Y-102409056D01*
X178761964Y-102364203D01*
X178871232Y-102283560D01*
X178951875Y-102174292D01*
X178996728Y-102046109D01*
X178999582Y-102015676D01*
X178999582Y-100907144D01*
X178996728Y-100876711D01*
X178951875Y-100748528D01*
X178871232Y-100639260D01*
X178871230Y-100639258D01*
X178761965Y-100558617D01*
X178650499Y-100519614D01*
X178633781Y-100513764D01*
X178633779Y-100513763D01*
X178633777Y-100513763D01*
X178603357Y-100510910D01*
X178603348Y-100510910D01*
X176494816Y-100510910D01*
X176494806Y-100510910D01*
X176464386Y-100513763D01*
X176336198Y-100558617D01*
X176226933Y-100639258D01*
X176226930Y-100639261D01*
X176146289Y-100748526D01*
X176101435Y-100876714D01*
X176098582Y-100907134D01*
X176098582Y-101011910D01*
X176078620Y-101086410D01*
X176024082Y-101140948D01*
X175949582Y-101160910D01*
X175119918Y-101160910D01*
X175045418Y-101140948D01*
X175007311Y-101109484D01*
X174987317Y-101086410D01*
X174981128Y-101079267D01*
X174981127Y-101079266D01*
X174947465Y-101057633D01*
X174860053Y-101001457D01*
X174860050Y-101001456D01*
X174721967Y-100960911D01*
X174721962Y-100960910D01*
X174721961Y-100960910D01*
X174578039Y-100960910D01*
X174578037Y-100960910D01*
X174578032Y-100960911D01*
X174439949Y-101001456D01*
X174318872Y-101079266D01*
X174318870Y-101079269D01*
X174224622Y-101188038D01*
X174164834Y-101318955D01*
X174144353Y-101461406D01*
X156069220Y-101461406D01*
X155668724Y-101060910D01*
X155668721Y-101060908D01*
X155668720Y-101060907D01*
X155597924Y-101020033D01*
X155554596Y-100995018D01*
X155427302Y-100960910D01*
X155131912Y-100960910D01*
X155057412Y-100940948D01*
X155002874Y-100886410D01*
X154991273Y-100861121D01*
X154951874Y-100748526D01*
X154871233Y-100639261D01*
X154871230Y-100639258D01*
X154761964Y-100558616D01*
X154761961Y-100558614D01*
X154750285Y-100554529D01*
X154686560Y-100511080D01*
X154653097Y-100441589D01*
X154650500Y-100413892D01*
X154650500Y-99968926D01*
X154670462Y-99894426D01*
X154725000Y-99839888D01*
X154750281Y-99828290D01*
X154761964Y-99824203D01*
X154871232Y-99743560D01*
X154951875Y-99634292D01*
X154996728Y-99506109D01*
X154999582Y-99475676D01*
X154999582Y-98921406D01*
X174144353Y-98921406D01*
X174144353Y-98921413D01*
X174164834Y-99063864D01*
X174164834Y-99063865D01*
X174164835Y-99063867D01*
X174224623Y-99194783D01*
X174318872Y-99303553D01*
X174439947Y-99381363D01*
X174578039Y-99421910D01*
X174578041Y-99421910D01*
X174721959Y-99421910D01*
X174721961Y-99421910D01*
X174860053Y-99381363D01*
X174981128Y-99303553D01*
X175007311Y-99273335D01*
X175071185Y-99230105D01*
X175119918Y-99221910D01*
X175949582Y-99221910D01*
X176024082Y-99241872D01*
X176078620Y-99296410D01*
X176098582Y-99370910D01*
X176098582Y-99475685D01*
X176101435Y-99506105D01*
X176146289Y-99634293D01*
X176226930Y-99743558D01*
X176226933Y-99743561D01*
X176336198Y-99824202D01*
X176336199Y-99824202D01*
X176336200Y-99824203D01*
X176464383Y-99869056D01*
X176494816Y-99871910D01*
X176494823Y-99871910D01*
X178603341Y-99871910D01*
X178603348Y-99871910D01*
X178633781Y-99869056D01*
X178761964Y-99824203D01*
X178871232Y-99743560D01*
X178951875Y-99634292D01*
X178996728Y-99506109D01*
X178999582Y-99475676D01*
X178999582Y-98367144D01*
X178996728Y-98336711D01*
X178951875Y-98208528D01*
X178871232Y-98099260D01*
X178871230Y-98099258D01*
X178761965Y-98018617D01*
X178702124Y-97997678D01*
X178633781Y-97973764D01*
X178633779Y-97973763D01*
X178633777Y-97973763D01*
X178603357Y-97970910D01*
X178603348Y-97970910D01*
X176494816Y-97970910D01*
X176494806Y-97970910D01*
X176464386Y-97973763D01*
X176336198Y-98018617D01*
X176226933Y-98099258D01*
X176226930Y-98099261D01*
X176146289Y-98208526D01*
X176101435Y-98336714D01*
X176098582Y-98367134D01*
X176098582Y-98471910D01*
X176078620Y-98546410D01*
X176024082Y-98600948D01*
X175949582Y-98620910D01*
X175119918Y-98620910D01*
X175045418Y-98600948D01*
X175007311Y-98569484D01*
X174987317Y-98546410D01*
X174981128Y-98539267D01*
X174981127Y-98539266D01*
X174947465Y-98517633D01*
X174860053Y-98461457D01*
X174860050Y-98461456D01*
X174721967Y-98420911D01*
X174721962Y-98420910D01*
X174721961Y-98420910D01*
X174578039Y-98420910D01*
X174578037Y-98420910D01*
X174578032Y-98420911D01*
X174439949Y-98461456D01*
X174318872Y-98539266D01*
X174318870Y-98539269D01*
X174224622Y-98648038D01*
X174164834Y-98778955D01*
X174144353Y-98921406D01*
X154999582Y-98921406D01*
X154999582Y-98367144D01*
X154996728Y-98336711D01*
X154951875Y-98208528D01*
X154871232Y-98099260D01*
X154871230Y-98099258D01*
X154761965Y-98018617D01*
X154702124Y-97997678D01*
X154633781Y-97973764D01*
X154633779Y-97973763D01*
X154633777Y-97973763D01*
X154603357Y-97970910D01*
X154603348Y-97970910D01*
X152494816Y-97970910D01*
X152494806Y-97970910D01*
X152464386Y-97973763D01*
X152336198Y-98018617D01*
X152226933Y-98099258D01*
X152226930Y-98099261D01*
X152146289Y-98208526D01*
X152101435Y-98336714D01*
X152098582Y-98367134D01*
X151569582Y-98367134D01*
X151569582Y-95827134D01*
X152098582Y-95827134D01*
X152098582Y-96935685D01*
X152101435Y-96966105D01*
X152146289Y-97094293D01*
X152226930Y-97203558D01*
X152226933Y-97203561D01*
X152336198Y-97284202D01*
X152336199Y-97284202D01*
X152336200Y-97284203D01*
X152464383Y-97329056D01*
X152494816Y-97331910D01*
X152494823Y-97331910D01*
X154603341Y-97331910D01*
X154603348Y-97331910D01*
X154633781Y-97329056D01*
X154761964Y-97284203D01*
X154871232Y-97203560D01*
X154951875Y-97094292D01*
X154996728Y-96966109D01*
X154999582Y-96935676D01*
X154999582Y-96381406D01*
X171544353Y-96381406D01*
X171544353Y-96381413D01*
X171564834Y-96523864D01*
X171564834Y-96523865D01*
X171564835Y-96523867D01*
X171624623Y-96654783D01*
X171718872Y-96763553D01*
X171839947Y-96841363D01*
X171978039Y-96881910D01*
X171978041Y-96881910D01*
X172121959Y-96881910D01*
X172121961Y-96881910D01*
X172260053Y-96841363D01*
X172381128Y-96763553D01*
X172407311Y-96733335D01*
X172471185Y-96690105D01*
X172519918Y-96681910D01*
X175949582Y-96681910D01*
X176024082Y-96701872D01*
X176078620Y-96756410D01*
X176098582Y-96830910D01*
X176098582Y-96935685D01*
X176101435Y-96966105D01*
X176146289Y-97094293D01*
X176226930Y-97203558D01*
X176226933Y-97203561D01*
X176336198Y-97284202D01*
X176336199Y-97284202D01*
X176336200Y-97284203D01*
X176464383Y-97329056D01*
X176494816Y-97331910D01*
X176494823Y-97331910D01*
X178603341Y-97331910D01*
X178603348Y-97331910D01*
X178633781Y-97329056D01*
X178761964Y-97284203D01*
X178871232Y-97203560D01*
X178951875Y-97094292D01*
X178996728Y-96966109D01*
X178999582Y-96935676D01*
X178999582Y-95827144D01*
X178996728Y-95796711D01*
X178951875Y-95668528D01*
X178871232Y-95559260D01*
X178871230Y-95559258D01*
X178761965Y-95478617D01*
X178702124Y-95457678D01*
X178633781Y-95433764D01*
X178633779Y-95433763D01*
X178633777Y-95433763D01*
X178603357Y-95430910D01*
X178603348Y-95430910D01*
X176494816Y-95430910D01*
X176494806Y-95430910D01*
X176464386Y-95433763D01*
X176336198Y-95478617D01*
X176226933Y-95559258D01*
X176226930Y-95559261D01*
X176146289Y-95668526D01*
X176101435Y-95796714D01*
X176098582Y-95827134D01*
X176098582Y-95931910D01*
X176078620Y-96006410D01*
X176024082Y-96060948D01*
X175949582Y-96080910D01*
X172519918Y-96080910D01*
X172445418Y-96060948D01*
X172407311Y-96029484D01*
X172387317Y-96006410D01*
X172381128Y-95999267D01*
X172381127Y-95999266D01*
X172347465Y-95977633D01*
X172260053Y-95921457D01*
X172260050Y-95921456D01*
X172121967Y-95880911D01*
X172121962Y-95880910D01*
X172121961Y-95880910D01*
X171978039Y-95880910D01*
X171978037Y-95880910D01*
X171978032Y-95880911D01*
X171839949Y-95921456D01*
X171718872Y-95999266D01*
X171718870Y-95999269D01*
X171624622Y-96108038D01*
X171564834Y-96238955D01*
X171544353Y-96381406D01*
X154999582Y-96381406D01*
X154999582Y-95827144D01*
X154996728Y-95796711D01*
X154951875Y-95668528D01*
X154871232Y-95559260D01*
X154871230Y-95559258D01*
X154761965Y-95478617D01*
X154702124Y-95457678D01*
X154633781Y-95433764D01*
X154633779Y-95433763D01*
X154633777Y-95433763D01*
X154603357Y-95430910D01*
X154603348Y-95430910D01*
X152494816Y-95430910D01*
X152494806Y-95430910D01*
X152464386Y-95433763D01*
X152336198Y-95478617D01*
X152226933Y-95559258D01*
X152226930Y-95559261D01*
X152146289Y-95668526D01*
X152101435Y-95796714D01*
X152098582Y-95827134D01*
X151569582Y-95827134D01*
X151569582Y-94458969D01*
X151589544Y-94384469D01*
X151644082Y-94329931D01*
X151718582Y-94309969D01*
X151760556Y-94316004D01*
X151878039Y-94350500D01*
X151878041Y-94350500D01*
X151969258Y-94350500D01*
X152043758Y-94370462D01*
X152098296Y-94425000D01*
X152109897Y-94450289D01*
X152146289Y-94554293D01*
X152226930Y-94663558D01*
X152226933Y-94663561D01*
X152336198Y-94744202D01*
X152336199Y-94744202D01*
X152336200Y-94744203D01*
X152464383Y-94789056D01*
X152494816Y-94791910D01*
X152494823Y-94791910D01*
X154603341Y-94791910D01*
X154603348Y-94791910D01*
X154633781Y-94789056D01*
X154761964Y-94744203D01*
X154871232Y-94663560D01*
X154951875Y-94554292D01*
X154996728Y-94426109D01*
X154999582Y-94395676D01*
X154999582Y-93287144D01*
X154996728Y-93256711D01*
X154951875Y-93128528D01*
X154912367Y-93074996D01*
X174169353Y-93074996D01*
X174169353Y-93075003D01*
X174189834Y-93217454D01*
X174189834Y-93217455D01*
X174189835Y-93217457D01*
X174249623Y-93348373D01*
X174343872Y-93457143D01*
X174464947Y-93534953D01*
X174603039Y-93575500D01*
X174603041Y-93575500D01*
X174688811Y-93575500D01*
X174763311Y-93595462D01*
X174794170Y-93619141D01*
X175309540Y-94134511D01*
X175365489Y-94190460D01*
X175434011Y-94230021D01*
X175510438Y-94250500D01*
X175949598Y-94250500D01*
X176024098Y-94270462D01*
X176078636Y-94325000D01*
X176098435Y-94392530D01*
X176098582Y-94395685D01*
X176101435Y-94426105D01*
X176146289Y-94554293D01*
X176226930Y-94663558D01*
X176226933Y-94663561D01*
X176336198Y-94744202D01*
X176336199Y-94744202D01*
X176336200Y-94744203D01*
X176464383Y-94789056D01*
X176494816Y-94791910D01*
X176494823Y-94791910D01*
X178603341Y-94791910D01*
X178603348Y-94791910D01*
X178633781Y-94789056D01*
X178761964Y-94744203D01*
X178871232Y-94663560D01*
X178951875Y-94554292D01*
X178996728Y-94426109D01*
X178999582Y-94395676D01*
X178999582Y-93287144D01*
X178996728Y-93256711D01*
X178951875Y-93128528D01*
X178871232Y-93019260D01*
X178871230Y-93019258D01*
X178761965Y-92938617D01*
X178702124Y-92917678D01*
X178633781Y-92893764D01*
X178633779Y-92893763D01*
X178633777Y-92893763D01*
X178603357Y-92890910D01*
X178603348Y-92890910D01*
X176494816Y-92890910D01*
X176494806Y-92890910D01*
X176464386Y-92893763D01*
X176336198Y-92938617D01*
X176226933Y-93019258D01*
X176226930Y-93019261D01*
X176146289Y-93128526D01*
X176101435Y-93256714D01*
X176098582Y-93287134D01*
X176098582Y-93500500D01*
X176078620Y-93575000D01*
X176024082Y-93629538D01*
X175949582Y-93649500D01*
X175736189Y-93649500D01*
X175661689Y-93629538D01*
X175630830Y-93605859D01*
X175223244Y-93198273D01*
X175184680Y-93131478D01*
X175181953Y-93085658D01*
X175180647Y-93085658D01*
X175180647Y-93074996D01*
X175160166Y-92932545D01*
X175142455Y-92893764D01*
X175100377Y-92801627D01*
X175006128Y-92692857D01*
X175006127Y-92692856D01*
X174972465Y-92671223D01*
X174885053Y-92615047D01*
X174885050Y-92615046D01*
X174746967Y-92574501D01*
X174746962Y-92574500D01*
X174746961Y-92574500D01*
X174603039Y-92574500D01*
X174603037Y-92574500D01*
X174603032Y-92574501D01*
X174464949Y-92615046D01*
X174343872Y-92692856D01*
X174343870Y-92692859D01*
X174249622Y-92801628D01*
X174189834Y-92932545D01*
X174169353Y-93074996D01*
X154912367Y-93074996D01*
X154871232Y-93019260D01*
X154871230Y-93019258D01*
X154761965Y-92938617D01*
X154702124Y-92917678D01*
X154633781Y-92893764D01*
X154633779Y-92893763D01*
X154633777Y-92893763D01*
X154603357Y-92890910D01*
X154603348Y-92890910D01*
X152494816Y-92890910D01*
X152494806Y-92890910D01*
X152464386Y-92893763D01*
X152336198Y-92938617D01*
X152226933Y-93019258D01*
X152226930Y-93019261D01*
X152146289Y-93128526D01*
X152140338Y-93145534D01*
X152103884Y-93249712D01*
X152060438Y-93313437D01*
X151990949Y-93346902D01*
X151963247Y-93349500D01*
X151878038Y-93349500D01*
X151831824Y-93363069D01*
X151760558Y-93383995D01*
X151683454Y-93385830D01*
X151615760Y-93348866D01*
X151575617Y-93283008D01*
X151569582Y-93241030D01*
X151569582Y-91909965D01*
X151589544Y-91835465D01*
X151644082Y-91780927D01*
X151718582Y-91760965D01*
X151760556Y-91767000D01*
X151879449Y-91801910D01*
X151879451Y-91801910D01*
X151966252Y-91801910D01*
X152040752Y-91821872D01*
X152095290Y-91876410D01*
X152106891Y-91901699D01*
X152146289Y-92014293D01*
X152226930Y-92123558D01*
X152226933Y-92123561D01*
X152336198Y-92204202D01*
X152336199Y-92204202D01*
X152336200Y-92204203D01*
X152464383Y-92249056D01*
X152494816Y-92251910D01*
X152494823Y-92251910D01*
X154603341Y-92251910D01*
X154603348Y-92251910D01*
X154633781Y-92249056D01*
X154761964Y-92204203D01*
X154871232Y-92123560D01*
X154951875Y-92014292D01*
X154996728Y-91886109D01*
X154999582Y-91855676D01*
X154999582Y-91301406D01*
X171544353Y-91301406D01*
X171544353Y-91301413D01*
X171564834Y-91443864D01*
X171564834Y-91443865D01*
X171564835Y-91443867D01*
X171624623Y-91574783D01*
X171718872Y-91683553D01*
X171839947Y-91761363D01*
X171978039Y-91801910D01*
X171978041Y-91801910D01*
X172121959Y-91801910D01*
X172121961Y-91801910D01*
X172260053Y-91761363D01*
X172381128Y-91683553D01*
X172407311Y-91653335D01*
X172471185Y-91610105D01*
X172519918Y-91601910D01*
X175949582Y-91601910D01*
X176024082Y-91621872D01*
X176078620Y-91676410D01*
X176098582Y-91750910D01*
X176098582Y-91855685D01*
X176101435Y-91886105D01*
X176146289Y-92014293D01*
X176226930Y-92123558D01*
X176226933Y-92123561D01*
X176336198Y-92204202D01*
X176336199Y-92204202D01*
X176336200Y-92204203D01*
X176464383Y-92249056D01*
X176494816Y-92251910D01*
X176494823Y-92251910D01*
X178603341Y-92251910D01*
X178603348Y-92251910D01*
X178633781Y-92249056D01*
X178761964Y-92204203D01*
X178871232Y-92123560D01*
X178951875Y-92014292D01*
X178996728Y-91886109D01*
X178999582Y-91855676D01*
X178999582Y-90747144D01*
X178996728Y-90716711D01*
X178951875Y-90588528D01*
X178871232Y-90479260D01*
X178871230Y-90479258D01*
X178761965Y-90398617D01*
X178702124Y-90377678D01*
X178633781Y-90353764D01*
X178633779Y-90353763D01*
X178633777Y-90353763D01*
X178603357Y-90350910D01*
X178603348Y-90350910D01*
X176494816Y-90350910D01*
X176494806Y-90350910D01*
X176464386Y-90353763D01*
X176336198Y-90398617D01*
X176226933Y-90479258D01*
X176226930Y-90479261D01*
X176146289Y-90588526D01*
X176101435Y-90716714D01*
X176098582Y-90747134D01*
X176098582Y-90851910D01*
X176078620Y-90926410D01*
X176024082Y-90980948D01*
X175949582Y-91000910D01*
X172519918Y-91000910D01*
X172445418Y-90980948D01*
X172407311Y-90949484D01*
X172387317Y-90926410D01*
X172381128Y-90919267D01*
X172381127Y-90919266D01*
X172347465Y-90897633D01*
X172260053Y-90841457D01*
X172260050Y-90841456D01*
X172121967Y-90800911D01*
X172121962Y-90800910D01*
X172121961Y-90800910D01*
X171978039Y-90800910D01*
X171978037Y-90800910D01*
X171978032Y-90800911D01*
X171839949Y-90841456D01*
X171718872Y-90919266D01*
X171718870Y-90919269D01*
X171624622Y-91028038D01*
X171564834Y-91158955D01*
X171544353Y-91301406D01*
X154999582Y-91301406D01*
X154999582Y-90747144D01*
X154996728Y-90716711D01*
X154951875Y-90588528D01*
X154871232Y-90479260D01*
X154871230Y-90479258D01*
X154761965Y-90398617D01*
X154702124Y-90377678D01*
X154633781Y-90353764D01*
X154633779Y-90353763D01*
X154633777Y-90353763D01*
X154603357Y-90350910D01*
X154603348Y-90350910D01*
X152494816Y-90350910D01*
X152494806Y-90350910D01*
X152464386Y-90353763D01*
X152336198Y-90398617D01*
X152226933Y-90479258D01*
X152226930Y-90479261D01*
X152146289Y-90588526D01*
X152106891Y-90701121D01*
X152063443Y-90764848D01*
X151993953Y-90798312D01*
X151966252Y-90800910D01*
X151879448Y-90800910D01*
X151832137Y-90814801D01*
X151760558Y-90835819D01*
X151683454Y-90837654D01*
X151615760Y-90800690D01*
X151575617Y-90734832D01*
X151569582Y-90692854D01*
X151569582Y-89300738D01*
X151949083Y-89300738D01*
X151964525Y-89418039D01*
X151964525Y-89418041D01*
X152024982Y-89563999D01*
X152121155Y-89689332D01*
X152121159Y-89689336D01*
X152246492Y-89785509D01*
X152392453Y-89845967D01*
X152509756Y-89861409D01*
X153299082Y-89861409D01*
X153799082Y-89861409D01*
X154588403Y-89861409D01*
X154588410Y-89861408D01*
X154705711Y-89845966D01*
X154705713Y-89845966D01*
X154851671Y-89785509D01*
X154977004Y-89689336D01*
X154977008Y-89689332D01*
X155073181Y-89563999D01*
X155133639Y-89418038D01*
X155149081Y-89300738D01*
X155149082Y-89300733D01*
X155149082Y-89099996D01*
X174194353Y-89099996D01*
X174194353Y-89100003D01*
X174214834Y-89242454D01*
X174214834Y-89242455D01*
X174214835Y-89242457D01*
X174274623Y-89373373D01*
X174368872Y-89482143D01*
X174489947Y-89559953D01*
X174628039Y-89600500D01*
X174628041Y-89600500D01*
X174771959Y-89600500D01*
X174771961Y-89600500D01*
X174910053Y-89559953D01*
X175031128Y-89482143D01*
X175125377Y-89373373D01*
X175185165Y-89242457D01*
X175192750Y-89189705D01*
X175223111Y-89118805D01*
X175284855Y-89072583D01*
X175340233Y-89061910D01*
X175949582Y-89061910D01*
X176024082Y-89081872D01*
X176078620Y-89136410D01*
X176098582Y-89210910D01*
X176098582Y-89315685D01*
X176101435Y-89346105D01*
X176101435Y-89346107D01*
X176101436Y-89346109D01*
X176110976Y-89373373D01*
X176146289Y-89474293D01*
X176226930Y-89583558D01*
X176226933Y-89583561D01*
X176336198Y-89664202D01*
X176336199Y-89664202D01*
X176336200Y-89664203D01*
X176464383Y-89709056D01*
X176494816Y-89711910D01*
X176494823Y-89711910D01*
X178603341Y-89711910D01*
X178603348Y-89711910D01*
X178633781Y-89709056D01*
X178761964Y-89664203D01*
X178871232Y-89583560D01*
X178951875Y-89474292D01*
X178996728Y-89346109D01*
X178999582Y-89315676D01*
X178999582Y-88207144D01*
X178996728Y-88176711D01*
X178951875Y-88048528D01*
X178871232Y-87939260D01*
X178871230Y-87939258D01*
X178761965Y-87858617D01*
X178690135Y-87833483D01*
X178633781Y-87813764D01*
X178633779Y-87813763D01*
X178633777Y-87813763D01*
X178603357Y-87810910D01*
X178603348Y-87810910D01*
X176494816Y-87810910D01*
X176494806Y-87810910D01*
X176464386Y-87813763D01*
X176336198Y-87858617D01*
X176226933Y-87939258D01*
X176226930Y-87939261D01*
X176146289Y-88048526D01*
X176101435Y-88176714D01*
X176098582Y-88207134D01*
X176098582Y-88311910D01*
X176078620Y-88386410D01*
X176024082Y-88440948D01*
X175949582Y-88460910D01*
X174999025Y-88460910D01*
X174937591Y-88477371D01*
X174922602Y-88481388D01*
X174922601Y-88481388D01*
X174922599Y-88481389D01*
X174854081Y-88520948D01*
X174854078Y-88520950D01*
X174819170Y-88555859D01*
X174752375Y-88594423D01*
X174713811Y-88599500D01*
X174628039Y-88599500D01*
X174628037Y-88599500D01*
X174628032Y-88599501D01*
X174489949Y-88640046D01*
X174368872Y-88717856D01*
X174368870Y-88717859D01*
X174274622Y-88826628D01*
X174214834Y-88957545D01*
X174194353Y-89099996D01*
X155149082Y-89099996D01*
X155149082Y-89011410D01*
X153799082Y-89011410D01*
X153799082Y-89861409D01*
X153299082Y-89861409D01*
X153299082Y-89011410D01*
X151949083Y-89011410D01*
X151949083Y-89300738D01*
X151569582Y-89300738D01*
X151569582Y-88222081D01*
X151949082Y-88222081D01*
X151949082Y-88511410D01*
X153299082Y-88511410D01*
X153799082Y-88511410D01*
X155149081Y-88511410D01*
X155149081Y-88222089D01*
X155149080Y-88222081D01*
X155133638Y-88104780D01*
X155133638Y-88104778D01*
X155073181Y-87958820D01*
X154977008Y-87833487D01*
X154977004Y-87833483D01*
X154851671Y-87737310D01*
X154705710Y-87676852D01*
X154588410Y-87661410D01*
X153799082Y-87661410D01*
X153799082Y-88511410D01*
X153299082Y-88511410D01*
X153299082Y-87661410D01*
X152509761Y-87661410D01*
X152509752Y-87661411D01*
X152392452Y-87676853D01*
X152392450Y-87676853D01*
X152246492Y-87737310D01*
X152121159Y-87833483D01*
X152121155Y-87833487D01*
X152024982Y-87958820D01*
X151964524Y-88104781D01*
X151949082Y-88222081D01*
X151569582Y-88222081D01*
X151569582Y-86760738D01*
X151949083Y-86760738D01*
X151964525Y-86878039D01*
X151964525Y-86878041D01*
X152024982Y-87023999D01*
X152121155Y-87149332D01*
X152121159Y-87149336D01*
X152246492Y-87245509D01*
X152392453Y-87305967D01*
X152509756Y-87321409D01*
X153299082Y-87321409D01*
X153799082Y-87321409D01*
X154588403Y-87321409D01*
X154588410Y-87321408D01*
X154705711Y-87305966D01*
X154705713Y-87305966D01*
X154851671Y-87245509D01*
X154977004Y-87149336D01*
X154977008Y-87149332D01*
X155073181Y-87023999D01*
X155133639Y-86878038D01*
X155149081Y-86760738D01*
X155149082Y-86760733D01*
X155149082Y-86471410D01*
X153799082Y-86471410D01*
X153799082Y-87321409D01*
X153299082Y-87321409D01*
X153299082Y-86471410D01*
X151949083Y-86471410D01*
X151949083Y-86760738D01*
X151569582Y-86760738D01*
X151569582Y-86199996D01*
X170494353Y-86199996D01*
X170494353Y-86200003D01*
X170514834Y-86342454D01*
X170573726Y-86471410D01*
X170574623Y-86473373D01*
X170668872Y-86582143D01*
X170789947Y-86659953D01*
X170928039Y-86700500D01*
X170928041Y-86700500D01*
X171071959Y-86700500D01*
X171071961Y-86700500D01*
X171210053Y-86659953D01*
X171331128Y-86582143D01*
X171334005Y-86578821D01*
X171343091Y-86568338D01*
X171406963Y-86525106D01*
X171455699Y-86516910D01*
X175949582Y-86516910D01*
X176024082Y-86536872D01*
X176078620Y-86591410D01*
X176098582Y-86665910D01*
X176098582Y-86775685D01*
X176101435Y-86806105D01*
X176146289Y-86934293D01*
X176226930Y-87043558D01*
X176226933Y-87043561D01*
X176336198Y-87124202D01*
X176336199Y-87124202D01*
X176336200Y-87124203D01*
X176464383Y-87169056D01*
X176494816Y-87171910D01*
X176494823Y-87171910D01*
X178603341Y-87171910D01*
X178603348Y-87171910D01*
X178633781Y-87169056D01*
X178761964Y-87124203D01*
X178871232Y-87043560D01*
X178951875Y-86934292D01*
X178996728Y-86806109D01*
X178999582Y-86775676D01*
X178999582Y-85667144D01*
X178996728Y-85636711D01*
X178951875Y-85508528D01*
X178871232Y-85399260D01*
X178871230Y-85399258D01*
X178761965Y-85318617D01*
X178690135Y-85293483D01*
X178633781Y-85273764D01*
X178633779Y-85273763D01*
X178633777Y-85273763D01*
X178603357Y-85270910D01*
X178603348Y-85270910D01*
X176494816Y-85270910D01*
X176494806Y-85270910D01*
X176464386Y-85273763D01*
X176336198Y-85318617D01*
X176226933Y-85399258D01*
X176226930Y-85399261D01*
X176146289Y-85508526D01*
X176101435Y-85636714D01*
X176098582Y-85667134D01*
X176098582Y-85776910D01*
X176078620Y-85851410D01*
X176024082Y-85905948D01*
X175949582Y-85925910D01*
X171492802Y-85925910D01*
X171418302Y-85905948D01*
X171380195Y-85874484D01*
X171331128Y-85817857D01*
X171331127Y-85817856D01*
X171267413Y-85776910D01*
X171210053Y-85740047D01*
X171210050Y-85740046D01*
X171071967Y-85699501D01*
X171071962Y-85699500D01*
X171071961Y-85699500D01*
X170928039Y-85699500D01*
X170928037Y-85699500D01*
X170928032Y-85699501D01*
X170789949Y-85740046D01*
X170668872Y-85817856D01*
X170668870Y-85817859D01*
X170574622Y-85926628D01*
X170514834Y-86057545D01*
X170494353Y-86199996D01*
X151569582Y-86199996D01*
X151569582Y-85682081D01*
X151949082Y-85682081D01*
X151949082Y-85971410D01*
X153299082Y-85971410D01*
X153799082Y-85971410D01*
X155149081Y-85971410D01*
X155149081Y-85682089D01*
X155149080Y-85682081D01*
X155133638Y-85564780D01*
X155133638Y-85564778D01*
X155073181Y-85418820D01*
X154977008Y-85293487D01*
X154977004Y-85293483D01*
X154851671Y-85197310D01*
X154705710Y-85136852D01*
X154588410Y-85121410D01*
X153799082Y-85121410D01*
X153799082Y-85971410D01*
X153299082Y-85971410D01*
X153299082Y-85121410D01*
X152509761Y-85121410D01*
X152509752Y-85121411D01*
X152392452Y-85136853D01*
X152392450Y-85136853D01*
X152246492Y-85197310D01*
X152121159Y-85293483D01*
X152121155Y-85293487D01*
X152024982Y-85418820D01*
X151964524Y-85564781D01*
X151949082Y-85682081D01*
X151569582Y-85682081D01*
X151569582Y-79190738D01*
X151949083Y-79190738D01*
X151964525Y-79308039D01*
X151964525Y-79308041D01*
X152024982Y-79453999D01*
X152121155Y-79579332D01*
X152121159Y-79579336D01*
X152246492Y-79675509D01*
X152392453Y-79735967D01*
X152509756Y-79751409D01*
X153299082Y-79751409D01*
X153799082Y-79751409D01*
X154588403Y-79751409D01*
X154588410Y-79751408D01*
X154705711Y-79735966D01*
X154705713Y-79735966D01*
X154851671Y-79675509D01*
X154977004Y-79579336D01*
X154977008Y-79579332D01*
X155073181Y-79453999D01*
X155133639Y-79308038D01*
X155149081Y-79190738D01*
X175949083Y-79190738D01*
X175964525Y-79308039D01*
X175964525Y-79308041D01*
X176024982Y-79453999D01*
X176121155Y-79579332D01*
X176121159Y-79579336D01*
X176246492Y-79675509D01*
X176392453Y-79735967D01*
X176509756Y-79751409D01*
X177299082Y-79751409D01*
X177799082Y-79751409D01*
X178588403Y-79751409D01*
X178588410Y-79751408D01*
X178705711Y-79735966D01*
X178705713Y-79735966D01*
X178851671Y-79675509D01*
X178977004Y-79579336D01*
X178977008Y-79579332D01*
X179073181Y-79453999D01*
X179133639Y-79308038D01*
X179149081Y-79190738D01*
X179149082Y-79190733D01*
X179149082Y-78901410D01*
X177799082Y-78901410D01*
X177799082Y-79751409D01*
X177299082Y-79751409D01*
X177299082Y-78901410D01*
X175949083Y-78901410D01*
X175949083Y-79190738D01*
X155149081Y-79190738D01*
X155149082Y-79190733D01*
X155149082Y-78901410D01*
X153799082Y-78901410D01*
X153799082Y-79751409D01*
X153299082Y-79751409D01*
X153299082Y-78901410D01*
X151949083Y-78901410D01*
X151949083Y-79190738D01*
X151569582Y-79190738D01*
X151569582Y-78112081D01*
X151949082Y-78112081D01*
X151949082Y-78401410D01*
X153299082Y-78401410D01*
X153799082Y-78401410D01*
X155149081Y-78401410D01*
X155149081Y-78112089D01*
X155149080Y-78112081D01*
X175949082Y-78112081D01*
X175949082Y-78401410D01*
X177299082Y-78401410D01*
X177799082Y-78401410D01*
X179149081Y-78401410D01*
X179149081Y-78112089D01*
X179149080Y-78112081D01*
X179133638Y-77994780D01*
X179133638Y-77994778D01*
X179073181Y-77848820D01*
X178977008Y-77723487D01*
X178977004Y-77723483D01*
X178851671Y-77627310D01*
X178705710Y-77566852D01*
X178588410Y-77551410D01*
X177799082Y-77551410D01*
X177799082Y-78401410D01*
X177299082Y-78401410D01*
X177299082Y-77551410D01*
X176509761Y-77551410D01*
X176509752Y-77551411D01*
X176392452Y-77566853D01*
X176392450Y-77566853D01*
X176246492Y-77627310D01*
X176121159Y-77723483D01*
X176121155Y-77723487D01*
X176024982Y-77848820D01*
X175964524Y-77994781D01*
X175949082Y-78112081D01*
X155149080Y-78112081D01*
X155133638Y-77994780D01*
X155133638Y-77994778D01*
X155073181Y-77848820D01*
X154977008Y-77723487D01*
X154977004Y-77723483D01*
X154851671Y-77627310D01*
X154705710Y-77566852D01*
X154588410Y-77551410D01*
X153799082Y-77551410D01*
X153799082Y-78401410D01*
X153299082Y-78401410D01*
X153299082Y-77551410D01*
X152509761Y-77551410D01*
X152509752Y-77551411D01*
X152392452Y-77566853D01*
X152392450Y-77566853D01*
X152246492Y-77627310D01*
X152121159Y-77723483D01*
X152121155Y-77723487D01*
X152024982Y-77848820D01*
X151964524Y-77994781D01*
X151949082Y-78112081D01*
X151569582Y-78112081D01*
X151569582Y-76650738D01*
X151949083Y-76650738D01*
X151964525Y-76768039D01*
X151964525Y-76768041D01*
X152024982Y-76913999D01*
X152121155Y-77039332D01*
X152121159Y-77039336D01*
X152246492Y-77135509D01*
X152392453Y-77195967D01*
X152509756Y-77211409D01*
X153299082Y-77211409D01*
X153799082Y-77211409D01*
X154588403Y-77211409D01*
X154588410Y-77211408D01*
X154705711Y-77195966D01*
X154705713Y-77195966D01*
X154851671Y-77135509D01*
X154977004Y-77039336D01*
X154977008Y-77039332D01*
X155073181Y-76913999D01*
X155133639Y-76768038D01*
X155149081Y-76650738D01*
X155149082Y-76650733D01*
X155149082Y-76361410D01*
X153799082Y-76361410D01*
X153799082Y-77211409D01*
X153299082Y-77211409D01*
X153299082Y-76361410D01*
X151949083Y-76361410D01*
X151949083Y-76650738D01*
X151569582Y-76650738D01*
X151569582Y-75572081D01*
X151949082Y-75572081D01*
X151949082Y-75861410D01*
X153299082Y-75861410D01*
X153799082Y-75861410D01*
X155149081Y-75861410D01*
X155149081Y-75572089D01*
X155149080Y-75572081D01*
X155133638Y-75454780D01*
X155133638Y-75454778D01*
X155073181Y-75308820D01*
X154977008Y-75183487D01*
X154977004Y-75183483D01*
X154851671Y-75087310D01*
X154705710Y-75026852D01*
X154588410Y-75011410D01*
X153799082Y-75011410D01*
X153799082Y-75861410D01*
X153299082Y-75861410D01*
X153299082Y-75011410D01*
X152509761Y-75011410D01*
X152509752Y-75011411D01*
X152392452Y-75026853D01*
X152392450Y-75026853D01*
X152246492Y-75087310D01*
X152121159Y-75183483D01*
X152121155Y-75183487D01*
X152024982Y-75308820D01*
X151964524Y-75454781D01*
X151949082Y-75572081D01*
X151569582Y-75572081D01*
X151569582Y-74110738D01*
X151949083Y-74110738D01*
X151964525Y-74228039D01*
X151964525Y-74228041D01*
X152024982Y-74373999D01*
X152121155Y-74499332D01*
X152121159Y-74499336D01*
X152246492Y-74595509D01*
X152392453Y-74655967D01*
X152509756Y-74671409D01*
X153299082Y-74671409D01*
X153799082Y-74671409D01*
X154588403Y-74671409D01*
X154588410Y-74671408D01*
X154705711Y-74655966D01*
X154705713Y-74655966D01*
X154851671Y-74595509D01*
X154977004Y-74499336D01*
X154977008Y-74499332D01*
X155073181Y-74373999D01*
X155133639Y-74228038D01*
X155149081Y-74110738D01*
X155149082Y-74110733D01*
X155149082Y-73821410D01*
X153799082Y-73821410D01*
X153799082Y-74671409D01*
X153299082Y-74671409D01*
X153299082Y-73821410D01*
X151949083Y-73821410D01*
X151949083Y-74110738D01*
X151569582Y-74110738D01*
X151569582Y-73032081D01*
X151949082Y-73032081D01*
X151949082Y-73321410D01*
X153299082Y-73321410D01*
X153799082Y-73321410D01*
X155149081Y-73321410D01*
X155149081Y-73032089D01*
X155149080Y-73032081D01*
X155133638Y-72914780D01*
X155133638Y-72914778D01*
X155073181Y-72768820D01*
X154977008Y-72643487D01*
X154977004Y-72643483D01*
X154851671Y-72547310D01*
X154705710Y-72486852D01*
X154588410Y-72471410D01*
X153799082Y-72471410D01*
X153799082Y-73321410D01*
X153299082Y-73321410D01*
X153299082Y-72471410D01*
X152509761Y-72471410D01*
X152509752Y-72471411D01*
X152392452Y-72486853D01*
X152392450Y-72486853D01*
X152246492Y-72547310D01*
X152121159Y-72643483D01*
X152121155Y-72643487D01*
X152024982Y-72768820D01*
X151964524Y-72914781D01*
X151949082Y-73032081D01*
X151569582Y-73032081D01*
X151569582Y-61869500D01*
X151589544Y-61795000D01*
X151644082Y-61740462D01*
X151718582Y-61720500D01*
X164290713Y-61720500D01*
X164365213Y-61740462D01*
G37*
%TD.AperFunction*%
%TD*%
M02*
